<svg id="Beef" xmlns="http://www.w3.org/2000/svg" viewBox="0 0 72.75 72.75"><defs><style>.cls-1{fill:#b7bbe9;}.cls-2{fill:#5c5e75;}.cls-3,.cls-6{stroke:#000;stroke-miterlimit:10;}.cls-4,.cls-6{fill:#f2f2f2;}.cls-5{fill:#d19c9c;}.cls-6{stroke-width:0.25px;}</style></defs><title>beef</title><path class="cls-1" d="M141,351.93a36.38,36.38,0,1,1-36.37,36.37A36.37,36.37,0,0,1,141,351.93" transform="translate(-104.59 -351.93)"/><path class="cls-2" d="M126.25,408.31l.24,1.15,7.15,14.48a36.43,36.43,0,0,0,43.7-35.73l-9.78-19.8-11.31,9.69-15.79,10.76-15-.13L114.71,385Z" transform="translate(-104.59 -351.93)"/><path class="cls-3" d="M155.46,391.83c-.39,12,13.42-5.72,12.92-14-.19-3.2-7.44,3.39-11,1.67C153.09,377.46,155.65,386.3,155.46,391.83Z" transform="translate(-104.59 -351.93)"/><path class="cls-3" d="M126.88,391.22c-.29,12-14.83-6.75-13.46-12.75.72-3.13,8.43,3.94,12.29,2.38C130.32,379,127,385.68,126.88,391.22Z" transform="translate(-104.59 -351.93)"/><path class="cls-4" d="M159.3,383.81c-.77,23.76-6,35.11-19,35.11-12.17,0-18-12.11-18-32.07,0-12.46,11.12-16.23,18.36-16.23C143,370.62,159.7,371.35,159.3,383.81Z" transform="translate(-104.59 -351.93)"/><path class="cls-5" d="M150.47,412.12c0,3.72-19.29,3.46-19.26-.26s3.75-9,9.82-9C146.22,402.9,150.47,408.41,150.47,412.12Z" transform="translate(-104.59 -351.93)"/><ellipse cx="31.38" cy="58.43" rx="1.29" ry="2.48"/><ellipse cx="40.75" cy="58.28" rx="1.29" ry="2.48"/><circle class="cls-3" cx="26.11" cy="39.29" r="2.57"/><circle class="cls-3" cx="47.3" cy="39.66" r="2.57"/><path class="cls-3" d="M148.17,375.1c-.28,1.07,2.54,3.49-.85,5.2s-5.14-.78-9.1.25c-2.58.67-3.32,3.23-8.5,3.26-2.38,0-4.55-3.77-4.2-4.47,3.67-7.18,9.22-8.72,15.22-8.72S149.08,371.54,148.17,375.1Z" transform="translate(-104.59 -351.93)"/><path class="cls-6" d="M129,377c2.3.52-2,7.08-4.28,6.52S113.59,363.8,117,366.85C118.92,368.56,126.22,376.32,129,377Z" transform="translate(-104.59 -351.93)"/><path class="cls-6" d="M153.55,377.15c-2.35.2,1,7.55,3.36,7.31s13.59-18.82,9.92-15.9S156.4,376.91,153.55,377.15Z" transform="translate(-104.59 -351.93)"/></svg>