<svg id="Broccoli" xmlns="http://www.w3.org/2000/svg" xmlns:xlink="http://www.w3.org/1999/xlink" viewBox="0 0 72.75 72.75"><defs><style>.cls-1{fill:#a195d9;}.cls-2{fill:#514b6d;}.cls-3{fill:#899f2f;}.cls-4{fill:url(#Unbenannter_Verlauf_52);}.cls-5{fill:none;stroke:#000;stroke-miterlimit:10;}</style><linearGradient id="Unbenannter_Verlauf_52" x1="145.91" y1="231.14" x2="133.16" y2="192.14" gradientUnits="userSpaceOnUse"><stop offset="0.02" stop-color="#243e00"/><stop offset="0.4" stop-color="#264002"/><stop offset="0.54" stop-color="#2d4508"/><stop offset="0.65" stop-color="#394e14"/><stop offset="0.73" stop-color="#4a5c24"/><stop offset="0.8" stop-color="#606e3a"/><stop offset="0.87" stop-color="#7c8454"/><stop offset="0.93" stop-color="#9d9e74"/><stop offset="0.98" stop-color="#c1bb97"/><stop offset="1" stop-color="#d1c7a6"/></linearGradient></defs><title>broccoli</title><path class="cls-1" d="M140.67,179.78a36.38,36.38,0,1,1-36.38,36.38,36.37,36.37,0,0,1,36.38-36.38" transform="translate(-104.29 -179.78)"/><path class="cls-2" d="M116.67,216.45,134.23,252a36.39,36.39,0,0,0,39.61-20.87l-10.61-21.53-.32.53-4.61-9Z" transform="translate(-104.29 -179.78)"/><path class="cls-3" d="M147.17,236.69c-.32,1.67-13.3,1.73-13.71.23-.31-1.16,3.11-5.52-6.76-17-.74-.86,6.21-.48,6.71-1.44.3-.59,3.42,10.95,3.8,10.46,2.29-2.88,1.27-9.31,1.7-9.8.93-1.07,3.83,1,4.86,1,.86,0-.41,7.28.38,8.05s3.29-8,4.83-8.62c1.06-.46,6.58-.15,5.92.57C145.68,230.32,147.36,235.68,147.17,236.69Z" transform="translate(-104.29 -179.78)"/><path class="cls-4" d="M128.9,212.41a6.71,6.71,0,0,1,.47,6.37c-.77,1.59-2.08,3.37-4,3.36-4.57,0-10.46-4.86-9.26-10,1.79-7.75,7.85-2.81,6.44-4.9-4.63-6.86,3.73-8.35,3.73-8.35,1.81-7.21,10.55-6.52,14-2.77,0,0,7.5-4.27,10.75,1.61,1.43-.52,10.15,1.78,8.26,8.05,0,0,4.72,2.28,4.71,6.42,0,10.67-11.49,7.94-12.48,7.86a3.68,3.68,0,0,0-2.24,1c-4.4,3.16-6.63-2.37-7.14-1.3-1.3,2.69-3.36.91-4,.77s-.41,2.2-4.07,2.48c-2.29.18-3.47-3.69-4.59-3.69a.91.91,0,0,0-.75.45" transform="translate(-104.29 -179.78)"/><path d="M150.77,200.82a3.32,3.32,0,0,1-.84,2.54,6.27,6.27,0,0,1-2.2,1.59,10.34,10.34,0,0,1-2.57.75,9.8,9.8,0,0,1-2.65.05,20.53,20.53,0,0,0,4.91-1.47,8.24,8.24,0,0,0,2.06-1.35A4.29,4.29,0,0,0,150.77,200.82Z" transform="translate(-104.29 -179.78)"/><path d="M158.59,209.47a2.07,2.07,0,0,1-.16,1.4,5.79,5.79,0,0,1-.71,1.23,5.55,5.55,0,0,1-2.19,1.84,6.64,6.64,0,0,1-2.78.59,5.84,5.84,0,0,1-2.68-.74,7.78,7.78,0,0,0,2.66.21,7.5,7.5,0,0,0,2.49-.72,6.57,6.57,0,0,0,2-1.6,10.44,10.44,0,0,0,.85-1A2.48,2.48,0,0,0,158.59,209.47Z" transform="translate(-104.29 -179.78)"/><path d="M128.37,200a3.82,3.82,0,0,1,2.12,1.16,12.12,12.12,0,0,1,1.52,1.86,6,6,0,0,1,1,2.25,6.41,6.41,0,0,1,0,2.43H133a14.36,14.36,0,0,0-.55-2.26,8.28,8.28,0,0,0-1-2c-.44-.65-.86-1.3-1.33-1.91A5.11,5.11,0,0,0,128.37,200Z" transform="translate(-104.29 -179.78)"/><path d="M135.84,215.52a4.84,4.84,0,0,0,1.92.55,5.77,5.77,0,0,0,1.9-.18,3.85,3.85,0,0,0,1.62-.89,3.33,3.33,0,0,0,.88-1.73,2.52,2.52,0,0,1-.43,2.11,3.4,3.4,0,0,1-1.87,1.22,4.32,4.32,0,0,1-2.2,0A3.23,3.23,0,0,1,135.84,215.52Z" transform="translate(-104.29 -179.78)"/><path d="M140.84,197.44l-1.28,1.45c-.36.53-.9.87-1.28,1.37a5.12,5.12,0,0,0-1.21,3.5,5.37,5.37,0,0,1,.76-3.81,4.35,4.35,0,0,1,1.29-1.53A7.72,7.72,0,0,1,140.84,197.44Z" transform="translate(-104.29 -179.78)"/><path d="M121.43,209.56c-.24.6-.64,1.16-.85,1.68a1.91,1.91,0,0,0,.13,1.56,5.3,5.3,0,0,0,2.47,2.55,3.8,3.8,0,0,1-1.86-.66,3.67,3.67,0,0,1-1.3-1.59,3.24,3.24,0,0,1-.26-1,2,2,0,0,1,.29-1.07A6.66,6.66,0,0,1,121.43,209.56Z" transform="translate(-104.29 -179.78)"/><path class="cls-5" d="M129.7,209.08a.75.75,0,0,0,.25.5" transform="translate(-104.29 -179.78)"/><path class="cls-5" d="M132.45,210a2.57,2.57,0,0,1,.37.88" transform="translate(-104.29 -179.78)"/><path class="cls-5" d="M132.2,212.83a1,1,0,0,0,.75,0" transform="translate(-104.29 -179.78)"/><path class="cls-5" d="M134.7,211.45v.75" transform="translate(-104.29 -179.78)"/><path class="cls-5" d="M132.07,215.7a.54.54,0,0,0,.5.13" transform="translate(-104.29 -179.78)"/><path class="cls-5" d="M130.7,211a1.31,1.31,0,0,0,.12.88" transform="translate(-104.29 -179.78)"/><path class="cls-5" d="M131.32,208.2a1.26,1.26,0,0,1,.75.38" transform="translate(-104.29 -179.78)"/><path class="cls-5" d="M127.07,210.58v.5" transform="translate(-104.29 -179.78)"/><path class="cls-5" d="M127.57,212.83v.75" transform="translate(-104.29 -179.78)"/><path class="cls-5" d="M124.7,212.7a.85.85,0,0,1,.62.5" transform="translate(-104.29 -179.78)"/><path class="cls-5" d="M126.82,215.83h.63" transform="translate(-104.29 -179.78)"/><path class="cls-5" d="M153.57,202.83a1.47,1.47,0,0,1-.25,1.25" transform="translate(-104.29 -179.78)"/><path class="cls-5" d="M151.32,207.83a.46.46,0,0,0,.5.12" transform="translate(-104.29 -179.78)"/><path class="cls-5" d="M153.82,207.7a2.36,2.36,0,0,0,.75-.12" transform="translate(-104.29 -179.78)"/><path class="cls-5" d="M150.82,205.45a6.68,6.68,0,0,1,.88.38" transform="translate(-104.29 -179.78)"/><path class="cls-5" d="M155.32,205.58a.72.72,0,0,0,.5-.75" transform="translate(-104.29 -179.78)"/><path class="cls-5" d="M154.82,201.33a1.76,1.76,0,0,1,1,.62" transform="translate(-104.29 -179.78)"/><path class="cls-5" d="M156.82,203.58a.23.23,0,0,0,.38,0" transform="translate(-104.29 -179.78)"/><path class="cls-5" d="M157.32,206.7a.37.37,0,0,1-.25.25" transform="translate(-104.29 -179.78)"/><path class="cls-5" d="M159.7,214.45a1.09,1.09,0,0,1-.5.5" transform="translate(-104.29 -179.78)"/><path class="cls-5" d="M155.07,217.7a.75.75,0,0,0,.63.13" transform="translate(-104.29 -179.78)"/><path class="cls-5" d="M158.07,218.45a1.09,1.09,0,0,0,.88-.12" transform="translate(-104.29 -179.78)"/><path class="cls-5" d="M156.32,215.2a.72.72,0,0,1,0,.5" transform="translate(-104.29 -179.78)"/><path class="cls-5" d="M159.07,216.45a1,1,0,0,0,.88.25" transform="translate(-104.29 -179.78)"/></svg>