<svg id="Cabbage" xmlns="http://www.w3.org/2000/svg" xmlns:xlink="http://www.w3.org/1999/xlink" viewBox="0 0 72.75 72.75"><defs><style>.cls-1{fill:#a3a3ce;}.cls-2{fill:#4c4c82;}.cls-3{fill:url(#Unbenannter_Verlauf_159);}.cls-4{fill:url(#Unbenannter_Verlauf_533);}.cls-5{fill:url(#Unbenannter_Verlauf_151);}.cls-6{fill:url(#Unbenannter_Verlauf_150);}.cls-7{fill:none;}.cls-8{fill:url(#Unbenannter_Verlauf_251);}</style><linearGradient id="Unbenannter_Verlauf_159" x1="137.31" y1="20.83" x2="139.07" y2="58.2" gradientUnits="userSpaceOnUse"><stop offset="0" stop-color="#cdd3bc"/><stop offset="0.11" stop-color="#c9cfb5"/><stop offset="0.27" stop-color="#bec5a1"/><stop offset="0.46" stop-color="#acb581"/><stop offset="0.67" stop-color="#939e53"/><stop offset="0.9" stop-color="#74801a"/><stop offset="1" stop-color="#657300"/></linearGradient><linearGradient id="Unbenannter_Verlauf_533" x1="124.03" y1="14.37" x2="128.11" y2="60.34" gradientUnits="userSpaceOnUse"><stop offset="0" stop-color="#ffff82"/><stop offset="1" stop-color="#657300"/></linearGradient><linearGradient id="Unbenannter_Verlauf_151" x1="124.32" y1="14.83" x2="148.21" y2="54.78" gradientUnits="userSpaceOnUse"><stop offset="0" stop-color="#ffff82"/><stop offset="0.13" stop-color="#f9f97d"/><stop offset="0.3" stop-color="#e7e96e"/><stop offset="0.5" stop-color="#c9ce55"/><stop offset="0.73" stop-color="#a0a932"/><stop offset="0.97" stop-color="#6c7a06"/><stop offset="1" stop-color="#657300"/></linearGradient><linearGradient id="Unbenannter_Verlauf_150" x1="107.33" y1="38.64" x2="133.92" y2="55.37" gradientUnits="userSpaceOnUse"><stop offset="0.1" stop-color="#ffff82"/><stop offset="0.32" stop-color="#cacf55"/><stop offset="0.54" stop-color="#9ea730"/><stop offset="0.73" stop-color="#7f8b16"/><stop offset="0.89" stop-color="#6c7906"/><stop offset="1" stop-color="#657300"/></linearGradient><linearGradient id="Unbenannter_Verlauf_251" x1="129.64" y1="23.17" x2="152.9" y2="62.08" gradientUnits="userSpaceOnUse"><stop offset="0.09" stop-color="#ffff82"/><stop offset="0.21" stop-color="#dbde64"/><stop offset="0.39" stop-color="#a8b039"/><stop offset="0.55" stop-color="#848f1a"/><stop offset="0.68" stop-color="#6d7a07"/><stop offset="0.76" stop-color="#657300"/></linearGradient></defs><title>cabbage</title><path class="cls-1" d="M138.49,8.2a36.38,36.38,0,1,1-36.37,36.38A36.38,36.38,0,0,1,138.49,8.2" transform="translate(-102.12 -8.2)"/><path class="cls-2" d="M114.38,51.85l13.77,27.61c10.7,3.39,32.93,2.33,43.69-20.33L160.56,36.34,153.94,48.6l-4.61-9.05Z" transform="translate(-102.12 -8.2)"/><path class="cls-3" d="M161.7,40.26c2.43,9.31-1.64,16.93-9.65,21.57-1.83,1.06.5,5.31-.28,5.67-1.12.51-13,3.63-14.43,3.71-.43,0-2.76-3.72-3.46-4.92-.29-.48,17.5-3.37,17.5-3.37s-17.51,3.78-18,3.74c-9-.67-15.75-5.75-18.15-14.92-3-11.38,6.61-22.81,14.64-31.68C132.46,17.15,158.72,28.88,161.7,40.26Z" transform="translate(-102.12 -8.2)"/><path class="cls-4" d="M134.25,66.91s-15.9,1.21-19.55-18a27.34,27.34,0,0,1,.77-11.67c3.7-8.35-1.68-9.47.69-9.15,3.51.47,5-4.58,6.13-4.22,3.11,1,4.8-.85,5.78-.85s.5,3.24.34,4.24c-.2,1.2,4.44,2.82,4.31,3.83-.27,2.09-2.5,6.54-2.24,6.68,1.09.55,4.63,1.46,5.4,2.51C145.48,53.4,134.25,66.91,134.25,66.91Z" transform="translate(-102.12 -8.2)"/><path class="cls-5" d="M161.83,40.79C165,57.26,151,62,151,62s-23.49,9.6-20.16,1c6.37-16.53,10.53-11.06,13.66-16.8.85-1.57,0-3.48-.74-4.93S147.84,38.6,147,37c-.76-1.46-7.68-2-6.08-2.63,1.23-.48,2.73-4.49,2-5.49-.56-.79-3.53.23-3.57-1.36-.14-5.91-1.56-9.6-1.14-9.27C142.48,21.54,158.55,23.61,161.83,40.79Z" transform="translate(-102.12 -8.2)"/><path class="cls-6" d="M133.25,66.91s-15.9,1.21-19.55-18c-.84-4.45-1.31-7-.7-8.35,4.67-10-3.47-7.62-2.37-8.09,2.7-1.18,8-1.65,9-1.66s-.84,4.27-1,5.27c-.2,1.2,6.51,3,6.38,4-.27,2.09-4,3.74-3.78,3.88,1.09.55,4.63,1.46,5.4,2.51C136.23,59.57,133.25,66.91,133.25,66.91Z" transform="translate(-102.12 -8.2)"/><path class="cls-7" d="M146.39,25.92c.5.43,2.78,6.24,3,6.82a23.11,23.11,0,0,1,1,3.26,38.9,38.9,0,0,1,.86,7.75,20.36,20.36,0,0,1-1.2,6.82c-1,2.61-2.54,3.81-4.62,5.4a24.48,24.48,0,0,0-4,4.21,10.24,10.24,0,0,0-1.63,3.47A6.83,6.83,0,0,1,138.05,66" transform="translate(-102.12 -8.2)"/><path class="cls-7" d="M129.21,66.13a21.44,21.44,0,0,0-1.68-3,19,19,0,0,1-1.46-3.63c-.69-2.36.36-4.66.61-7a7.15,7.15,0,0,0-.89-4.12c-.55-.95-1.39-1.32-2.15-2.06-1-1-1.23-2.33-1.68-3.6a20,20,0,0,1-1.14-4.44" transform="translate(-102.12 -8.2)"/><path class="cls-7" d="M142,59.76c.28.23.72-.08,1.11-.14a3.42,3.42,0,0,1,1.66.27c1.85.62,4.27.76,5.92-.39a33.8,33.8,0,0,0,2.53-2.28A7.59,7.59,0,0,1,155.18,56c.56-.25,1.16-.28,1.17-1" transform="translate(-102.12 -8.2)"/><path class="cls-7" d="M149.09,52.45c.54.32,1-.87,1.8-1.15,1.15-.42,2.61-.45,3.4-1.58.43-.61.22-1.3.27-2a3.76,3.76,0,0,1,.77-1.87c.72-1.15,2-2.37,1.93-3.85" transform="translate(-102.12 -8.2)"/><path class="cls-7" d="M149.18,32.45c-.37.24-1.3-.72-1.81-1a3,3,0,0,1-1.74-1.58,12,12,0,0,1-.51-2.36,8,8,0,0,0-1.88-2.86" transform="translate(-102.12 -8.2)"/><path class="cls-7" d="M126.63,53.29a10.75,10.75,0,0,0-4.45-1.65,4.44,4.44,0,0,1-3.18-1.3c-.89-1.09-1.15-2.65-1.84-3.87" transform="translate(-102.12 -8.2)"/><path class="cls-7" d="M135.18,53.75c-.5-.76-.87-2-1.62-2.52s-1.84-.24-2.52-1-.38-1.6-.55-2.45c-.23-1.16-.93-2.92-2-3.53" transform="translate(-102.12 -8.2)"/><path class="cls-7" d="M127.5,63.25c-1-.27-1.94-.73-2.9-1a2,2,0,0,1-1.52-1.4c-.45-1-.67-2.07-1.59-2.73-.64-.46-1.25-.79-1.86-1.31" transform="translate(-102.12 -8.2)"/><path class="cls-7" d="M137.85,43.55c-.9-.21-2.45-1.51-3.3-1.92a29.94,29.94,0,0,0-4.15-1.43,16,16,0,0,1-4-2,11.18,11.18,0,0,0-2.55-1.61" transform="translate(-102.12 -8.2)"/><path class="cls-7" d="M127.25,38.7a3.1,3.1,0,0,0-.51-1.33c-.52-.87-1-1.7-1.41-2.61a16.72,16.72,0,0,0-1.46-2.86c-.6-.8-1.59-1.21-2.19-2s-.54-1.76-1.12-2.46" transform="translate(-102.12 -8.2)"/><path class="cls-7" d="M130.75,63.94c.53-.11.13-1.33.21-1.92a3.47,3.47,0,0,1,1.28-2.18,10.36,10.36,0,0,1,2.38-1.68,16.41,16.41,0,0,1,3.11-.67c2.14-.59,3.67-2.38,5.51-3.53,1.69-1.06,3.76-1.41,5.34-2.66" transform="translate(-102.12 -8.2)"/><path class="cls-7" d="M151.16,42.77c.59-.15.88-2,1.56-2.46s1.28-.62,1.9-1c1.22-.68,1.27-2,1.64-3.25" transform="translate(-102.12 -8.2)"/><path class="cls-8" d="M161.83,40.79C165,57.26,151,62,151,62s-23.49,9.6-20.16,1c6.37-16.53,19.7-4.54,22.83-10.28.86-1.57,0-3.48-.73-4.93s4.1-2.65,3.24-4.3c-.75-1.46-7.67-2-6.07-2.63,1.23-.48,2.72-4.49,2-5.49-.55-.79-3.52.23-3.56-1.36-.14-5.91-1.57-9.6-1.15-9.27C151.65,28.06,158.55,23.61,161.83,40.79Z" transform="translate(-102.12 -8.2)"/></svg>