<svg id="Fish" xmlns="http://www.w3.org/2000/svg" xmlns:xlink="http://www.w3.org/1999/xlink" viewBox="0 0 72.75 72.76"><defs><style>.cls-1{fill:#64789e;}.cls-2{fill:#263b5f;}.cls-3{fill:#f7be29;}.cls-3,.cls-5{stroke:#000;stroke-miterlimit:10;stroke-width:0.05px;}.cls-4{fill:url(#Unbenannter_Verlauf_9);}.cls-5{fill:none;}.cls-6{fill:url(#Unbenannter_Verlauf_731);}.cls-7{fill:url(#Unbenannter_Verlauf_731-2);}.cls-8{fill:url(#Unbenannter_Verlauf_731-3);}.cls-9{fill:url(#Unbenannter_Verlauf_731-4);}.cls-10{fill:url(#Unbenannter_Verlauf_731-5);}.cls-11{fill:url(#Unbenannter_Verlauf_731-6);}.cls-12{fill:url(#Unbenannter_Verlauf_731-7);}.cls-13{fill:url(#Unbenannter_Verlauf_731-8);}.cls-14{fill:url(#Unbenannter_Verlauf_731-9);}.cls-15{fill:url(#Unbenannter_Verlauf_731-10);}.cls-16{fill:url(#Unbenannter_Verlauf_731-11);}.cls-17{fill:url(#Unbenannter_Verlauf_731-12);}.cls-18{fill:url(#Unbenannter_Verlauf_731-13);}</style><linearGradient id="Unbenannter_Verlauf_9" x1="217.97" y1="268.08" x2="248.3" y2="309.75" gradientUnits="userSpaceOnUse"><stop offset="0" stop-color="#f7be29"/><stop offset="0" stop-color="#fff"/><stop offset="1" stop-color="#f7be29"/></linearGradient><linearGradient id="Unbenannter_Verlauf_731" x1="378.78" y1="-145.93" x2="385.5" y2="-145.93" gradientTransform="translate(375.04 671.24) rotate(-90)" gradientUnits="userSpaceOnUse"><stop offset="0" stop-color="#f7be29"/><stop offset="0" stop-color="#fff"/><stop offset="0.08" stop-color="#fef4da"/><stop offset="0.2" stop-color="#fce6ab"/><stop offset="0.32" stop-color="#fad983"/><stop offset="0.44" stop-color="#f9cf62"/><stop offset="0.57" stop-color="#f8c849"/><stop offset="0.7" stop-color="#f8c237"/><stop offset="0.84" stop-color="#f7bf2c"/><stop offset="1" stop-color="#f7be29"/></linearGradient><linearGradient id="Unbenannter_Verlauf_731-2" x1="378.78" y1="-149.02" x2="385.5" y2="-149.02" gradientTransform="translate(377.1 674.15) rotate(-90)" xlink:href="#Unbenannter_Verlauf_731"/><linearGradient id="Unbenannter_Verlauf_731-3" x1="376.65" y1="-151.93" x2="383.37" y2="-151.93" gradientTransform="translate(381.04 675.48) rotate(-90)" xlink:href="#Unbenannter_Verlauf_731"/><linearGradient id="Unbenannter_Verlauf_731-4" x1="373.04" y1="-154.38" x2="379.76" y2="-154.38" gradientTransform="translate(386.07 675.38) rotate(-90)" xlink:href="#Unbenannter_Verlauf_731"/><linearGradient id="Unbenannter_Verlauf_731-5" x1="375.4" y1="-145.87" x2="382.12" y2="-145.87" gradientTransform="translate(378.19 668.93) rotate(-90)" xlink:href="#Unbenannter_Verlauf_731"/><linearGradient id="Unbenannter_Verlauf_731-6" x1="373.61" y1="-149.02" x2="380.33" y2="-149.02" gradientTransform="translate(381.97 670.71) rotate(-90)" xlink:href="#Unbenannter_Verlauf_731"/><linearGradient id="Unbenannter_Verlauf_731-7" x1="372.36" y1="-151.71" x2="379.08" y2="-151.71" gradientTransform="translate(384.94 672.42) rotate(-90)" xlink:href="#Unbenannter_Verlauf_731"/><linearGradient id="Unbenannter_Verlauf_731-8" x1="371.06" y1="-147.14" x2="377.78" y2="-147.14" gradientTransform="translate(383.12 667.25) rotate(-90)" xlink:href="#Unbenannter_Verlauf_731"/><linearGradient id="Unbenannter_Verlauf_731-9" x1="367.89" y1="-153.35" x2="374.61" y2="-153.35" gradientTransform="translate(390.24 670.99) rotate(-90)" xlink:href="#Unbenannter_Verlauf_731"/><linearGradient id="Unbenannter_Verlauf_731-10" x1="364.24" y1="-151.71" x2="370.96" y2="-151.71" gradientTransform="translate(392.6 667.02) rotate(-90)" xlink:href="#Unbenannter_Verlauf_731"/><linearGradient id="Unbenannter_Verlauf_731-11" x1="367.58" y1="-148.53" x2="374.3" y2="-148.53" gradientTransform="translate(387.33 666.24) rotate(-90)" xlink:href="#Unbenannter_Verlauf_731"/><linearGradient id="Unbenannter_Verlauf_731-12" x1="368.2" y1="-150.88" x2="374.91" y2="-150.88" gradientTransform="translate(388.31 668.87) rotate(-90)" xlink:href="#Unbenannter_Verlauf_731"/><linearGradient id="Unbenannter_Verlauf_731-13" x1="364.47" y1="-149.84" x2="371.19" y2="-149.84" gradientTransform="translate(391.13 665.41) rotate(-90)" xlink:href="#Unbenannter_Verlauf_731"/></defs><title>fish</title><circle class="cls-1" cx="36.38" cy="36.37" r="36.37"/><path class="cls-2" d="M212.24,301.56,231,339.46a36.3,36.3,0,0,0,42.63-32L266,292.05l-12.47,12.79-4.77-9.65Z" transform="translate(-201.06 -267.28)"/><path class="cls-3" d="M231.34,318.29s-7.35-.38-8.33-2.47c-.53-1.13-1.42-2.68-2.23-4.07a12.24,12.24,0,0,0,2.29,1,16.72,16.72,0,0,0,3.92.65Z" transform="translate(-201.06 -267.28)"/><path class="cls-3" d="M249.1,295.24l-4.74,1.9c-4.12-4.26-9.05-8.47-13.47-9.83a15.7,15.7,0,0,0-7.11-.37c1.32-1,4-2.8,6.17-2.71C234.9,284.44,249.1,295.24,249.1,295.24Z" transform="translate(-201.06 -267.28)"/><path class="cls-4" d="M258.34,313a7.13,7.13,0,0,0-3.15-4.24,10.55,10.55,0,0,0-2.08-1.23c.15,0,1.67.07,2.44.06a7.05,7.05,0,0,0,5-1.73A11.89,11.89,0,0,0,264,301c.67-1.87,1-3.85,1.53-5.76.09-.29.93-3.52.63-3.47a22.45,22.45,0,0,0-5,2,32.81,32.81,0,0,0-4.5,2.47l-.26.17a15,15,0,0,0-5.39,6.35,4.48,4.48,0,0,0-.33,1.54c-1.6-2-3.78-4.57-6.25-7.14-4.12-4.26-9.05-8.47-13.47-9.83a15.7,15.7,0,0,0-7.11-.37h0c-6.11,1-11.7,4.7-13.22,6.46a2.37,2.37,0,0,0-.57,1.75c.28,3,3.92,12.84,10.8,16.59a12.24,12.24,0,0,0,2.29,1,16.72,16.72,0,0,0,3.92.65c7,.43,16.41-2.16,21.88-3.93a4.16,4.16,0,0,0-.21.71,15,15,0,0,0,.89,8.29l.12.29a33.8,33.8,0,0,0,2.32,4.57,22.41,22.41,0,0,0,3.07,4.45c.22.22,1.34-2.93,1.42-3.22.63-1.88,1.48-3.7,2-5.62A11.9,11.9,0,0,0,258.34,313Z" transform="translate(-201.06 -267.28)"/><path class="cls-5" d="M258.34,313a7.13,7.13,0,0,0-3.15-4.24,10.55,10.55,0,0,0-2.08-1.23c.15,0,1.67.07,2.44.06a7.05,7.05,0,0,0,5-1.73A11.89,11.89,0,0,0,264,301c.67-1.87,1-3.85,1.53-5.76.09-.29.93-3.52.63-3.47a22.45,22.45,0,0,0-5,2,32.81,32.81,0,0,0-4.5,2.47l-.26.17a15,15,0,0,0-5.39,6.35,4.48,4.48,0,0,0-.33,1.54c-1.6-2-3.78-4.57-6.25-7.14-4.12-4.26-9.05-8.47-13.47-9.83a15.7,15.7,0,0,0-7.11-.37h0c-6.11,1-11.7,4.7-13.22,6.46a2.37,2.37,0,0,0-.57,1.75c.28,3,3.92,12.84,10.8,16.59a12.24,12.24,0,0,0,2.29,1,16.72,16.72,0,0,0,3.92.65c7,.43,16.41-2.16,21.88-3.93a4.16,4.16,0,0,0-.21.71,15,15,0,0,0,.89,8.29l.12.29a33.8,33.8,0,0,0,2.32,4.57,22.41,22.41,0,0,0,3.07,4.45c.22.22,1.34-2.93,1.42-3.22.63-1.88,1.48-3.7,2-5.62A11.9,11.9,0,0,0,258.34,313Z" transform="translate(-201.06 -267.28)"/><path d="M265.47,295.5a8,8,0,0,0-3.58.68,18.05,18.05,0,0,0-3.27,1.82,22.4,22.4,0,0,0-5.39,5.25,22.42,22.42,0,0,1,5.24-5.45,17.17,17.17,0,0,1,3.27-2,8.39,8.39,0,0,1,3.77-.84Z" transform="translate(-201.06 -267.28)"/><path d="M263.88,301.24a4.37,4.37,0,0,0-3.41.25,10.44,10.44,0,0,0-2.91,2.17,10.66,10.66,0,0,1,2.79-2.39,4.75,4.75,0,0,1,3.69-.5Z" transform="translate(-201.06 -267.28)"/><path d="M256.29,324.7a25.87,25.87,0,0,1-3.54-6.13,23.83,23.83,0,0,1-1.77-6.82,23.57,23.57,0,0,0,2,6.72,25.31,25.31,0,0,0,3.7,5.91Z" transform="translate(-201.06 -267.28)"/><path d="M258.41,319.16A5.63,5.63,0,0,1,255,317a7,7,0,0,1-1.22-3.87,6.8,6.8,0,0,0,1.42,3.71,5.23,5.23,0,0,0,3.34,1.88Z" transform="translate(-201.06 -267.28)"/><ellipse class="cls-6" cx="229.11" cy="289.1" rx="1.54" ry="3.36" transform="translate(-321.04 140.99) rotate(-70.45)"/><ellipse class="cls-7" cx="228.08" cy="292.01" rx="1.54" ry="3.36" transform="translate(-324.47 141.96) rotate(-70.45)"/><ellipse class="cls-8" cx="229.11" cy="295.47" rx="1.54" ry="3.36" transform="translate(-327.04 145.23) rotate(-70.45)"/><ellipse class="cls-9" cx="231.7" cy="298.98" rx="1.54" ry="3.36" transform="translate(-328.63 150) rotate(-70.45)"/><ellipse class="cls-10" cx="232.32" cy="290.17" rx="1.54" ry="3.36" transform="translate(-319.92 144.73) rotate(-70.45)"/><ellipse class="cls-11" cx="232.95" cy="293.74" rx="1.54" ry="3.36" transform="translate(-322.86 147.7) rotate(-70.45)"/><ellipse class="cls-12" cx="233.23" cy="296.7" rx="1.54" ry="3.36" transform="translate(-325.46 149.93) rotate(-70.45)"/><ellipse class="cls-13" cx="235.98" cy="292.83" rx="1.54" ry="3.36" transform="translate(-319.98 149.94) rotate(-70.45)"/><ellipse class="cls-14" cx="236.89" cy="299.74" rx="1.54" ry="3.36" transform="translate(-325.89 155.4) rotate(-70.45)"/><ellipse class="cls-15" cx="240.88" cy="299.42" rx="1.54" ry="3.36" transform="translate(-322.93 158.95) rotate(-70.45)"/><ellipse class="cls-16" cx="238.8" cy="295.3" rx="1.54" ry="3.36" transform="translate(-320.44 154.25) rotate(-70.45)"/><ellipse class="cls-17" cx="237.43" cy="297.31" rx="1.54" ry="3.36" transform="translate(-323.24 154.29) rotate(-70.45)"/><ellipse class="cls-18" cx="241.29" cy="297.58" rx="1.54" ry="3.36" transform="translate(-320.93 158.11) rotate(-70.45)"/></svg>