<svg id="Lamb" xmlns="http://www.w3.org/2000/svg" viewBox="0 0 72.75 72.75"><defs><style>.cls-1{fill:#c1d566;}.cls-2{fill:#616b33;}.cls-3{fill:#b3b3b3;}.cls-4{fill:#fff;}.cls-5{stroke:#000;stroke-miterlimit:10;stroke-width:2px;}.cls-6{fill:#333;}</style></defs><title>lamb</title><path class="cls-1" d="M44.47,179.84A36.38,36.38,0,1,1,8.09,216.22a36.38,36.38,0,0,1,36.38-36.38" transform="translate(-8.09 -179.84)"/><path class="cls-2" d="M11.41,224.11l10,20.24C40.63,260.27,74,252.9,80.32,222.4l-2-4-.62-.7-8.9-18-2.41-.83L64,194.05l-7.72,6.62-4.61-9Z" transform="translate(-8.09 -179.84)"/><path class="cls-3" d="M69.23,224.1c5.56.53,9.11-3.14,9.41-4.95s-5.26-4.36-19.11-13.74C54.86,202.25,48.13,222.11,69.23,224.1Z" transform="translate(-8.09 -179.84)"/><path class="cls-3" d="M21,225.13c-5.06,2.19-9.22.08-9.93-1.4s3.9-5.45,14.61-17.93C29.34,201.58,40.24,216.84,21,225.13Z" transform="translate(-8.09 -179.84)"/><path class="cls-4" d="M58,233c-4.92,12.29-21.06,15.32-27.64-1-5-12.53-10.19-34.64,13.9-34.64C68.84,197.36,63.05,220.48,58,233Z" transform="translate(-8.09 -179.84)"/><ellipse class="cls-5" cx="28.47" cy="40.47" rx="2.98" ry="2.77"/><path class="cls-6" d="M34.08,210.41c-2.71,1.38-5.8,2.8-8.75,2a9,9,0,0,1-4.25-3,8.31,8.31,0,0,1-1.93-3.44,4,4,0,0,1,.9-3.68c.72-.74,1.83-1.2,2.22-2.14a5.46,5.46,0,0,0,.24-1.35,5,5,0,0,1,5.71-3.81,2.09,2.09,0,0,0,1.05,0,1.56,1.56,0,0,0,.71-.61,13.61,13.61,0,0,1,2.92-2.95,5.48,5.48,0,0,1,4.07-1,8,8,0,0,1,3.16,1.73,1.27,1.27,0,0,0,.58.29,1.3,1.3,0,0,0,.79-.27,16.07,16.07,0,0,1,6.33-2.06,4.9,4.9,0,0,1,2.82.34c1.41.75,1.78,2.47,1.88,4,.5-.45.42-1.2.65-1.81.54-1.47,2.62-1.77,4.28-1.65a10.16,10.16,0,0,1,5.59,1.77c1.52,1.2,2.33,3.35,1.41,5a6.74,6.74,0,0,1,4.74,1.86,3.37,3.37,0,0,1,.22,4.51c-.23.25-.53.49-.54.82s.26.59.49.84c1.92,2.09,1.22,5.62-1.13,7.28a7.88,7.88,0,0,1-8.31,0,10,10,0,0,1-4.44-6.85c-.46,1.87-1.66,3.91-3.71,4.12s-3.59-1.4-4.91-2.79a1,1,0,0,0-.5-.32.88.88,0,0,0-.69.33c-1.71,1.54-3.52,3.14-5.8,3.75A7.87,7.87,0,0,1,33.25,210" transform="translate(-8.09 -179.84)"/><ellipse cx="34.13" cy="58.75" rx="1.59" ry="2.72"/><ellipse cx="38.57" cy="58.75" rx="1.59" ry="2.72"/><ellipse class="cls-5" cx="43.61" cy="40.47" rx="2.98" ry="2.77"/></svg>