<svg id="Mushrooms" xmlns="http://www.w3.org/2000/svg" xmlns:xlink="http://www.w3.org/1999/xlink" viewBox="0 0 72.75 72.77"><defs><style>.cls-1{fill:#a3ab66;}.cls-2{fill:#4c5600;}.cls-3{fill:#f6eddc;}.cls-4{fill:#a67c52;}.cls-5{fill:url(#Unbenannter_Verlauf_1060);}.cls-6{fill:url(#Unbenannter_Verlauf_1060-2);}</style><linearGradient id="Unbenannter_Verlauf_1060" x1="17.6" y1="450.73" x2="48.95" y2="467.89" gradientUnits="userSpaceOnUse"><stop offset="0.08" stop-color="#a67c52"/><stop offset="0.22" stop-color="#8c6239"/><stop offset="1" stop-color="#42210b"/></linearGradient><linearGradient id="Unbenannter_Verlauf_1060-2" x1="40.68" y1="474.68" x2="55.82" y2="482.96" xlink:href="#Unbenannter_Verlauf_1060"/></defs><title>mushrooms</title><path class="cls-1" d="M41.24,436.73A36.38,36.38,0,1,1,4.87,473.1a36.37,36.37,0,0,1,36.37-36.37" transform="translate(-4.87 -436.73)"/><path class="cls-2" d="M20.43,465.38l9,18.26.13,5.35,10.1,20.45c14,.75,27.27-7.25,33.7-19.31L59.52,462.06Z" transform="translate(-4.87 -436.73)"/><path class="cls-3" d="M32.79,470.6a3.08,3.08,0,0,0-.21,1,33.3,33.3,0,0,1-.83,3.27c-.54,1.73-1.21,3.41-1.79,5.13-.78,2.32-1.57,4.78-1.05,7.17a7.76,7.76,0,0,0,3.84,5c3.42,1.9,7.78,1.18,11.37.16,2.11-.6,4.23-1.68,5.19-3.77a8.25,8.25,0,0,0,.42-5c-.76-4-3-7.4-3.55-11.44-.17-1.33-.25-1.91-1.73-1.93s-3,.26-4.49.27a21.77,21.77,0,0,1-4.47-.55A5,5,0,0,0,32.79,470.6Z" transform="translate(-4.87 -436.73)"/><path class="cls-4" d="M59.49,464c-1.73,3.62-4.5,3.41-7.17,4.29-1.94.64-3.49,1.64-7.3,2.32-1.41.26-10.44.07-11.85,0-9.3-.43-12.17-3.68-12.17-4.95,0-1.46,8.05-.4,18.92-.4S60.12,462.64,59.49,464Z" transform="translate(-4.87 -436.73)"/><path class="cls-5" d="M29.54,455.8a27.82,27.82,0,0,1,8.08-2.37c5.89-.78,12.85.25,17.84,3.65,2.08,1.41,5,4.34,4.18,7-1.2,4.14-7.23.46-10,.69-7,.58-15.06,9.49-26.71,3.34a14.87,14.87,0,0,1-2.59-2.42c-1.52-2.85,4-7,5.89-8.14A27.28,27.28,0,0,1,29.54,455.8Z" transform="translate(-4.87 -436.73)"/><path class="cls-3" d="M47.18,482.83c-2.37.53-3.19,7.13-2.38,8,2.69,2.93,8.57,2.58,12.08.86,2.37-1.15.69-6.36-.6-8.51C55.94,482.63,47.26,482.81,47.18,482.83Z" transform="translate(-4.87 -436.73)"/><path class="cls-6" d="M50.3,475c5-.83,9.16,1.95,10.07,6.49,1.05,5.27-19.55,4.53-18.39-.12S48.94,475.18,50.3,475Z" transform="translate(-4.87 -436.73)"/></svg>