<svg id="Nuts" xmlns="http://www.w3.org/2000/svg" xmlns:xlink="http://www.w3.org/1999/xlink" viewBox="0 0 72.75 72.75"><defs><style>.cls-1{fill:#ffc399;}.cls-2{fill:#7f684c;}.cls-3{fill:#a67c52;}.cls-3,.cls-5,.cls-6,.cls-7{stroke:#000;stroke-miterlimit:10;stroke-width:0.03px;}.cls-4{fill:none;}.cls-5{fill:url(#Unbenannter_Verlauf_11);}.cls-6{fill:url(#Unbenannter_Verlauf_11-2);}.cls-7{fill:url(#Unbenannter_Verlauf_11-3);}</style><radialGradient id="Unbenannter_Verlauf_11" cx="231.53" cy="364.93" r="16.23" gradientUnits="userSpaceOnUse"><stop offset="0" stop-color="#fff"/><stop offset="0.01" stop-color="#fdfcfb"/><stop offset="0.2" stop-color="#e3d5c8"/><stop offset="0.38" stop-color="#cdb59d"/><stop offset="0.55" stop-color="#bc9c7d"/><stop offset="0.71" stop-color="#b08a65"/><stop offset="0.87" stop-color="#a98057"/><stop offset="1" stop-color="#a67c52"/></radialGradient><radialGradient id="Unbenannter_Verlauf_11-2" cx="251.21" cy="369.71" r="16.29" xlink:href="#Unbenannter_Verlauf_11"/><radialGradient id="Unbenannter_Verlauf_11-3" cx="236.71" cy="385.2" r="16.23" xlink:href="#Unbenannter_Verlauf_11"/></defs><title>nuts</title><circle class="cls-1" cx="36.38" cy="36.38" r="36.38"/><path class="cls-2" d="M223.59,409.1l8,16.19c20,2.1,34.82-12.53,38.38-26.34l-8.76-17.71-13.36,10.92-29.23-2.82,4,7.9,8.51,7.06Z" transform="translate(-198.56 -352.79)"/><path class="cls-3" d="M240.82,383.37c-2.93,6.59-13.15,12.14-18.62,9.71S214,379.35,217,372.75s9.62-7.52,16.18-4.52C240.51,371.6,243.75,376.78,240.82,383.37Z" transform="translate(-198.56 -352.79)"/><path class="cls-4" d="M222.65,366.81c1.76,7.75,10.16,11.93,19.1,10.43" transform="translate(-198.56 -352.79)"/><path class="cls-5" d="M241.44,376.48a17,17,0,0,1-12.22-2.25,12.42,12.42,0,0,1-5.58-7.08s3.7-1.63,10.45,1.55C240.46,371.7,241.44,376.48,241.44,376.48Z" transform="translate(-198.56 -352.79)"/><path class="cls-3" d="M260.7,388.32c-2.93,6.59-13.15,12.14-18.62,9.71s-8.18-13.73-5.25-20.32,9.62-7.53,16.18-4.53C260.39,376.56,263.63,381.73,260.7,388.32Z" transform="translate(-198.56 -352.79)"/><path class="cls-4" d="M242.53,371.77c1.76,7.75,10.16,11.92,19.1,10.42" transform="translate(-198.56 -352.79)"/><path class="cls-6" d="M261.22,381.24A17.36,17.36,0,0,1,248.81,379a12.42,12.42,0,0,1-5.58-7.08s3.7-1.63,10.46,1.55C260.05,376.48,261.22,381.24,261.22,381.24Z" transform="translate(-198.56 -352.79)"/><path class="cls-3" d="M246.09,404.27c-2.93,6.59-13.14,12.14-18.61,9.71s-8.19-13.74-5.26-20.33,9.63-7.52,16.19-4.52C245.79,392.5,249,397.68,246.09,404.27Z" transform="translate(-198.56 -352.79)"/><path class="cls-4" d="M227.93,387.71c1.76,7.75,10.15,11.92,19.1,10.42" transform="translate(-198.56 -352.79)"/><path class="cls-7" d="M246.62,396.76a17,17,0,0,1-12.22-2.26,12.38,12.38,0,0,1-5.58-7.07s3.7-1.63,10.45,1.55C245.64,392,246.62,396.76,246.62,396.76Z" transform="translate(-198.56 -352.79)"/></svg>