<svg id="Seafood" xmlns="http://www.w3.org/2000/svg" xmlns:xlink="http://www.w3.org/1999/xlink" viewBox="0 0 72.75 72.75"><defs><style>.cls-1{fill:#5f9b90;}.cls-2{fill:#304e48;}.cls-3{fill:url(#Unbenannter_Verlauf_77);}.cls-10,.cls-11,.cls-12,.cls-14,.cls-15,.cls-16,.cls-17,.cls-18,.cls-19,.cls-20,.cls-21,.cls-22,.cls-24,.cls-25,.cls-26,.cls-27,.cls-28,.cls-29,.cls-30,.cls-31,.cls-32,.cls-4,.cls-5,.cls-6,.cls-7,.cls-8,.cls-9{stroke:#42210b;stroke-width:0.25px;opacity:0.53;}.cls-10,.cls-11,.cls-12,.cls-14,.cls-15,.cls-16,.cls-17,.cls-18,.cls-19,.cls-20,.cls-21,.cls-22,.cls-24,.cls-25,.cls-26,.cls-27,.cls-28,.cls-29,.cls-30,.cls-31,.cls-32,.cls-34,.cls-35,.cls-36,.cls-37,.cls-39,.cls-4,.cls-5,.cls-6,.cls-7,.cls-8,.cls-9{stroke-miterlimit:10;}.cls-4{fill:url(#Unbenannter_Verlauf_77-2);}.cls-5{fill:url(#Unbenannter_Verlauf_77-3);}.cls-6{fill:url(#Unbenannter_Verlauf_77-5);}.cls-7{fill:url(#Unbenannter_Verlauf_77-7);}.cls-8{fill:url(#Unbenannter_Verlauf_77-9);}.cls-9{fill:url(#Unbenannter_Verlauf_77-11);}.cls-10{fill:url(#Unbenannter_Verlauf_77-13);}.cls-11{fill:url(#Unbenannter_Verlauf_77-15);}.cls-12{fill:url(#Unbenannter_Verlauf_77-17);}.cls-13{fill:url(#Unbenannter_Verlauf_77-18);}.cls-14{fill:url(#Unbenannter_Verlauf_77-19);}.cls-15{fill:url(#Unbenannter_Verlauf_77-20);}.cls-16{fill:url(#Unbenannter_Verlauf_77-22);}.cls-17{fill:url(#Unbenannter_Verlauf_77-24);}.cls-18{fill:url(#Unbenannter_Verlauf_77-26);}.cls-19{fill:url(#Unbenannter_Verlauf_77-28);}.cls-20{fill:url(#Unbenannter_Verlauf_77-30);}.cls-21{fill:url(#Unbenannter_Verlauf_77-32);}.cls-22{fill:url(#Unbenannter_Verlauf_77-34);}.cls-23{fill:url(#Unbenannter_Verlauf_77-35);}.cls-24{fill:url(#Unbenannter_Verlauf_77-36);}.cls-25{fill:url(#Unbenannter_Verlauf_77-37);}.cls-26{fill:url(#Unbenannter_Verlauf_77-39);}.cls-27{fill:url(#Unbenannter_Verlauf_77-41);}.cls-28{fill:url(#Unbenannter_Verlauf_77-43);}.cls-29{fill:url(#Unbenannter_Verlauf_77-45);}.cls-30{fill:url(#Unbenannter_Verlauf_77-47);}.cls-31{fill:url(#Unbenannter_Verlauf_77-49);}.cls-32{fill:url(#Unbenannter_Verlauf_77-51);}.cls-33{fill:url(#Unbenannter_Verlauf_725);}.cls-34,.cls-39{fill:none;}.cls-34{stroke:#c14e67;}.cls-34,.cls-36{stroke-width:0.5px;}.cls-35{fill:#ff9f7f;}.cls-35,.cls-36,.cls-37,.cls-39{stroke:#000;}.cls-36{fill:#42210b;}.cls-37{fill:#f7be29;}.cls-37,.cls-39{stroke-width:0.05px;}.cls-38{fill:url(#Unbenannter_Verlauf_9);}.cls-40{fill:url(#Unbenannter_Verlauf_731);}.cls-41{fill:url(#Unbenannter_Verlauf_731-2);}.cls-42{fill:url(#Unbenannter_Verlauf_731-3);}.cls-43{fill:url(#Unbenannter_Verlauf_731-4);}.cls-44{fill:url(#Unbenannter_Verlauf_731-5);}.cls-45{fill:url(#Unbenannter_Verlauf_731-6);}.cls-46{fill:url(#Unbenannter_Verlauf_731-7);}.cls-47{fill:url(#Unbenannter_Verlauf_731-8);}.cls-48{fill:url(#Unbenannter_Verlauf_731-9);}.cls-49{fill:url(#Unbenannter_Verlauf_731-10);}.cls-50{fill:url(#Unbenannter_Verlauf_731-11);}.cls-51{fill:url(#Unbenannter_Verlauf_731-12);}.cls-52{fill:url(#Unbenannter_Verlauf_731-13);}</style><linearGradient id="Unbenannter_Verlauf_77" x1="58.79" y1="137.92" x2="58.88" y2="145.18" gradientTransform="translate(88.52 -6.91) rotate(34.69)" gradientUnits="userSpaceOnUse"><stop offset="0" stop-color="#fff"/><stop offset="0.5" stop-color="#fbb03b"/><stop offset="1" stop-color="#ff8f7b"/></linearGradient><linearGradient id="Unbenannter_Verlauf_77-2" x1="59.13" y1="146.83" x2="59.13" y2="146.83" xlink:href="#Unbenannter_Verlauf_77"/><linearGradient id="Unbenannter_Verlauf_77-3" x1="55.28" y1="139.06" x2="55.28" y2="139.06" xlink:href="#Unbenannter_Verlauf_77"/><linearGradient id="Unbenannter_Verlauf_77-5" x1="57.61" y1="138.3" x2="57.61" y2="138.3" xlink:href="#Unbenannter_Verlauf_77"/><linearGradient id="Unbenannter_Verlauf_77-7" x1="60.32" y1="138.24" x2="60.32" y2="138.24" xlink:href="#Unbenannter_Verlauf_77"/><linearGradient id="Unbenannter_Verlauf_77-9" x1="62.71" y1="138.96" x2="62.71" y2="138.96" xlink:href="#Unbenannter_Verlauf_77"/><linearGradient id="Unbenannter_Verlauf_77-11" x1="64.18" y1="141.55" x2="64.18" y2="141.55" xlink:href="#Unbenannter_Verlauf_77"/><linearGradient id="Unbenannter_Verlauf_77-13" x1="53.93" y1="141.43" x2="53.93" y2="141.43" xlink:href="#Unbenannter_Verlauf_77"/><linearGradient id="Unbenannter_Verlauf_77-15" x1="61.38" y1="145.35" x2="61.38" y2="145.35" xlink:href="#Unbenannter_Verlauf_77"/><linearGradient id="Unbenannter_Verlauf_77-17" x1="56.31" y1="145.33" x2="56.31" y2="145.33" xlink:href="#Unbenannter_Verlauf_77"/><linearGradient id="Unbenannter_Verlauf_77-18" x1="47.96" y1="130.59" x2="48.04" y2="137.86" gradientTransform="translate(-34.32 17.66) rotate(-15.68)" xlink:href="#Unbenannter_Verlauf_77"/><linearGradient id="Unbenannter_Verlauf_77-19" x1="48.29" y1="139.5" x2="48.29" y2="139.5" gradientTransform="translate(-34.32 17.66) rotate(-15.68)" xlink:href="#Unbenannter_Verlauf_77"/><linearGradient id="Unbenannter_Verlauf_77-20" x1="44.45" y1="131.73" x2="44.45" y2="131.73" gradientTransform="translate(-34.32 17.66) rotate(-15.68)" xlink:href="#Unbenannter_Verlauf_77"/><linearGradient id="Unbenannter_Verlauf_77-22" x1="46.78" y1="130.98" x2="46.78" y2="130.98" gradientTransform="translate(-34.32 17.66) rotate(-15.68)" xlink:href="#Unbenannter_Verlauf_77"/><linearGradient id="Unbenannter_Verlauf_77-24" x1="49.49" y1="130.92" x2="49.49" y2="130.92" gradientTransform="translate(-34.32 17.66) rotate(-15.68)" xlink:href="#Unbenannter_Verlauf_77"/><linearGradient id="Unbenannter_Verlauf_77-26" x1="51.88" y1="131.63" x2="51.88" y2="131.63" gradientTransform="translate(-34.32 17.66) rotate(-15.68)" xlink:href="#Unbenannter_Verlauf_77"/><linearGradient id="Unbenannter_Verlauf_77-28" x1="53.35" y1="134.23" x2="53.35" y2="134.23" gradientTransform="translate(-34.32 17.66) rotate(-15.68)" xlink:href="#Unbenannter_Verlauf_77"/><linearGradient id="Unbenannter_Verlauf_77-30" x1="43.1" y1="134.11" x2="43.1" y2="134.11" gradientTransform="translate(-34.32 17.66) rotate(-15.68)" xlink:href="#Unbenannter_Verlauf_77"/><linearGradient id="Unbenannter_Verlauf_77-32" x1="50.55" y1="138.02" x2="50.55" y2="138.02" gradientTransform="translate(-34.32 17.66) rotate(-15.68)" xlink:href="#Unbenannter_Verlauf_77"/><linearGradient id="Unbenannter_Verlauf_77-34" x1="45.47" y1="138.01" x2="45.47" y2="138.01" gradientTransform="translate(-34.32 17.66) rotate(-15.68)" xlink:href="#Unbenannter_Verlauf_77"/><linearGradient id="Unbenannter_Verlauf_77-35" x1="39.96" y1="139.31" x2="40.05" y2="146.58" gradientTransform="translate(-13.33 7.19) rotate(-6.41)" xlink:href="#Unbenannter_Verlauf_77"/><linearGradient id="Unbenannter_Verlauf_77-36" x1="40.3" y1="148.22" x2="40.3" y2="148.22" gradientTransform="translate(-13.33 7.19) rotate(-6.41)" xlink:href="#Unbenannter_Verlauf_77"/><linearGradient id="Unbenannter_Verlauf_77-37" x1="36.45" y1="140.45" x2="36.45" y2="140.45" gradientTransform="translate(-13.33 7.19) rotate(-6.41)" xlink:href="#Unbenannter_Verlauf_77"/><linearGradient id="Unbenannter_Verlauf_77-39" x1="38.79" y1="139.69" x2="38.79" y2="139.69" gradientTransform="translate(-13.33 7.19) rotate(-6.41)" xlink:href="#Unbenannter_Verlauf_77"/><linearGradient id="Unbenannter_Verlauf_77-41" x1="41.5" y1="139.63" x2="41.5" y2="139.63" gradientTransform="translate(-13.33 7.19) rotate(-6.41)" xlink:href="#Unbenannter_Verlauf_77"/><linearGradient id="Unbenannter_Verlauf_77-43" x1="43.89" y1="140.35" x2="43.89" y2="140.35" gradientTransform="translate(-13.33 7.19) rotate(-6.41)" xlink:href="#Unbenannter_Verlauf_77"/><linearGradient id="Unbenannter_Verlauf_77-45" x1="45.36" y1="142.95" x2="45.36" y2="142.95" gradientTransform="translate(-13.33 7.19) rotate(-6.41)" xlink:href="#Unbenannter_Verlauf_77"/><linearGradient id="Unbenannter_Verlauf_77-47" x1="35.1" y1="142.83" x2="35.1" y2="142.83" gradientTransform="translate(-13.33 7.19) rotate(-6.41)" xlink:href="#Unbenannter_Verlauf_77"/><linearGradient id="Unbenannter_Verlauf_77-49" x1="42.55" y1="146.74" x2="42.55" y2="146.74" gradientTransform="translate(-13.33 7.19) rotate(-6.41)" xlink:href="#Unbenannter_Verlauf_77"/><linearGradient id="Unbenannter_Verlauf_77-51" x1="37.48" y1="146.72" x2="37.48" y2="146.72" gradientTransform="translate(-13.33 7.19) rotate(-6.41)" xlink:href="#Unbenannter_Verlauf_77"/><linearGradient id="Unbenannter_Verlauf_725" x1="10.76" y1="121.24" x2="25.4" y2="146.44" gradientTransform="translate(-26.79 -1.16) rotate(-12.89)" gradientUnits="userSpaceOnUse"><stop offset="0" stop-color="#a5a394"/><stop offset="1" stop-color="#ff8f7b"/></linearGradient><linearGradient id="Unbenannter_Verlauf_9" x1="-24.78" y1="96.69" x2="-2" y2="127.99" gradientTransform="translate(90.52 1.71) rotate(13.2)" gradientUnits="userSpaceOnUse"><stop offset="0" stop-color="#f7be29"/><stop offset="0" stop-color="#fff"/><stop offset="1" stop-color="#f7be29"/></linearGradient><linearGradient id="Unbenannter_Verlauf_731" x1="670.12" y1="-61.48" x2="675.1" y2="-61.48" gradientTransform="translate(121.85 778.8) rotate(-90.97)" gradientUnits="userSpaceOnUse"><stop offset="0" stop-color="#f7be29"/><stop offset="0" stop-color="#fff"/><stop offset="0.08" stop-color="#fef4da"/><stop offset="0.2" stop-color="#fce6ab"/><stop offset="0.32" stop-color="#fad983"/><stop offset="0.44" stop-color="#f9cf62"/><stop offset="0.57" stop-color="#f8c849"/><stop offset="0.7" stop-color="#f8c237"/><stop offset="0.84" stop-color="#f7bf2c"/><stop offset="1" stop-color="#f7be29"/></linearGradient><linearGradient id="Unbenannter_Verlauf_731-2" x1="670.09" y1="-63.8" x2="675.08" y2="-63.8" gradientTransform="translate(122.93 780.7) rotate(-90.97)" xlink:href="#Unbenannter_Verlauf_731"/><linearGradient id="Unbenannter_Verlauf_731-3" x1="668.48" y1="-66" x2="673.47" y2="-66" gradientTransform="translate(125.27 781.78) rotate(-90.97)" xlink:href="#Unbenannter_Verlauf_731"/><linearGradient id="Unbenannter_Verlauf_731-4" x1="665.78" y1="-67.86" x2="670.77" y2="-67.86" gradientTransform="translate(128.35 782.07) rotate(-90.97)" xlink:href="#Unbenannter_Verlauf_731"/><linearGradient id="Unbenannter_Verlauf_731-5" x1="667.61" y1="-61.46" x2="672.59" y2="-61.46" gradientTransform="matrix(-0.02, -1, 1, -0.02, 123.91, 777.63)" xlink:href="#Unbenannter_Verlauf_731"/><linearGradient id="Unbenannter_Verlauf_731-6" x1="666.25" y1="-63.84" x2="671.24" y2="-63.84" gradientTransform="translate(126.12 778.97) rotate(-90.97)" xlink:href="#Unbenannter_Verlauf_731"/><linearGradient id="Unbenannter_Verlauf_731-7" x1="665.3" y1="-65.87" x2="670.29" y2="-65.87" gradientTransform="matrix(-0.02, -1, 1, -0.02, 127.83, 780.21)" xlink:href="#Unbenannter_Verlauf_731"/><linearGradient id="Unbenannter_Verlauf_731-8" x1="664.37" y1="-62.45" x2="669.36" y2="-62.45" gradientTransform="translate(127.02 776.97) rotate(-90.97)" xlink:href="#Unbenannter_Verlauf_731"/><linearGradient id="Unbenannter_Verlauf_731-9" x1="661.97" y1="-67.14" x2="666.96" y2="-67.14" gradientTransform="matrix(-0.02, -1, 1, -0.02, 131.16, 779.73)" xlink:href="#Unbenannter_Verlauf_731"/><linearGradient id="Unbenannter_Verlauf_731-10" x1="659.27" y1="-65.94" x2="664.26" y2="-65.94" gradientTransform="matrix(-0.02, -1, 1, -0.02, 132.83, 777.5)" xlink:href="#Unbenannter_Verlauf_731"/><linearGradient id="Unbenannter_Verlauf_731-11" x1="661.77" y1="-63.53" x2="666.76" y2="-63.53" gradientTransform="translate(129.66 776.66) rotate(-90.97)" xlink:href="#Unbenannter_Verlauf_731"/><linearGradient id="Unbenannter_Verlauf_731-12" x1="662.21" y1="-65.28" x2="667.2" y2="-65.28" gradientTransform="translate(130.1 778.31) rotate(-90.97)" xlink:href="#Unbenannter_Verlauf_731"/><linearGradient id="Unbenannter_Verlauf_731-13" x1="659.46" y1="-64.53" x2="664.45" y2="-64.53" gradientTransform="matrix(-0.02, -1, 1, -0.02, 132.03, 776.43)" xlink:href="#Unbenannter_Verlauf_731"/></defs><title>seafood</title><path class="cls-1" d="M45.52,90.66A36.38,36.38,0,1,1,9.14,127,36.37,36.37,0,0,1,45.52,90.66" transform="translate(-9.14 -90.66)"/><path class="cls-2" d="M19.52,142.66l7.86,15.91c22.49,12.46,51.71-.44,54.42-28.93L75,115.84l-8.45,4.33-1.91.3L62,115.19l-25.63,3.13,7.35,14.86-1.16.27-3.87-7.83L16,131.57l5.1,10.32Z" transform="translate(-9.14 -90.66)"/><path class="cls-3" d="M51.84,144.44c-1.28.29.11,1.33.28,1.44.84.53,2.84,2,3.22,2.15,1.21.4.68-.78,1-1.08.57-.57,4.1-.21,4.36-1.3.13-.53.91-.65,1-.91.76-1.7-.77-1.83-.64-2.31.31-1.13-1.28-1.71-1.55-2s-.62-1.72-2-1.41c-.49.1-1.3-1.45-2.59-.79-.25.13-2.1-.82-2.27.83-.07.64-1.69.84-.5,4.41a1,1,0,0,1-.08.84.44.44,0,0,1-.2.08" transform="translate(-9.14 -90.66)"/><path class="cls-4" d="M53.59,147.48" transform="translate(-9.14 -90.66)"/><path class="cls-5" d="M54.85,138.9" transform="translate(-9.14 -90.66)"/><path class="cls-4" d="M53.59,147.48" transform="translate(-9.14 -90.66)"/><path class="cls-6" d="M57.2,139.6" transform="translate(-9.14 -90.66)"/><path class="cls-4" d="M53.59,147.48" transform="translate(-9.14 -90.66)"/><path class="cls-7" d="M59.46,141.1" transform="translate(-9.14 -90.66)"/><path class="cls-4" d="M53.59,147.48" transform="translate(-9.14 -90.66)"/><path class="cls-8" d="M61,143.05" transform="translate(-9.14 -90.66)"/><path class="cls-4" d="M53.59,147.48" transform="translate(-9.14 -90.66)"/><path class="cls-9" d="M60.74,146" transform="translate(-9.14 -90.66)"/><path class="cls-4" d="M53.59,147.48" transform="translate(-9.14 -90.66)"/><path class="cls-10" d="M52.38,140.08" transform="translate(-9.14 -90.66)"/><path class="cls-4" d="M53.59,147.48" transform="translate(-9.14 -90.66)"/><path class="cls-11" d="M56.29,147.54" transform="translate(-9.14 -90.66)"/><path class="cls-4" d="M53.59,147.48" transform="translate(-9.14 -90.66)"/><path class="cls-12" d="M52.12,144.64" transform="translate(-9.14 -90.66)"/><path class="cls-13" d="M46.42,138.33c-.6,1.17,1.09.77,1.28.7.95-.3,3.37-.89,3.71-1.11,1.09-.67-.16-1-.2-1.43-.09-.8,2.44-3.3,1.77-4.19-.33-.43.08-1.11,0-1.37-.83-1.67-1.9-.57-2.19-1-.67-1-2.13-.11-2.49,0s-1.72-.62-2.38.66c-.23.45-1.94.08-2.26,1.49-.06.28-2,1.1-.81,2.28.45.46-.43,1.84,3.08,3.2.22.09.57.35.59.59,0,.07,0,.14-.06.21" transform="translate(-9.14 -90.66)"/><path class="cls-14" d="M49.87,138.92" transform="translate(-9.14 -90.66)"/><path class="cls-15" d="M44.07,132.48" transform="translate(-9.14 -90.66)"/><path class="cls-14" d="M49.87,138.92" transform="translate(-9.14 -90.66)"/><path class="cls-16" d="M46.11,131.12" transform="translate(-9.14 -90.66)"/><path class="cls-14" d="M49.87,138.92" transform="translate(-9.14 -90.66)"/><path class="cls-17" d="M48.7,130.33" transform="translate(-9.14 -90.66)"/><path class="cls-14" d="M49.87,138.92" transform="translate(-9.14 -90.66)"/><path class="cls-18" d="M51.2,130.38" transform="translate(-9.14 -90.66)"/><path class="cls-14" d="M49.87,138.92" transform="translate(-9.14 -90.66)"/><path class="cls-19" d="M53.31,132.48" transform="translate(-9.14 -90.66)"/><path class="cls-14" d="M49.87,138.92" transform="translate(-9.14 -90.66)"/><path class="cls-20" d="M43.41,135.13" transform="translate(-9.14 -90.66)"/><path class="cls-14" d="M49.87,138.92" transform="translate(-9.14 -90.66)"/><path class="cls-21" d="M51.64,136.89" transform="translate(-9.14 -90.66)"/><path class="cls-14" d="M49.87,138.92" transform="translate(-9.14 -90.66)"/><path class="cls-22" d="M46.75,138.24" transform="translate(-9.14 -90.66)"/><path class="cls-23" d="M40,148.85c-.78,1.05.95.93,1.15.9,1-.15,3.47-.35,3.84-.5,1.18-.49,0-1,0-1.45.05-.8,3-2.86,2.42-3.85-.25-.48.27-1.08.18-1.35-.54-1.79-1.78-.88-2-1.33-.51-1.06-2.1-.45-2.46-.45s-1.59-.89-2.45.27c-.3.4-1.93-.24-2.47,1.11-.11.27-2.12.76-1.17,2.12.37.53-.72,1.74,2.53,3.65.2.12.5.44.49.68,0,.07-.07.13-.1.2" transform="translate(-9.14 -90.66)"/><path class="cls-24" d="M43.26,150" transform="translate(-9.14 -90.66)"/><path class="cls-25" d="M38.57,142.69" transform="translate(-9.14 -90.66)"/><path class="cls-24" d="M43.26,150" transform="translate(-9.14 -90.66)"/><path class="cls-26" d="M40.8,141.68" transform="translate(-9.14 -90.66)"/><path class="cls-24" d="M43.26,150" transform="translate(-9.14 -90.66)"/><path class="cls-27" d="M43.49,141.32" transform="translate(-9.14 -90.66)"/><path class="cls-24" d="M43.26,150" transform="translate(-9.14 -90.66)"/><path class="cls-28" d="M45.94,141.77" transform="translate(-9.14 -90.66)"/><path class="cls-24" d="M43.26,150" transform="translate(-9.14 -90.66)"/><path class="cls-29" d="M47.69,144.18" transform="translate(-9.14 -90.66)"/><path class="cls-24" d="M43.26,150" transform="translate(-9.14 -90.66)"/><path class="cls-30" d="M37.49,145.21" transform="translate(-9.14 -90.66)"/><path class="cls-24" d="M43.26,150" transform="translate(-9.14 -90.66)"/><path class="cls-31" d="M45.33,148.26" transform="translate(-9.14 -90.66)"/><path class="cls-24" d="M43.26,150" transform="translate(-9.14 -90.66)"/><path class="cls-32" d="M40.29,148.81" transform="translate(-9.14 -90.66)"/><path class="cls-33" d="M15.84,131.3c3.84-4.46,6.31-8.68,10.54-7.49,0,0,2.6-2.63,6.82-.58,2,1,5.53-.6,6.33,5,1.69,2.93,2.32,4.93.89,7.26-.86,1.4-1.61,5.91-7,6.36-1.59.13-3.22,1.62-5.62.69-4.23-1.63-9,1-8.55.13.81-1.6,4.24-1.74,4.36-2.78.05-.45-1-2.51-.61-4.09.65-2.59,2.27,3.5,5.21,3.41,5.73-.18,7.66-3.06,6.73-4.17-.48-.56-2.54,0-2.73.24a4.44,4.44,0,0,1,2.77-.68c1.26-2.72-3-2.23-4-.68-.17-1.5,4-1,2.44-2.83-.79-.91-3,.67-3.86,1,.52-1,3.14-1.4,2.74-1.71-.64-1.34-4.68-.47-5.19.07C24.51,133.17,14.51,132.84,15.84,131.3Z" transform="translate(-9.14 -90.66)"/><path class="cls-34" d="M26.54,123.66c.75.88.36,4.1,1.16,6.51" transform="translate(-9.14 -90.66)"/><path class="cls-34" d="M34.47,123.61c0,.39.19,4.51-2.37,6.67" transform="translate(-9.14 -90.66)"/><path class="cls-34" d="M39.6,128.38c-.15.1-5.6,4.32-6.12,3.83" transform="translate(-9.14 -90.66)"/><path class="cls-34" d="M40.42,135.52c-.44-.26-5.41-.57-5.48-.89" transform="translate(-9.14 -90.66)"/><path class="cls-35" d="M24.69,141.57" transform="translate(-9.14 -90.66)"/><path class="cls-34" d="M32.42,142.13c-.25-.7-1-2.23-1.3-3.28" transform="translate(-9.14 -90.66)"/><ellipse class="cls-36" cx="20.62" cy="128.1" rx="0.96" ry="0.51" transform="matrix(0.86, -0.51, 0.51, 0.86, -72.03, -61.86)"/><path class="cls-34" d="M27,142.33c.23-.84-.21-2.35.16-3.29" transform="translate(-9.14 -90.66)"/><path class="cls-37" d="M45.63,129.19s-5.21-1.55-5.56-3.26c-.19-.92-.57-2.22-.92-3.38a8.59,8.59,0,0,0,1.48,1.12,12.06,12.06,0,0,0,2.7,1.15Z" transform="translate(-9.14 -90.66)"/><path class="cls-37" d="M62.26,115.3l-3.72.58c-2.24-3.85-5.07-7.8-8-9.56a11.25,11.25,0,0,0-5-1.49c1.12-.52,3.33-1.38,4.89-.93C53.89,104.9,62.26,115.3,62.26,115.3Z" transform="translate(-9.14 -90.66)"/><path class="cls-38" d="M65.91,129.94a5.47,5.47,0,0,0-1.55-3.66A8,8,0,0,0,63.08,125c.11,0,1.18.34,1.73.47l.63.12a4.9,4.9,0,0,0,3.25-.54,8.79,8.79,0,0,0,3.27-3c.8-1.26,1.36-2.66,2.07-4,.11-.2,1.26-2.43,1-2.44a16.75,16.75,0,0,0-3.95.57,24.74,24.74,0,0,0-3.64,1l-.22.08a11,11,0,0,0-4.94,3.74,3.33,3.33,0,0,0-.49,1.07c-.82-1.74-1.95-4-3.29-6.32-2.24-3.85-5.07-7.8-8-9.56a11.25,11.25,0,0,0-5-1.49h0a18.88,18.88,0,0,0-10.58,2.47,1.79,1.79,0,0,0-.7,1.19c-.31,2.27.65,10.12,5,14.06a8.59,8.59,0,0,0,1.48,1.12,12.06,12.06,0,0,0,2.7,1.15c5,1.53,12.15,1.25,16.38.89a3.77,3.77,0,0,0-.28.48,11.55,11.55,0,0,0-.75,6.25l0,.23a25.26,25.26,0,0,0,.91,3.77,17,17,0,0,0,1.44,3.8c.13.2,1.46-1.93,1.57-2.12.77-1.28,1.68-2.47,2.36-3.8A9.1,9.1,0,0,0,65.91,129.94Z" transform="translate(-9.14 -90.66)"/><path class="cls-39" d="M65.91,129.94a5.47,5.47,0,0,0-1.55-3.66A8,8,0,0,0,63.08,125c.11,0,1.18.34,1.73.47l.63.12a4.9,4.9,0,0,0,3.25-.54,8.79,8.79,0,0,0,3.27-3c.8-1.26,1.36-2.66,2.07-4,.11-.2,1.26-2.43,1-2.44a16.75,16.75,0,0,0-3.95.57,24.74,24.74,0,0,0-3.64,1l-.22.08a11,11,0,0,0-4.94,3.74,3.33,3.33,0,0,0-.49,1.07c-.82-1.74-1.95-4-3.29-6.32-2.24-3.85-5.07-7.8-8-9.56a11.25,11.25,0,0,0-5-1.49h0a18.88,18.88,0,0,0-10.58,2.47,1.79,1.79,0,0,0-.7,1.19c-.31,2.27.65,10.12,5,14.06a8.59,8.59,0,0,0,1.48,1.12,12.06,12.06,0,0,0,2.7,1.15c5,1.53,12.15,1.25,16.38.89a3.77,3.77,0,0,0-.28.48,11.55,11.55,0,0,0-.75,6.25l0,.23a25.26,25.26,0,0,0,.91,3.77,17,17,0,0,0,1.44,3.8c.13.2,1.46-1.93,1.57-2.12.77-1.28,1.68-2.47,2.36-3.8A9.1,9.1,0,0,0,65.91,129.94Z" transform="translate(-9.14 -90.66)"/><path d="M74,118.25a5.8,5.8,0,0,0-2.72-.1,12.53,12.53,0,0,0-2.66.8,16.27,16.27,0,0,0-4.73,3,16.42,16.42,0,0,1,4.68-3.07,12.51,12.51,0,0,1,2.68-.86,5.89,5.89,0,0,1,2.83,0Z" transform="translate(-9.14 -90.66)"/><path d="M71.9,122.21a3.22,3.22,0,0,0-2.54-.39A7.85,7.85,0,0,0,66.92,123a7.69,7.69,0,0,1,2.41-1.25A3.41,3.41,0,0,1,72,122Z" transform="translate(-9.14 -90.66)"/><path d="M62.52,138.17a19.88,19.88,0,0,1-1.54-5.1,18.9,18.9,0,0,1-.15-5.31,18.41,18.41,0,0,0,.28,5.29,19.86,19.86,0,0,0,1.63,5Z" transform="translate(-9.14 -90.66)"/><path d="M64.94,134.44a4.16,4.16,0,0,1-2.11-2.2,5.37,5.37,0,0,1-.25-3,5.37,5.37,0,0,0,.36,3,4.06,4.06,0,0,0,2.1,2Z" transform="translate(-9.14 -90.66)"/><ellipse class="cls-40" cx="48.95" cy="107.34" rx="1.16" ry="2.49" transform="translate(-76.64 -2.19) rotate(-56.28)"/><ellipse class="cls-41" cx="47.72" cy="109.3" rx="1.16" ry="2.49" transform="translate(-78.82 -2.35) rotate(-56.28)"/><ellipse class="cls-42" cx="47.87" cy="112.02" rx="1.16" ry="2.49" transform="translate(-81.02 -1) rotate(-56.28)"/><ellipse class="cls-43" cx="49.14" cy="115.05" rx="1.16" ry="2.49" transform="translate(-82.97 1.39) rotate(-56.28)"/><ellipse class="cls-44" cx="51.07" cy="108.68" rx="1.16" ry="2.49" transform="translate(-76.81 0.17) rotate(-56.28)"/><ellipse class="cls-45" cx="50.92" cy="111.41" rx="1.16" ry="2.49" transform="translate(-79.15 1.26) rotate(-56.28)"/><ellipse class="cls-46" cx="50.62" cy="113.63" rx="1.16" ry="2.49" transform="translate(-81.14 2) rotate(-56.28)"/><ellipse class="cls-47" cx="53.25" cy="111.26" rx="1.16" ry="2.49" transform="translate(-77.99 3.13) rotate(-56.28)"/><ellipse class="cls-48" cx="52.74" cy="116.5" rx="1.16" ry="2.49" transform="translate(-82.58 5.04) rotate(-56.28)"/><ellipse class="cls-49" cx="55.66" cy="116.95" rx="1.16" ry="2.49" transform="translate(-81.65 7.67) rotate(-56.28)"/><ellipse class="cls-50" cx="54.86" cy="113.57" rx="1.16" ry="2.49" transform="translate(-79.2 5.49) rotate(-56.28)"/><ellipse class="cls-51" cx="53.54" cy="114.8" rx="1.16" ry="2.49" transform="translate(-80.81 4.95) rotate(-56.28)"/><ellipse class="cls-52" cx="56.26" cy="115.67" rx="1.16" ry="2.49" transform="translate(-80.32 7.6) rotate(-56.28)"/></svg>