<svg id="Soy_Sauce" data-name="Soy Sauce" xmlns="http://www.w3.org/2000/svg" xmlns:xlink="http://www.w3.org/1999/xlink" viewBox="0 0 72.75 72.75"><defs><style>.cls-1{fill:#f9f1ec;}.cls-2{fill:#7d7976;}.cls-3{fill:none;stroke-width:0.5px;}.cls-3,.cls-5,.cls-6,.cls-7,.cls-8{stroke:#000;stroke-miterlimit:10;}.cls-4{fill:#7c2118;}.cls-6{fill:#fff;}.cls-7{fill:#758f00;}.cls-7,.cls-8{stroke-width:0.1px;}.cls-8{fill:#9cbf00;}.cls-9{fill:url(#Unbenannter_Verlauf_1150);}.cls-10{fill:url(#Unbenannter_Verlauf_1150-2);}.cls-11{fill:url(#Unbenannter_Verlauf_1150-3);}.cls-12{fill:url(#Unbenannter_Verlauf_1150-4);}</style><radialGradient id="Unbenannter_Verlauf_1150" cx="293.38" cy="243.56" r="1.52" gradientTransform="matrix(0.39, 0.68, -0.38, 0.36, 214.38, -62.61)" gradientUnits="userSpaceOnUse"><stop offset="0" stop-color="#feff7f"/><stop offset="0.06" stop-color="#fcfe7b"/><stop offset="0.13" stop-color="#f7f96e"/><stop offset="0.2" stop-color="#eff259"/><stop offset="0.26" stop-color="#e3e93b"/><stop offset="0.31" stop-color="#d9e021"/><stop offset="0.44" stop-color="#d1dc1d"/><stop offset="0.64" stop-color="#bacf10"/><stop offset="0.85" stop-color="#9cbf00"/></radialGradient><radialGradient id="Unbenannter_Verlauf_1150-2" cx="295.41" cy="246.72" r="1.72" gradientTransform="matrix(0.43, 0.64, -0.35, 0.39, 197.54, -58.21)" xlink:href="#Unbenannter_Verlauf_1150"/><radialGradient id="Unbenannter_Verlauf_1150-3" cx="297.96" cy="249.53" r="1.88" gradientTransform="matrix(0.52, 0.51, -0.27, 0.46, 153, -39.14)" xlink:href="#Unbenannter_Verlauf_1150"/><radialGradient id="Unbenannter_Verlauf_1150-4" cx="301.34" cy="251.45" r="1.86" gradientTransform="matrix(0.56, 0.45, -0.21, 0.43, 127.05, -13.94)" xlink:href="#Unbenannter_Verlauf_1150"/></defs><title>soy_sauce</title><path class="cls-1" d="M239,176.65A36.38,36.38,0,1,1,202.6,213,36.37,36.37,0,0,1,239,176.65" transform="translate(-202.6 -176.65)"/><path class="cls-2" d="M224.79,238.13l5,10.1c11.87,3.17,31.14.75,41.62-18.69l-17-34.44-5.08,1.71-1.81,6.41,0,2.42,1.22,5.15Z" transform="translate(-202.6 -176.65)"/><path class="cls-3" d="M254.19,238c-1.88,1.85-26.37,1.91-28.91,0-3.7-2.8,6.51-26.64,6.64-34.77,0-1.8-2.08-5.15-2.08-5.15l19.88-.19s-2.11,3.51-2.07,5.34C247.82,211.4,258.16,234.13,254.19,238Z" transform="translate(-202.6 -176.65)"/><path class="cls-4" d="M250.22,198.18H229.14s-.84-.51-.9-1.16c-.18-2-3.44-1.78-2.79-2.38,9.16-8.48,18.88-9,28.83.11.65.59-2.85,1.34-3.18,2.21A4.18,4.18,0,0,1,250.22,198.18Z" transform="translate(-202.6 -176.65)"/><path class="cls-5" d="M254.8,235.49c0,4.65-15.39,3.56-15.39,3.56s-15.1.66-14.88-2.75c.62-9.72,3.94-17.05,5.75-24.45.48-1.94,5.69,2.39,9.26,1.27,5-1.58,9.35-3,9.64-2C251.54,219.34,254.8,231.6,254.8,235.49Z" transform="translate(-202.6 -176.65)"/><ellipse class="cls-6" cx="37.07" cy="49.42" rx="9.4" ry="9.08"/><path class="cls-7" d="M236.47,222.05a1.91,1.91,0,0,1,1.2.72,2.61,2.61,0,0,1,.5,1c.79-.27,1.39.47,2,1.49a1.89,1.89,0,0,1,2,1.1c2.11-.49,2.1,1,3.06,1,1.33,0-1.37,2.31-3.22.37-.81.27-1.64-.07-2.48-1.27a1.25,1.25,0,0,1-.82-.15,3,3,0,0,1-1.29-1.74A14.71,14.71,0,0,0,236.47,222.05Z" transform="translate(-202.6 -176.65)"/><path class="cls-8" d="M235.11,220c-.11-1.38-.72,4.3,1.18,5.22-.21,1.08.55,2.35,1.43,2.38.21,1.46.92,2.07,2,2.07q1.86,2.66,3.43.68c-.73-1.28-1.6-2.05-2.78-1.74a2,2,0,0,0-1.7-2c-.12-1.42-.33-1.92-1.32-2.08C237.92,222.5,235.23,221.51,235.11,220Z" transform="translate(-202.6 -176.65)"/><path class="cls-9" d="M236.82,222.85c.22.56.13,1.63-.21,1.85s-.94-.43-1.15-1-.3-1.71,0-1.92S236.61,222.29,236.82,222.85Z" transform="translate(-202.6 -176.65)"/><path class="cls-10" d="M238.23,226.92c-.19.35-.73.09-1.12-.26a2.53,2.53,0,0,1-.5-2c.18-.35.9,0,1.29.37A2.19,2.19,0,0,1,238.23,226.92Z" transform="translate(-202.6 -176.65)"/><path class="cls-11" d="M239.69,227.51a1.62,1.62,0,0,1,.27,1.66,1,1,0,0,1-1.41-.17c-.37-.47-.6-1.41-.32-1.77S239.32,227,239.69,227.51Z" transform="translate(-202.6 -176.65)"/><path class="cls-12" d="M242.57,230.33c-.08.36-.85.61-1.29.44s-1.27-1-1.18-1.36,1.06-.63,1.51-.46S242.65,230,242.57,230.33Z" transform="translate(-202.6 -176.65)"/></svg>