<svg id="Soy_Yoghurt" data-name="Soy Yoghurt" xmlns="http://www.w3.org/2000/svg" xmlns:xlink="http://www.w3.org/1999/xlink" viewBox="0 0 72.75 72.75"><defs><style>.cls-1{fill:#fcf193;}.cls-2{fill:#7e794a;}.cls-3{fill:url(#Unbenannter_Verlauf_126);}.cls-4{fill:#e6f5e8;}.cls-5,.cls-6{stroke:#666;}.cls-10,.cls-11,.cls-12,.cls-5,.cls-6,.cls-7,.cls-8,.cls-9{stroke-miterlimit:10;}.cls-5{stroke-width:0.5px;fill:url(#Unbenannter_Verlauf_97);}.cls-6{fill:#ffbcb0;stroke-width:0.25px;}.cls-7{fill:none;}.cls-7,.cls-8{stroke:#006837;}.cls-8{fill:#006837;}.cls-9{fill:#fff;stroke:#fff;}.cls-10{fill:#4f8727;}.cls-10,.cls-11,.cls-12{stroke:#000;stroke-width:0.15px;}.cls-11{fill:#758f00;}.cls-12{fill:#9cbf00;}.cls-13{fill:url(#Unbenannter_Verlauf_1150);}.cls-14{fill:url(#Unbenannter_Verlauf_1150-2);}.cls-15{fill:url(#Unbenannter_Verlauf_1150-3);}.cls-16{fill:url(#Unbenannter_Verlauf_1150-4);}.cls-17{fill:url(#Unbenannter_Verlauf_155);}.cls-18{fill:url(#Unbenannter_Verlauf_155-2);}.cls-19{fill:url(#Unbenannter_Verlauf_155-3);}</style><linearGradient id="Unbenannter_Verlauf_126" x1="118.57" y1="482.69" x2="154.91" y2="482.69" gradientUnits="userSpaceOnUse"><stop offset="0.02" stop-color="#f15a24"/><stop offset="0.51" stop-color="#ff7abd"/><stop offset="0.76" stop-color="#e4a9c0"/><stop offset="1" stop-color="#cecfc3"/></linearGradient><linearGradient id="Unbenannter_Verlauf_97" x1="132.32" y1="453.77" x2="139.59" y2="472.84" gradientUnits="userSpaceOnUse"><stop offset="0.51" stop-color="#f2f2f2"/><stop offset="0.61" stop-color="#f0f0f0"/><stop offset="0.64" stop-color="#e9e9e9"/><stop offset="0.67" stop-color="#dedede"/><stop offset="0.69" stop-color="#cdcdcd"/><stop offset="0.71" stop-color="#b7b7b7"/><stop offset="0.72" stop-color="#9c9c9c"/><stop offset="0.72" stop-color="#999"/><stop offset="0.73" stop-color="#949494"/><stop offset="0.78" stop-color="#898989"/><stop offset="0.83" stop-color="#828282"/><stop offset="1" stop-color="gray"/></linearGradient><radialGradient id="Unbenannter_Verlauf_1150" cx="133.37" cy="581.55" r="2.09" gradientTransform="matrix(0.41, 0.63, -0.4, 0.33, 305.91, 209.36)" gradientUnits="userSpaceOnUse"><stop offset="0" stop-color="#feff7f"/><stop offset="0.06" stop-color="#fcfe7b"/><stop offset="0.13" stop-color="#f7f96e"/><stop offset="0.2" stop-color="#eff259"/><stop offset="0.26" stop-color="#e3e93b"/><stop offset="0.31" stop-color="#d9e021"/><stop offset="0.44" stop-color="#d1dc1d"/><stop offset="0.64" stop-color="#bacf10"/><stop offset="0.85" stop-color="#9cbf00"/></radialGradient><radialGradient id="Unbenannter_Verlauf_1150-2" cx="136.15" cy="585.9" r="2.37" gradientTransform="matrix(0.45, 0.59, -0.37, 0.36, 285.82, 197.4)" xlink:href="#Unbenannter_Verlauf_1150"/><radialGradient id="Unbenannter_Verlauf_1150-3" cx="139.66" cy="589.76" r="2.58" gradientTransform="matrix(0.55, 0.48, -0.29, 0.42, 227.57, 174.5)" xlink:href="#Unbenannter_Verlauf_1150"/><radialGradient id="Unbenannter_Verlauf_1150-4" cx="144.31" cy="592.39" r="2.55" gradientTransform="matrix(0.59, 0.41, -0.22, 0.4, 183.94, 194.86)" xlink:href="#Unbenannter_Verlauf_1150"/><radialGradient id="Unbenannter_Verlauf_155" cx="297.01" cy="602.19" r="2.5" gradientTransform="matrix(0.64, 0.71, -0.53, 0.41, 265.13, 27.98)" gradientUnits="userSpaceOnUse"><stop offset="0.13" stop-color="#fff8bf"/><stop offset="0.29" stop-color="#faf0b8"/><stop offset="0.53" stop-color="#ecd9a4"/><stop offset="0.82" stop-color="#d6b583"/><stop offset="1" stop-color="#c69c6d"/></radialGradient><radialGradient id="Unbenannter_Verlauf_155-2" cx="444.75" cy="363.52" r="2.01" gradientTransform="matrix(-0.28, 0.89, -0.67, -0.18, 506.3, 154.43)" xlink:href="#Unbenannter_Verlauf_155"/><radialGradient id="Unbenannter_Verlauf_155-3" cx="420.46" cy="455.89" r="2.01" gradientTransform="matrix(0.04, 0.93, -0.69, 0.02, 438.01, 81.98)" xlink:href="#Unbenannter_Verlauf_155"/></defs><title>soy_yoghurt</title><path class="cls-1" d="M137.24,438.92a36.38,36.38,0,1,1-36.37,36.38,36.38,36.38,0,0,1,36.37-36.38" transform="translate(-100.87 -438.92)"/><path class="cls-2" d="M115.9,470.15l6.18,12.54,2.16,14.72L131,511.14a36.43,36.43,0,0,0,38.29-18.68l-11.84-23.93L149.59,467Z" transform="translate(-100.87 -438.92)"/><path class="cls-3" d="M147.66,498.34c-2.39,1.9-20.2,2-22.54.27-4.14-3.13-9.12-32.45-5-32.17,3.14.21-.06,2.06,16.71,2.06,17.18,0,13-2.06,16.63-2.94C157.75,464.52,151.65,495.18,147.66,498.34Z" transform="translate(-100.87 -438.92)"/><path class="cls-4" d="M147.52,454.69c3.34.49,11.12,13,10.32,15.15-.63,1.72-40,1.69-41.94.31s7.39-15.13,10.89-15.68C130.45,453.89,143,454,147.52,454.69Z" transform="translate(-100.87 -438.92)"/><path class="cls-5" d="M154.27,467.92c-2.92,2.39-35.35.53-33.33-.36l6.18-10.19,20.49-.85S155.07,467.26,154.27,467.92Z" transform="translate(-100.87 -438.92)"/><path class="cls-6" d="M141.53,459.5c.2,6-.68,7.59-6.91,7.81-9.53.33-13.75,1.86-15.64.51-1.62-1.16,6-10.39,7.44-11.3,2.46-1.51,19.89-.87,21.19,0,.89.59.8,3,2.42,5.47S141.43,456.75,141.53,459.5Z" transform="translate(-100.87 -438.92)"/><path class="cls-7" d="M138.79,459.5" transform="translate(-100.87 -438.92)"/><path class="cls-7" d="M133.12,462.73" transform="translate(-100.87 -438.92)"/><path class="cls-7" d="M139.47,457.62" transform="translate(-100.87 -438.92)"/><path class="cls-8" d="M139.37,458.63" transform="translate(-100.87 -438.92)"/><path class="cls-8" d="M135.45,457.63" transform="translate(-100.87 -438.92)"/><path class="cls-8" d="M139.27,458" transform="translate(-100.87 -438.92)"/><ellipse class="cls-9" cx="35.64" cy="46.68" rx="12.43" ry="10.95"/><path class="cls-10" d="M132.21,475.81c0,.55.44,1.2.47,1.83a2.68,2.68,0,0,1-.83,2c-1.18,1.18-3.38,1.16-4.44,2.44.21-1.51-.46-2.81.55-4.18A6.61,6.61,0,0,1,132.21,475.81Z" transform="translate(-100.87 -438.92)"/><path class="cls-11" d="M129.36,483.64a2.94,2.94,0,0,1,1.74.91,3.69,3.69,0,0,1,.73,1.22c1.14-.34,2,.61,2.82,1.91a2.83,2.83,0,0,1,2.89,1.4c3.07-.62,3.05,1.27,4.44,1.27,1.94,0-2,2.95-4.67.47-1.18.34-2.38-.09-3.61-1.62a1.92,1.92,0,0,1-1.18-.2,3.87,3.87,0,0,1-1.87-2.21A17.62,17.62,0,0,0,129.36,483.64Z" transform="translate(-100.87 -438.92)"/><path class="cls-12" d="M127.38,481.05c-.16-1.77-1,5.49,1.71,6.66a2.58,2.58,0,0,0,2.08,3,2.73,2.73,0,0,0,2.91,2.64c1.81,2.25,3.47,2.55,5,.87-1.05-1.64-2.31-2.62-4-2.23-.17-1.8-1.14-2.27-2.47-2.59-.17-1.82-.48-2.45-1.91-2.65C131.46,484.21,127.55,483,127.38,481.05Z" transform="translate(-100.87 -438.92)"/><path class="cls-13" d="M129.87,484.66c.3.71.18,2.08-.32,2.35s-1.36-.54-1.67-1.26-.43-2.18.07-2.45S129.56,483.94,129.87,484.66Z" transform="translate(-100.87 -438.92)"/><path class="cls-14" d="M131.9,489.85c-.27.44-1.06.11-1.62-.33a3,3,0,0,1-.73-2.51c.27-.44,1.31,0,1.88.48A2.49,2.49,0,0,1,131.9,489.85Z" transform="translate(-100.87 -438.92)"/><path class="cls-15" d="M134,490.6c.54.6.79,1.67.39,2.12a1.54,1.54,0,0,1-2-.21c-.53-.61-.86-1.81-.46-2.26S133.5,490,134,490.6Z" transform="translate(-100.87 -438.92)"/><path class="cls-16" d="M138.21,494.2c-.12.46-1.23.78-1.88.56s-1.83-1.28-1.71-1.74,1.55-.8,2.2-.58S138.33,493.74,138.21,494.2Z" transform="translate(-100.87 -438.92)"/><path class="cls-17" d="M137.29,484.57c.57.84.63,2.11-.06,2.5a2.5,2.5,0,0,1-2.76-.82c-.58-.84-.7-2.28,0-2.68S136.71,483.73,137.29,484.57Z" transform="translate(-100.87 -438.92)"/><path class="cls-18" d="M140.87,487.41c-.35.73-1.24,1.33-1.83,1.1a1.7,1.7,0,0,1-.65-2.06c.34-.73,1.33-1.46,1.92-1.22A1.83,1.83,0,0,1,140.87,487.41Z" transform="translate(-100.87 -438.92)"/><path class="cls-19" d="M139.94,483.42c-.08.79-.72,1.62-1.36,1.57a1.78,1.78,0,0,1-1.32-1.77c.08-.79.76-1.76,1.41-1.71A1.93,1.93,0,0,1,139.94,483.42Z" transform="translate(-100.87 -438.92)"/></svg>