<svg id="Tomatoes" xmlns="http://www.w3.org/2000/svg" xmlns:xlink="http://www.w3.org/1999/xlink" viewBox="0 0 72.75 72.77"><defs><style>.cls-1{fill:#e1bf5c;}.cls-2{fill:#71602e;}.cls-3{fill:url(#Unbenannter_Verlauf_13);}.cls-4{fill:url(#Unbenannter_Verlauf_310);}.cls-5{fill:#42210b;}</style><linearGradient id="Unbenannter_Verlauf_13" x1="257.44" y1="151.43" x2="225.48" y2="108.9" gradientUnits="userSpaceOnUse"><stop offset="0" stop-color="#9f272d"/><stop offset="0.39" stop-color="#a0292f"/><stop offset="0.52" stop-color="#a33035"/><stop offset="0.62" stop-color="#a83b41"/><stop offset="0.7" stop-color="#b04c51"/><stop offset="0.77" stop-color="#b96267"/><stop offset="0.83" stop-color="#c57e81"/><stop offset="0.89" stop-color="#d49ea1"/><stop offset="0.94" stop-color="#e5c4c5"/><stop offset="0.98" stop-color="#f7eded"/><stop offset="1" stop-color="#fff"/></linearGradient><radialGradient id="Unbenannter_Verlauf_310" cx="240.41" cy="116.92" r="17.21" gradientUnits="userSpaceOnUse"><stop offset="0" stop-color="#42210b"/><stop offset="0.05" stop-color="#3f2a10"/><stop offset="0.22" stop-color="#383e1b"/><stop offset="0.4" stop-color="#344c24"/><stop offset="0.63" stop-color="#315429"/><stop offset="1" stop-color="#30572a"/></radialGradient></defs><title>tomatoes</title><path class="cls-1" d="M240.09,90.65A36.38,36.38,0,1,1,203.71,127a36.37,36.37,0,0,1,36.38-36.37" transform="translate(-203.71 -90.65)"/><path class="cls-2" d="M218.5,133.54l14.41,29.15a36.34,36.34,0,0,0,39.64-19.24l-10.93-21.78-16.64-10-4.28-8.66-.5,6.44-15.09,2.4,2.89,5.85Z" transform="translate(-203.71 -90.65)"/><path class="cls-3" d="M241.52,118.16c27.4-11.72,31.9,28.21,1.53,30.08-14.31.88-23.29-7.55-25.44-17.59-2.54-11.81,17.31-18.59,23.91-12.49" transform="translate(-203.71 -90.65)"/><path class="cls-4" d="M239.36,114.34c-2-1.09-9.16-3.87-14,1.29-1.53,1.64-2.41,3.85-4.48,4.72,3.62-.65,9.59-2.24,13.27-2,1.52.07,2.19.75,3.4-.16-2.16.88-1.1-.84-3.12.33-4,2.32-2.49,15-3.29,16.4,2.12-1.67,5.29-8.83,8.22-12a2.85,2.85,0,0,0,.43-2.86c-2.71,5,14.34,11.91,13.33,10.81-3.57-3.87-10-10.66-10-12.47,0-.23,3.72,1.66,4.3,2.8.75,1.48,2.17,2.76,2.81,4.3s6.14,1.91,7.77,1.61c-1.13-1.6-3.94-3.81-3.77-5.87.65-7.61-10-6.13-10-6.13a53.11,53.11,0,0,1,14.26,3.81c1.11.49-3-8.9-10.13-9.36-1.71-.11-5.77,1.3-6.38,3.29-3.73-9-15.52-1.2-17.62-.9-.67.09,14.71.06,15,2.45" transform="translate(-203.71 -90.65)"/><polygon class="cls-5" points="36.99 12.02 38.56 26.39 35.59 27.12 31.4 13.39 36.99 12.02"/></svg>