<svg id="mustard" xmlns="http://www.w3.org/2000/svg" xmlns:xlink="http://www.w3.org/1999/xlink" viewBox="0 0 72.75 72.75"><defs><style>.cls-1{fill:#a8944a;}.cls-2{fill:#544a25;}.cls-3{fill:url(#Unbenannter_Verlauf_14);}.cls-4{fill:#c9952d;}.cls-5{fill:#754c24;}</style><linearGradient id="Unbenannter_Verlauf_14" x1="20.54" y1="172.82" x2="55.79" y2="236.82" gradientUnits="userSpaceOnUse"><stop offset="0" stop-color="#f7be29"/><stop offset="0" stop-color="#fff"/><stop offset="1" stop-color="#e9be00"/></linearGradient></defs><title>mustard</title><circle class="cls-1" cx="36.38" cy="36.37" r="36.37"/><path class="cls-2" d="M36.77,238.64,41.9,249a36.45,36.45,0,0,0,31.79-12.74L53.08,194.6l-2.16.16-3.57-7.14.19,12.84Z" transform="translate(-9.48 -176.49)"/><path class="cls-3" d="M56.59,238.75H36.51l1.32-41.44c2.92-2.93,13.94-3.22,16.54,0Z" transform="translate(-9.48 -176.49)"/><path class="cls-4" d="M53.15,197.63a21.2,21.2,0,0,1-14.15,0c-.79-.29,0-3.36,0-3.36,4.14-1,11-1.2,14.15,0C53.15,194.27,53.93,197.32,53.15,197.63Z" transform="translate(-9.48 -176.49)"/><path class="cls-5" d="M47.93,195.35H44.15s-.25-6.57.74-8h2.4C48.35,188.93,47.93,195.35,47.93,195.35Z" transform="translate(-9.48 -176.49)"/></svg>