<svg id="sesame" xmlns="http://www.w3.org/2000/svg" xmlns:xlink="http://www.w3.org/1999/xlink" viewBox="0 0 72.75 72.76"><defs><style>.cls-1{fill:#607f4e;}.cls-2{fill:#324d21;}.cls-3{stroke:#000;stroke-miterlimit:10;stroke-width:0.05px;fill:url(#Unbenannter_Verlauf_15);}</style><radialGradient id="Unbenannter_Verlauf_15" cx="131.33" cy="191.5" r="35.44" gradientUnits="userSpaceOnUse"><stop offset="0" stop-color="#f7be29"/><stop offset="0" stop-color="#fbe098"/><stop offset="0.15" stop-color="#f4d995"/><stop offset="0.37" stop-color="#e0c78e"/><stop offset="0.64" stop-color="#bfa983"/><stop offset="0.89" stop-color="#998675"/></radialGradient></defs><title>sesame</title><path class="cls-1" d="M146.19,177.12a36.38,36.38,0,1,1-36.37,36.38" transform="translate(-109.82 -177.12)"/><path class="cls-1" d="M109.82,213.5a36.37,36.37,0,0,1,36.37-36.38" transform="translate(-109.82 -177.12)"/><path class="cls-2" d="M124.31,223.76l12.2,24.81c20.57,5.31,34.59-6.65,39.71-14.54L163.7,208.89l-5.46-.91-5.57-11.28-5.73,3.43-2.5-5.06-15.17,5.55,3.36,6.78-9.32,2.94,3.33,6.74Z" transform="translate(-109.82 -177.12)"/><path class="cls-3" d="M130,207.69c0,2.61-.95,4.34-3.6,4.34s-3.6-1.61-3.6-4.23,3.09-4.84,3.09-4.84S130,205.08,130,207.69Z" transform="translate(-109.82 -177.12)"/><path class="cls-3" d="M135.75,197.53c.79,2.49.4,4.42-2.14,5.19s-3.92-.49-4.7-3,1.49-5.52,1.49-5.52S135,195,135.75,197.53Z" transform="translate(-109.82 -177.12)"/><path class="cls-3" d="M145.22,196.9c0,2.61-.95,4.33-3.6,4.33S138,199.62,138,197s3.09-4.85,3.09-4.85S145.22,194.28,145.22,196.9Z" transform="translate(-109.82 -177.12)"/><path class="cls-3" d="M147.74,209.8c1.23,2.31,1.2,4.27-1.15,5.48s-4,.22-5.18-2.09.46-5.7.46-5.7S146.51,207.48,147.74,209.8Z" transform="translate(-109.82 -177.12)"/><path class="cls-3" d="M147.7,203c.87,2.47.55,4.41-1.95,5.27s-3.94-.36-4.81-2.83,1.3-5.57,1.3-5.57S146.83,200.55,147.7,203Z" transform="translate(-109.82 -177.12)"/><path class="cls-3" d="M153.29,198.58c-.16,2.61-1.22,4.28-3.86,4.11s-3.49-1.82-3.33-4.43,3.38-4.65,3.38-4.65S153.45,196,153.29,198.58Z" transform="translate(-109.82 -177.12)"/><path class="cls-3" d="M156.9,209c-.17,2.6-1.22,4.27-3.87,4.11s-3.49-1.83-3.32-4.44,3.38-4.65,3.38-4.65S157.06,206.38,156.9,209Z" transform="translate(-109.82 -177.12)"/><path class="cls-3" d="M136,212.07c-.16,2.61-1.22,4.27-3.86,4.11s-3.49-1.83-3.33-4.43,3.39-4.65,3.39-4.65S136.2,209.46,136,212.07Z" transform="translate(-109.82 -177.12)"/><path class="cls-3" d="M151.74,228.73c-.16,2.6-1.22,4.27-3.86,4.11s-3.49-1.83-3.33-4.44,3.38-4.65,3.38-4.65S151.91,226.12,151.74,228.73Z" transform="translate(-109.82 -177.12)"/><path class="cls-3" d="M141.86,228.76c.68,2.53.21,4.43-2.35,5.1s-3.9-.65-4.57-3.17,1.72-5.47,1.72-5.47S141.18,226.23,141.86,228.76Z" transform="translate(-109.82 -177.12)"/><path class="cls-3" d="M141.91,218.9c-.16,2.61-1.22,4.27-3.86,4.11s-3.49-1.83-3.33-4.43,3.38-4.65,3.38-4.65S142.08,216.3,141.91,218.9Z" transform="translate(-109.82 -177.12)"/><path class="cls-3" d="M129.93,219.44c.83,2.49.47,4.42-2,5.23s-3.93-.42-4.76-2.91,1.4-5.55,1.4-5.55S129.11,217,129.93,219.44Z" transform="translate(-109.82 -177.12)"/><path class="cls-3" d="M150.35,218.9c-.17,2.61-1.22,4.27-3.87,4.11s-3.49-1.83-3.32-4.43,3.38-4.65,3.38-4.65S150.51,216.3,150.35,218.9Z" transform="translate(-109.82 -177.12)"/><path class="cls-3" d="M159,218.82c.44,2.58-.21,4.44-2.82,4.87s-3.82-1-4.26-3.58,2.23-5.28,2.23-5.28S158.52,216.25,159,218.82Z" transform="translate(-109.82 -177.12)"/><path class="cls-3" d="M160.45,232.1c.7,2.52.25,4.43-2.3,5.13s-3.9-.61-4.61-3.13,1.67-5.48,1.67-5.48S159.74,229.58,160.45,232.1Z" transform="translate(-109.82 -177.12)"/><path class="cls-3" d="M167.18,219.92c.48,2.57-.14,4.43-2.75,4.9s-3.83-.94-4.3-3.52,2.15-5.31,2.15-5.31S166.71,217.35,167.18,219.92Z" transform="translate(-109.82 -177.12)"/><path class="cls-3" d="M163.94,211.14c-.73,2.51-2.12,3.91-4.67,3.19s-3-2.52-2.28-5,4.31-3.83,4.31-3.83S164.67,208.62,163.94,211.14Z" transform="translate(-109.82 -177.12)"/><path class="cls-3" d="M140.74,202.34c-.69,2.52-2.07,3.93-4.62,3.25s-3.05-2.49-2.35-5S138,196.7,138,196.7,141.44,199.81,140.74,202.34Z" transform="translate(-109.82 -177.12)"/><path class="cls-3" d="M141.33,206.08c1.19,2.34,1.12,4.3-1.25,5.47s-4,.14-5.13-2.19.56-5.7.56-5.7S140.15,203.74,141.33,206.08Z" transform="translate(-109.82 -177.12)"/></svg>