<svg id="crustaceans" xmlns="http://www.w3.org/2000/svg" xmlns:xlink="http://www.w3.org/1999/xlink" viewBox="0 0 72.75 72.75"><defs><style>.cls-1{fill:#819dba;}.cls-2{fill:#556d85;}.cls-3{fill:url(#Unbenannter_Verlauf_725);}.cls-4{fill:none;stroke:#c14e67;}.cls-4,.cls-5,.cls-6{stroke-miterlimit:10;}.cls-4,.cls-6{stroke-width:0.5px;}.cls-5{fill:#ff9f7f;}.cls-5,.cls-6{stroke:#000;}.cls-6{fill:#42210b;}</style><linearGradient id="Unbenannter_Verlauf_725" x1="119.2" y1="344.57" x2="145.65" y2="390.1" gradientUnits="userSpaceOnUse"><stop offset="0" stop-color="#a5a394"/><stop offset="1" stop-color="#ff8f7b"/></linearGradient></defs><title>crustaceans</title><circle class="cls-1" cx="36.38" cy="36.38" r="36.38"/><path class="cls-2" d="M123,397.4l11,22.21A36.51,36.51,0,0,0,175.38,398l-11.57-23.41L121,376l9.78,19.66Z" transform="translate(-105.4 -347.69)"/><path class="cls-3" d="M121.47,376c8.56-6.29,14.61-12.74,21.58-8.94,0,0,5.64-3.57,12.24,1.74,3.19,2.56,10,1.17,9.11,11.4,1.8,5.84,2.1,9.62-1.34,13.14-2.08,2.13-5.23,9.76-15,8.37-2.85-.41-6.32,1.56-10.17-1-6.79-4.58-16.21-1.91-15.11-3.23,2.07-2.48,8.17-1.36,8.78-3.13.27-.78-.75-4.83.59-7.46,2.18-4.29,2.58,7.08,7.8,8.11,10.15,2,14.71-2.29,13.52-4.63-.6-1.18-4.45-1-4.89-.68,1.29-.69,3.41-.51,5.15-.07,3.32-4.28-4.43-5.16-6.84-2.84.31-2.71,7.43-.25,5.43-4-1-1.92-5.48,0-7.23.3,1.33-1.55,6.11-1.2,5.52-1.92-.57-2.61-8-2.7-9.15-2C136,382.78,118.5,378.16,121.47,376Z" transform="translate(-105.4 -347.69)"/><path class="cls-4" d="M143.39,366.85c1,1.85-1,7.36-.58,11.93" transform="translate(-105.4 -347.69)"/><path class="cls-4" d="M157.37,370c-.23.68-1.48,8-6.86,10.79" transform="translate(-105.4 -347.69)"/><path class="cls-4" d="M164.48,380.42c-.3.12-11.61,5.36-12.32,4.28" transform="translate(-105.4 -347.69)"/><path class="cls-4" d="M163.06,393.32c-.68-.63-9.31-3.18-9.3-3.76" transform="translate(-105.4 -347.69)"/><path class="cls-5" d="M132.9,397.64" transform="translate(-105.4 -347.69)"/><path class="cls-4" d="M146.29,401.74c-.15-1.32-.89-4.34-1-6.29" transform="translate(-105.4 -347.69)"/><ellipse class="cls-6" cx="131.17" cy="372.27" rx="1.74" ry="0.93" transform="translate(-214.19 -288.81) rotate(-18.03)"/><path class="cls-4" d="M136.73,399.92c.73-1.38.56-4.21,1.6-5.73" transform="translate(-105.4 -347.69)"/></svg>