<svg id="egg" xmlns="http://www.w3.org/2000/svg" xmlns:xlink="http://www.w3.org/1999/xlink" viewBox="0 0 72.75 72.76"><defs><style>.cls-1{fill:#ffe57d;}.cls-2{fill:#807b46;}.cls-3{fill:url(#Unbenannter_Verlauf_706);}.cls-4{fill:url(#Unbenannter_Verlauf_706-2);}.cls-5{fill:#fff;}.cls-6{fill:gold;}</style><linearGradient id="Unbenannter_Verlauf_706" x1="41.48" y1="404.77" x2="30.98" y2="374.27" gradientUnits="userSpaceOnUse"><stop offset="0" stop-color="#a5a394"/><stop offset="1" stop-color="#fff"/></linearGradient><linearGradient id="Unbenannter_Verlauf_706-2" x1="42.02" y1="404.58" x2="31.52" y2="374.08" xlink:href="#Unbenannter_Verlauf_706"/></defs><title>egg</title><circle class="cls-1" cx="36.38" cy="36.38" r="36.38"/><path class="cls-2" d="M23.54,394l12.85,26a36.38,36.38,0,0,0,40.83-18L66.32,379.9,51.5,386.19l-6.4-12.81Z" transform="translate(-8.83 -348.29)"/><path class="cls-3" d="M47.84,385.83c0,10.71-5.89,14-13.16,14s-13.16-3.27-13.16-14,5.89-22.45,13.16-22.45S47.84,375.12,47.84,385.83Z" transform="translate(-8.83 -348.29)"/><path class="cls-4" d="M47.84,385.83c0,2.6-6.53,6-6.53,6l-6.63-14.93-5.35,12.26-.66-2.83-1.47,3-1.34-7.77s-4.34,6.53-4.34,4.23c0-10.71,5.89-22.45,13.16-22.45S47.84,375.12,47.84,385.83Z" transform="translate(-8.83 -348.29)"/><path class="cls-5" d="M65.37,397.62c-3.68,9.59-10.08,10.49-16.59,8s-10.66-7.45-7-17,13-18.08,19.49-15.58S69.05,388,65.37,397.62Z" transform="translate(-8.83 -348.29)"/><circle class="cls-6" cx="44.11" cy="46.5" r="8.6"/></svg>