<svg id="molluscs" xmlns="http://www.w3.org/2000/svg" xmlns:xlink="http://www.w3.org/1999/xlink" viewBox="0 0 72.75 72.75"><defs><style>.cls-1{fill:#d2cf68;}.cls-2{fill:#807e40;}.cls-3{fill:url(#Unbenannter_Verlauf_640);}.cls-4{fill:#c69c6d;}.cls-5,.cls-6{fill:none;stroke:#000;stroke-miterlimit:10;}.cls-5{stroke-width:0.25px;}</style><radialGradient id="Unbenannter_Verlauf_640" cx="235.79" cy="295.68" fx="221.1014008245093" fy="305.7287649198285" r="19.36" gradientUnits="userSpaceOnUse"><stop offset="0.24" stop-color="#42210b"/><stop offset="0.4" stop-color="#44230c"/><stop offset="0.48" stop-color="#4c2911"/><stop offset="0.54" stop-color="#593519"/><stop offset="0.59" stop-color="#6b4524"/><stop offset="0.63" stop-color="#835a33"/><stop offset="0.65" stop-color="#8c6239"/><stop offset="0.81" stop-color="#c69c6d"/></radialGradient></defs><title>molluscs</title><circle class="cls-1" cx="36.38" cy="36.38" r="36.38"/><path class="cls-2" d="M219.66,314.05,229,332.93a36.44,36.44,0,0,0,47.89-24.44l-12.41-25.1-.51.08-1.34-2.71-1.3-.12-.08,1.17-2.57,6-6.63,16-6.76-13.66-2,11.1Z" transform="translate(-205.43 -262.5)"/><path class="cls-3" d="M248.56,298.63a9.88,9.88,0,0,0,2.38,1.46c5.7,2-9.67,14.71-16.31,14.13-2.49-.22-3.72-.24-5.21-1.27-2.48-1.73-4.58-2-5.64-3.65-1.45-2.32-2.06-5.6-2.06-10.2,0-6.43,7.11-15.94,14.47-16.08,4.36-.09,6.81,2,8.74,6C246.26,291.72,246.5,294.81,248.56,298.63Z" transform="translate(-205.43 -262.5)"/><path class="cls-4" d="M250.62,299.37c2.08-.33,3.61-5.17,4.72-8.6a4,4,0,0,1,2.45-2.87c1.86-.37,5.68,1.86,5.63,4.18,0,.6-.84.74-1.39,1.4a28.55,28.55,0,0,0-2.62,3.29c-1.41,2.41-2.18,5.23-4.05,10.07-.79,2-5.42,7.25-6.3,7.46a44.74,44.74,0,0,1-9.22,1.72c-11.87.82-22.5.26-20.21-3.12,2.86-4.2,5.2-2.07,10.48.32,3.3,1.5,7.52.13,10.54-2.72C244,307.38,247,299.92,250.62,299.37Z" transform="translate(-205.43 -262.5)"/><path class="cls-5" d="M234.47,300.68c-2.77-.61-1.9-4.52,1-3a2.88,2.88,0,0,1,1.08,4.45c-3.61,4.83-8.53-3.51-4.33-7.27s8.46,4.7,8.06,8.73c-.44,4.37-9.36,5.6-12.05,1.17-1.36-2.23-.8-5,0-7.22,1.41-3.73,3.06-5.69,7.18-6.5,8.22-1.62,8.46,13.63,6.48,17.51-2.49,4.91-9.53,6.7-13.7,3.66-3.28-2.4-4.46-.78-6.13-8-2.84-12.21,9.49-25.24,18.89-20,2.47,1.37,3.81,4.06,4.75,6.57.72,1.93,1.59,7.9,3.91,8.54,2.76.77,4.73-5.25,5.3-7.32,2.58-9.44,9.85-.5,8.28.54-7.41,4.94-3.94,14-14.14,21.71-2.5,1.89-33.71,4.13-29.43-1.4,2.52-3.25,3.49-3.28,8.93-.35" transform="translate(-205.43 -262.5)"/><line class="cls-6" x1="53.7" y1="25.36" x2="55.79" y2="19.83"/><line class="cls-6" x1="55.47" y1="26.08" x2="57.74" y2="21.97"/><circle class="cls-6" cx="56.23" cy="18.88" r="0.8"/><circle class="cls-6" cx="57.99" cy="21.53" r="0.84"/></svg>