<svg id="nuts" xmlns="http://www.w3.org/2000/svg" xmlns:xlink="http://www.w3.org/1999/xlink" viewBox="0 0 72.75 72.75"><defs><style>.cls-1{fill:#ffc399;}.cls-2{fill:#7f684c;}.cls-3{fill:#a67c52;}.cls-3,.cls-5,.cls-6,.cls-7{stroke:#000;stroke-miterlimit:10;stroke-width:0.03px;}.cls-4{fill:none;}.cls-5{fill:url(#Unbenannter_Verlauf_11);}.cls-6{fill:url(#Unbenannter_Verlauf_11-2);}.cls-7{fill:url(#Unbenannter_Verlauf_11-3);}</style><radialGradient id="Unbenannter_Verlauf_11" cx="142.03" cy="102.71" r="16.23" gradientUnits="userSpaceOnUse"><stop offset="0" stop-color="#fff"/><stop offset="0.01" stop-color="#fdfcfb"/><stop offset="0.2" stop-color="#e3d5c8"/><stop offset="0.38" stop-color="#cdb59d"/><stop offset="0.55" stop-color="#bc9c7d"/><stop offset="0.71" stop-color="#b08a65"/><stop offset="0.87" stop-color="#a98057"/><stop offset="1" stop-color="#a67c52"/></radialGradient><radialGradient id="Unbenannter_Verlauf_11-2" cx="161.71" cy="107.49" r="16.29" xlink:href="#Unbenannter_Verlauf_11"/><radialGradient id="Unbenannter_Verlauf_11-3" cx="147.21" cy="122.99" r="16.23" xlink:href="#Unbenannter_Verlauf_11"/></defs><title>nuts</title><circle class="cls-1" cx="36.38" cy="36.38" r="36.38"/><path class="cls-2" d="M134.09,146.88l8,16.2c20,2.09,34.82-12.54,38.38-26.35L171.72,119l-13.36,10.92-29.23-2.82,4,7.9,8.51,7.06Z" transform="translate(-109.06 -90.57)"/><path class="cls-3" d="M151.32,121.15c-2.94,6.59-13.15,12.14-18.62,9.71s-8.19-13.73-5.26-20.33,9.63-7.52,16.19-4.52C151,109.38,154.25,114.56,151.32,121.15Z" transform="translate(-109.06 -90.57)"/><path class="cls-4" d="M133.15,104.59c1.76,7.75,10.16,11.93,19.1,10.43" transform="translate(-109.06 -90.57)"/><path class="cls-5" d="M151.94,114.26A17,17,0,0,1,139.72,112a12.42,12.42,0,0,1-5.58-7.08s3.7-1.63,10.45,1.55C151,109.48,151.94,114.26,151.94,114.26Z" transform="translate(-109.06 -90.57)"/><path class="cls-3" d="M171.2,126.1c-2.93,6.59-13.15,12.15-18.62,9.71s-8.19-13.73-5.25-20.32S157,108,163.51,111C170.89,114.34,174.13,119.51,171.2,126.1Z" transform="translate(-109.06 -90.57)"/><path class="cls-4" d="M153,109.55c1.76,7.75,10.16,11.92,19.1,10.42" transform="translate(-109.06 -90.57)"/><path class="cls-6" d="M171.72,119a17.36,17.36,0,0,1-12.41-2.23,12.42,12.42,0,0,1-5.58-7.08s3.7-1.63,10.46,1.55C170.55,114.26,171.72,119,171.72,119Z" transform="translate(-109.06 -90.57)"/><path class="cls-3" d="M156.59,142.05c-2.93,6.59-13.14,12.14-18.61,9.71s-8.19-13.73-5.26-20.33,9.63-7.52,16.19-4.52C156.28,130.28,159.52,135.46,156.59,142.05Z" transform="translate(-109.06 -90.57)"/><path class="cls-4" d="M138.43,125.49c1.76,7.75,10.15,11.93,19.1,10.43" transform="translate(-109.06 -90.57)"/><path class="cls-7" d="M157.12,134.54a17,17,0,0,1-12.22-2.26,12.38,12.38,0,0,1-5.58-7.07s3.69-1.63,10.45,1.55C156.14,129.75,157.12,134.54,157.12,134.54Z" transform="translate(-109.06 -90.57)"/></svg>