<svg id="sulphites" xmlns="http://www.w3.org/2000/svg" xmlns:xlink="http://www.w3.org/1999/xlink" viewBox="0 0 72.75 72.82"><defs><style>.cls-1{fill:#f7efe1;}.cls-2{fill:#7c7871;}.cls-3{fill:url(#Unbenannter_Verlauf_665);}.cls-4,.cls-5,.cls-6{stroke:#000;stroke-miterlimit:10;}.cls-5,.cls-6{fill:none;}.cls-5{stroke-width:0.25px;}.cls-6{stroke-width:1.5px;}</style><linearGradient id="Unbenannter_Verlauf_665" x1="140.89" y1="283.76" x2="150.81" y2="296.09" gradientUnits="userSpaceOnUse"><stop offset="0" stop-color="#7c2118"/><stop offset="0.24" stop-color="#782018"/><stop offset="0.45" stop-color="#6d1b16"/><stop offset="0.66" stop-color="#5b1414"/><stop offset="0.86" stop-color="#410912"/><stop offset="1" stop-color="#2a000f"/></linearGradient></defs><title>sulphites</title><circle class="cls-1" cx="36.38" cy="36.38" r="36.38"/><path class="cls-2" d="M136.08,325.13l4.69,9.5c18.6,2.43,31.13-9.86,35.44-17.47l-20.66-41.78.45,2.32.39,2.77.26,3.22,0,2.88-.18,1.94-21,3.06,10.16,20.55.08,11.71Z" transform="translate(-108.61 -262.12)"/><path class="cls-3" d="M156.57,287.17s-.23,12.31-10.94,12.31c-11.54,0-11-14.18-11-14.18s4.18,1.95,5.81,1.31c1.85-.72,5.13-.92,6.86,0A12.29,12.29,0,0,0,156.57,287.17Z" transform="translate(-108.61 -262.12)"/><path class="cls-4" d="M154.81,325.08c1.39.06-19.71.18-18.32,0,7.75-.82,5.52-2.64,9.12-2.64S146.66,324.75,154.81,325.08Z" transform="translate(-108.61 -262.12)"/><path class="cls-5" d="M155.55,275.38s5.9,24.1-9.66,24.1c-16.29,0-10.2-24.1-10.2-24.1Z" transform="translate(-108.61 -262.12)"/><line class="cls-6" x1="37.09" y1="37.36" x2="36.95" y2="61.71"/></svg>