<svg id="Licorice" xmlns="http://www.w3.org/2000/svg" viewBox="0 0 72.75 72.75"><defs><style>.cls-1{fill:#cec0c3;}.cls-2{fill:#676062;}.cls-3{fill:#30262d;}.cls-4{fill:none;stroke:#999;}.cls-4,.cls-5,.cls-6,.cls-7{stroke-miterlimit:10;stroke-width:0.25px;}.cls-5{fill:#f46d73;}.cls-5,.cls-6,.cls-7{stroke:#000;}.cls-6{fill:#f9b6b9;}.cls-7{fill:#f14950;}</style></defs><title>licorice</title><path class="cls-1" d="M243.86,4.64A36.38,36.38,0,1,1,207.48,41,36.37,36.37,0,0,1,243.86,4.64" transform="translate(-207.48 -4.64)"/><path class="cls-2" d="M217.67,45.93,232.3,75.52c16.12,5.54,40.78-1.62,47-26.17l-5.95-12L244.74,50l-15.51,5Z" transform="translate(-207.48 -4.64)"/><ellipse class="cls-3" cx="28.65" cy="32.32" rx="18.93" ry="17.51"/><path d="M230,56a7.81,7.81,0,0,1-5.53-1.71,19.13,19.13,0,0,1-4.26-4,27.35,27.35,0,0,1-3.1-5,5.32,5.32,0,0,1-1.48-2.65,17.79,17.79,0,0,1-.6-3A19.22,19.22,0,0,1,217.6,28a23.24,23.24,0,0,1,8.34-8.4,19.34,19.34,0,0,1,11.73-2.77,17.88,17.88,0,0,1,3,.74c1,.32,1.94.72,2.8,1.09a32.68,32.68,0,0,1,5.09,2.77A24.24,24.24,0,0,1,253,25.35a19.17,19.17,0,0,1,3.26,5.08,18.56,18.56,0,0,1,.92,11.89,21.87,21.87,0,0,1-5.87,10.23A19.25,19.25,0,0,1,240.76,58a16.69,16.69,0,0,1-6.1-.29A21.86,21.86,0,0,1,220.9,46.92a17.8,17.8,0,0,1,.9-17.47,20.75,20.75,0,0,1,1.78-2.51,13,13,0,0,1,2.3-2.09,16.89,16.89,0,0,1,11.73-3,20.94,20.94,0,0,1,3,.51,21.48,21.48,0,0,1,2.89.92,15.47,15.47,0,0,1,5.18,3.45A16.33,16.33,0,0,1,253.2,38a16.84,16.84,0,0,1-4.08,11.42A13.21,13.21,0,0,1,243.9,53a14.37,14.37,0,0,1-6.23.82,19.9,19.9,0,0,1-5.88-1.46,15.4,15.4,0,0,1-5.17-3.44,12.71,12.71,0,0,1-3.16-5.54,14.05,14.05,0,0,1-.21-6.28,16.2,16.2,0,0,1,6.54-10.2,14.57,14.57,0,0,1,5.74-2.43,15,15,0,0,1,6.2.2,14.46,14.46,0,0,1,1.56.46,9,9,0,0,1,1.57.82,9.43,9.43,0,0,1,2.42,2.42,13.75,13.75,0,0,1,2.18,5.87,19.06,19.06,0,0,1-.1,6A15.47,15.47,0,0,1,247.13,46a9.51,9.51,0,0,1-5.25,4,10.47,10.47,0,0,1-6.49-.43,17.41,17.41,0,0,1-2.75-1.31,11,11,0,0,1-2.55-2,9.88,9.88,0,0,1-2.64-6,12.36,12.36,0,0,1,5.48-11,9.33,9.33,0,0,1,6.5-1.43,10.29,10.29,0,0,1,3.17,1.05,11.26,11.26,0,0,1,1.41.89,6.79,6.79,0,0,1,1.35,1.33,6.91,6.91,0,0,1,1.34,3.46,9.93,9.93,0,0,1-.24,3.38,13.44,13.44,0,0,1-3,5.65,7.71,7.71,0,0,1-3,2.16l-.54.16-.44.09a9.13,9.13,0,0,1-.93.1,6.35,6.35,0,0,1-2-.21,5.75,5.75,0,0,1-3.28-2.53,8.17,8.17,0,0,1-1.18-3.55,9.49,9.49,0,0,1,.44-4,5.15,5.15,0,0,1,1.64-2.3,5.07,5.07,0,0,1,3.28-1,5.93,5.93,0,0,1,2.64.72,6.29,6.29,0,0,1,1.65,1.26c.91.87,1.3,2.11,0,4.25l-1.14.84c-2.38.69-3.16.52-3.61.17s-.79-.46-.42-.58c.18-.09.55-.27.65-.52s0-.37-.18-.32c-.35.1-.63.72-.64,1.3a2.83,2.83,0,0,0,.32,1.62,1.46,1.46,0,0,0,.92.74,2.15,2.15,0,0,0,.7.06,3.56,3.56,0,0,0,.43,0l.23-.05.11,0a3.86,3.86,0,0,0,1.36-1A9.53,9.53,0,0,0,242.64,37a4.29,4.29,0,0,0-.36-3.6,2.7,2.7,0,0,0-.58-.59,6.89,6.89,0,0,0-.89-.57,6.47,6.47,0,0,0-2-.7,5.57,5.57,0,0,0-3.91.86A8.66,8.66,0,0,0,231.1,40a6,6,0,0,0,1.65,3.78,7.47,7.47,0,0,0,1.73,1.34,13.37,13.37,0,0,0,2.17,1,6.72,6.72,0,0,0,4.2.33A5.77,5.77,0,0,0,244,44a13.74,13.74,0,0,0,1.72-9.18,10.2,10.2,0,0,0-1.58-4.26,5.43,5.43,0,0,0-1.42-1.41,5.28,5.28,0,0,0-1.9-.74A10.74,10.74,0,0,0,232,30.06a12.35,12.35,0,0,0-4.9,7.75,9.25,9.25,0,0,0,2.34,8.34,11.36,11.36,0,0,0,3.85,2.53A15.67,15.67,0,0,0,238,49.83a9.51,9.51,0,0,0,8.14-3.12,12.85,12.85,0,0,0,3-8.68,12.29,12.29,0,0,0-3.4-8.47A11.37,11.37,0,0,0,241.92,27a17.56,17.56,0,0,0-4.7-1.14,12.73,12.73,0,0,0-8.91,2.29,18.32,18.32,0,0,0-1.78,1.52A10.59,10.59,0,0,0,225,31.48a13.74,13.74,0,0,0-1.85,4.41,14,14,0,0,0,1.12,9.36A16.8,16.8,0,0,0,231,52.17a16.69,16.69,0,0,0,4.51,1.88,13,13,0,0,0,4.73.22,15.28,15.28,0,0,0,8.49-4.38,18.14,18.14,0,0,0,4.81-8.47,14.74,14.74,0,0,0-.76-9.46,17.38,17.38,0,0,0-6.39-7.27,27.06,27.06,0,0,0-4.48-2.4,12,12,0,0,0-2.31-.81,14.31,14.31,0,0,0-2.34-.25,16.14,16.14,0,0,0-9.18,2.11,19.6,19.6,0,0,0-7,6.75,15.36,15.36,0,0,0-2.4,9.22,12,12,0,0,0,.4,2.37c.09.39.23.76.31,1.16a10.24,10.24,0,0,1,.13,1.29,12.71,12.71,0,0,0,3,3.95,44.85,44.85,0,0,0,4,3.11,11.43,11.43,0,0,1,3.92,3.71Z" transform="translate(-207.48 -4.64)"/><path class="cls-4" d="M232.11,55.33c-30.67-10.08-7.28-42.52,9.82-34.67,27.5,12.62,9,43.12-9.82,34.67-19.25-8.61-10.06-36.42,9.73-30,15.92,5.17,11.3,32.09-6.88,26.53-18-5.5-8.38-29.17,7.37-24.54,10,2.93,6.6,28.87-8.63,19.93-9.94-5.83-.55-22,9.12-15.56,5,3.36.5,12.7-3,12.81-9.66.33-7.57-14.94.52-6.15" transform="translate(-207.48 -4.64)"/><path class="cls-5" d="M260.56,33.12c-3.75,4.88-18,18-18,18,.5,3.63-3,4.38-2,5.5a17.5,17.5,0,0,1,2.79,5.73c2-.38,5.71,2.94,5.71,2.94,1.44,0,2.25-2.54,5-1.68l19-19.74c-1.62-2.75,1.08-6.81,0-6.75-2.22.13-4.5-4.2-5.25-4A17.87,17.87,0,0,1,260.56,33.12Z" transform="translate(-207.48 -4.64)"/><path class="cls-6" d="M248.94,48.5c-2.84,2.29-6.56.91-6.38,2.62.38,3.63-3,4.38-2,5.5,1.75,2,.62,7.07,1.38,6.85,3.12-.92,6.87,2.58,6.87,2.58,3.17-2.66,5.14-1.8,5.29-2.44,1.17-5.07,4.91-6.18,4-7-3.18-2.72-1.59-6.09-2.5-6C251.85,51,250.29,47.4,248.94,48.5Z" transform="translate(-207.48 -4.64)"/><line class="cls-7" x1="60.33" y1="28.48" x2="48.39" y2="46.38"/><line class="cls-7" x1="42.08" y1="43.65" x2="53.08" y2="28.48"/><line class="cls-7" x1="50.69" y1="52.42" x2="65.83" y2="32.96"/><ellipse cx="40.93" cy="52.73" rx="4.06" ry="4.48"/></svg>