<svg id="Pork" xmlns="http://www.w3.org/2000/svg" xmlns:xlink="http://www.w3.org/1999/xlink" viewBox="0 0 72.75 72.75"><defs><style>.cls-1{fill:#f1d386;}.cls-2{fill:#796a43;}.cls-3{fill:url(#Unbenannter_Verlauf_21);}.cls-4{fill:url(#Unbenannter_Verlauf_21-2);}.cls-5{fill:#e69c9c;}.cls-6{fill:#f3bcbc;}.cls-7{stroke:#000;stroke-miterlimit:10;}</style><linearGradient id="Unbenannter_Verlauf_21" x1="63.41" y1="29.8" x2="56.46" y2="39.66" gradientUnits="userSpaceOnUse"><stop offset="0" stop-color="#d19c9c"/><stop offset="1" stop-color="#bd242d"/></linearGradient><linearGradient id="Unbenannter_Verlauf_21-2" x1="23.28" y1="32" x2="28.1" y2="39.02" xlink:href="#Unbenannter_Verlauf_21"/></defs><title>pork</title><path class="cls-1" d="M42.1,8.2A36.38,36.38,0,1,1,5.72,44.58,36.37,36.37,0,0,1,42.1,8.2" transform="translate(-5.72 -8.2)"/><path class="cls-2" d="M19.44,58.4l10,20.3c16.05,6.22,42.61-.12,48.47-27.87L65.87,26.46,59.05,45.28l-4.6-9Z" transform="translate(-5.72 -8.2)"/><path class="cls-3" d="M53.51,30.58c-.56,3.58,6.71,10.91,10,11.63s4.4-16.46,1.08-16.67C61.43,25.35,53.94,27.81,53.51,30.58Z" transform="translate(-5.72 -8.2)"/><path class="cls-4" d="M31.45,30.58c.56,3.58-6.58,10.91-9.79,11.63S17.35,25.75,20.6,25.54C23.69,25.35,31,27.81,31.45,30.58Z" transform="translate(-5.72 -8.2)"/><path class="cls-5" d="M66.86,53c0,12.52-11.64,15.18-25.4,15.4-12.39.2-23-3.7-23-13.64,0-12.53,6.49-27.87,24.69-27.87C56.39,26.89,66.86,40.47,66.86,53Z" transform="translate(-5.72 -8.2)"/><path class="cls-6" d="M55.86,53.28c0,10.64-7.38,13.48-13.2,13.48S29.11,63.71,29.54,53.21c.22-5.48,7.17-6.31,13.12-6.31S55.86,47.8,55.86,53.28Z" transform="translate(-5.72 -8.2)"/><circle class="cls-7" cx="21.94" cy="38.31" r="2.71"/><circle class="cls-7" cx="51.59" cy="37.95" r="2.71"/><ellipse cx="30.9" cy="49.17" rx="2.71" ry="4.28"/><ellipse cx="43.15" cy="49.17" rx="2.71" ry="4.28"/></svg>