<svg id="Raisin" xmlns="http://www.w3.org/2000/svg" viewBox="0 0 72.75 72.75"><defs><style>.cls-1{fill:#cdcca3;}.cls-2{fill:#676652;}.cls-3{fill:#282214;}.cls-4{fill:#b8b90e;}.cls-5{fill:#cfb4c7;}.cls-5,.cls-6{opacity:0.6;}.cls-6,.cls-7{fill:#b78fac;}.cls-7{opacity:0.77;}.cls-8{fill:#657300;}.cls-9{fill:#003f00;}.cls-10{fill:#a44020;}.cls-11{fill:#45291e;}.cls-12{fill:#42210b;}.cls-13{fill:#a67c52;}.cls-14{fill:#c19543;}</style></defs><title>raisin</title><path class="cls-1" d="M41.24,269A36.38,36.38,0,1,1,4.87,305.4,36.37,36.37,0,0,1,41.24,269" transform="translate(-4.87 -269.03)"/><path class="cls-2" d="M19.5,320.62l9.45,19c18.38,6.45,40.88-2.19,47.53-25.17L64.27,289.8l-9,1.39-4.43-7.66-5.27-.12-4.22-8.77-2,17.63,2.7,5.79-2.7,9.74-3.2-6.46Z" transform="translate(-4.87 -269.03)"/><path class="cls-3" d="M47.79,297.11c3-3,5.65-5.84,4.63-10.36-.78-3.5-3.32-5.88-7-5.76-3.06.1-4.61,1.45-6.07,3.93-1.1,1.89-2.31,4.65-.71,6.61,3,3.7,9.65,1,8.37-3.82-.61-2.29-1.77-3.06-3.5-4.31-4-2.92-.72-5.31-1.95-8.71-.66-1.8-3.56-1-2.9.8s-.68,4.32-.09,6.31c.84,2.84,3.15,3.18,4.81,5.12.72.86,1.34,2.63-.1,3.09-3.34,1.06-1.73-3-.94-4.21A3.46,3.46,0,0,1,46,284c3.85.52,4.24,5,2.89,7.47A18.3,18.3,0,0,1,45.67,295a1.5,1.5,0,0,0,2.12,2.12Z" transform="translate(-4.87 -269.03)"/><path class="cls-4" d="M60.82,304.52c1.24,7.21-2.14,16.63-8.29,17.68S40,316.15,38.8,308.94s3-12.59,9.11-13.65S59.58,297.31,60.82,304.52Z" transform="translate(-4.87 -269.03)"/><circle class="cls-5" cx="48.75" cy="31.48" r="2.44"/><circle class="cls-6" cx="51.07" cy="33.89" r="1.88"/><circle class="cls-7" cx="48.21" cy="34.1" r="1.88"/><path class="cls-8" d="M50.44,293.22c.69-5.19,4.86-5.19,4.83-7.05,0-1.25,2.89.69,2.8,2.35-.14,2.71-.32-1.89,6.13,1.28,0,0,.9,5.61-3.47,5.5-.77,0,1.93.76.85,3.57,0,.09,0,.2-.12.25a.34.34,0,0,1-.2,0,4.21,4.21,0,0,1-1.25-.67c-1.08-.59-3.41-.33-4.64-.39-2.56-.15-3.9-1.49-6.15-2.71a.61.61,0,0,1-.32-.29.59.59,0,0,1,.07-.48c.42-.92.67-.74,1.47-1.37" transform="translate(-4.87 -269.03)"/><path class="cls-9" d="M50.13,293.18a8.34,8.34,0,0,1,.73-2.61,6.47,6.47,0,0,1,1.68-2.16c.67-.6,1.48-1.07,2-1.59a1.11,1.11,0,0,0,.26-.39c0-.06,0-.14,0-.2s0-.1,0-.21a.56.56,0,0,1,.1-.3.71.71,0,0,1,.58-.35,1.39,1.39,0,0,1,.48.07,3.09,3.09,0,0,1,.68.34,3.91,3.91,0,0,1,1.7,2.29,2.68,2.68,0,0,1,0,.74l0,.33v.17s0,0,0-.09l0,0a.43.43,0,0,0-.12-.11.37.37,0,0,0-.16,0H58a.17.17,0,0,0-.1,0h0l.05,0,.14-.12.31-.21a3.16,3.16,0,0,1,.68-.29,5.25,5.25,0,0,1,2.76.12,10.88,10.88,0,0,1,2.45,1h0l.1.06,0,.12a5.62,5.62,0,0,1-.2,3.64A3.38,3.38,0,0,1,63,294.84a4.4,4.4,0,0,1-.83.44,4.73,4.73,0,0,1-.9.22l-.46.07-.11,0s0,0,0,0l.08,0s.16-.2.13-.25a.58.58,0,0,0,0-.12s0,0,0,0l.07.05a4.1,4.1,0,0,1,.75.61,2.64,2.64,0,0,1,.67,1.93,3.54,3.54,0,0,1-.18,1l-.08.23-.07.22a.71.71,0,0,1-.63.45,1.23,1.23,0,0,1-.38-.06c-.78-.26-1.13-.75-1.56-.84a5.31,5.31,0,0,0-1.6-.26c-.57,0-1.15,0-1.74,0a7.64,7.64,0,0,1-3.57-.77c-1.1-.53-2-1.23-3-1.81l-.38-.22a1.25,1.25,0,0,1-.46-.36.76.76,0,0,1-.06-.72,2.69,2.69,0,0,1,.22-.45,1.81,1.81,0,0,1,.72-.73,5.4,5.4,0,0,0,.71-.45l.38.49a5.94,5.94,0,0,1-.76.51,1.13,1.13,0,0,0-.48.51,2.06,2.06,0,0,0-.16.34c0,.11,0,.12,0,.12a6.37,6.37,0,0,0,.63.36c1,.58,2,1.26,3,1.72a6.93,6.93,0,0,0,3.24.63,15.22,15.22,0,0,1,3.65.17c.72.21,1.17.71,1.54.78,0,0,.12,0,.05,0a.34.34,0,0,0-.17.06.43.43,0,0,0-.13.15s0,0,0-.06l0-.14.06-.18a4,4,0,0,0,.15-.73,2.35,2.35,0,0,0-.33-1.36,3.9,3.9,0,0,0-.49-.64l-.09-.1a.32.32,0,0,1-.07-.1.28.28,0,0,1-.06-.17c0-.06.1-.29.15-.29a.5.5,0,0,1,.19-.06h.2l.42,0a3.17,3.17,0,0,0,.81-.12,2.18,2.18,0,0,0,.7-.42,2.79,2.79,0,0,0,.79-1.37,11.46,11.46,0,0,0,.41-3.29l.13.19h0a18.06,18.06,0,0,0-2.4-.85,4.63,4.63,0,0,0-2.39-.07,2.54,2.54,0,0,0-.5.23l-.23.16-.11.1-.07.06-.06,0,0,0a.34.34,0,0,1-.14,0h-.08a.42.42,0,0,1-.18,0,.81.81,0,0,1-.14-.12.33.33,0,0,1,0-.06.5.5,0,0,1-.05-.17.66.66,0,0,1,0-.13v-.18l0-.32a2.34,2.34,0,0,0,0-.55,3.22,3.22,0,0,0-1.38-1.77,2.22,2.22,0,0,0-.49-.24.69.69,0,0,0-.16,0h0s0,0,0,0,0,0,0,0a.24.24,0,0,0,0,.12,2.14,2.14,0,0,1-.08.44,2.1,2.1,0,0,1-.44.69c-.71.7-1.45,1.08-2.09,1.63a6.22,6.22,0,0,0-1.55,1.88,8.36,8.36,0,0,0-.76,2.36Z" transform="translate(-4.87 -269.03)"/><path class="cls-9" d="M49,295.29a13,13,0,0,1,4.53,0,15.75,15.75,0,0,1,6.06,1.92c.25.13.48-.26.22-.39A15.47,15.47,0,0,0,54,294.92c-1.59-.16-3.54-.51-5.11-.06a.22.22,0,0,0,.12.43Z" transform="translate(-4.87 -269.03)"/><path class="cls-9" d="M49.28,295.57l7.1-2c2.34-.67,5.61-.41,6.82-2.89.13-.26-.26-.49-.39-.23-1.08,2.21-5.85,2.48-8.16,3.14l-5.49,1.58a.22.22,0,0,0,.12.43Z" transform="translate(-4.87 -269.03)"/><path class="cls-9" d="M56,287.69c.8,2.32-3,3.64-4.48,4.71-1,.69-2.28,1.46-2.81,2.56-.12.26.26.49.39.23.74-1.54,3.12-2.85,4.59-3.68s3.45-1.89,2.74-3.94c-.09-.27-.52-.16-.43.12Z" transform="translate(-4.87 -269.03)"/><path class="cls-10" d="M52.58,322.58c1.64.46.05,5.61-2.7,5.53-1.65-.05-2.44.5-4.32,1.4-3.81,1.81-4-1.07-6-.59-5.47,1.34-2.88-4.27-4.65-3.25-5.6,3.25-9.34-5.46-7.08-5.67,2.1-.2,0-3.69,1.15-4.73,1.56-1.43,4.24,1.35,5.27-1.6.68-1.95,7.57-1.45,8.42.92.64,1.77,1.75,3.86,7,4.75C52.92,319.88,48.48,321.44,52.58,322.58Z" transform="translate(-4.87 -269.03)"/><path class="cls-11" d="M31.88,318.48a7.17,7.17,0,0,1,1.31-.63,1.69,1.69,0,0,1,1.81.51c.15.2.17.44.35.64.68.73,1.9.58,2.76.39.47-.1.27-.83-.2-.72a2,2,0,0,1-2.13-.36c-.16-.2-.2-.48-.39-.68a2.29,2.29,0,0,0-1.26-.6,4.41,4.41,0,0,0-2.63.8c-.43.21-.05.86.38.65Z" transform="translate(-4.87 -269.03)"/><path class="cls-11" d="M34.5,322.17c2.17-1.42,2.22,1.21,2.88,2.06A3.89,3.89,0,0,0,39,325.39c2.34.9,3.59-.94,5.91-1.05.48,0,.49-.77,0-.75a9,9,0,0,0-2.69.68c-2.94,1.05-3.4.47-5-2.13-.8-1.34-1.84-1.5-3.18-.62-.4.26,0,.91.38.65Z" transform="translate(-4.87 -269.03)"/><path class="cls-11" d="M49.12,323.36a7.33,7.33,0,0,0-4-2.08c-2.36-.3-4.33.44-6.67-.5-.45-.18-.65.55-.2.72a9.1,9.1,0,0,0,4.31.66c2.43-.21,4.14,0,6,1.73.35.33.88-.2.53-.53Z" transform="translate(-4.87 -269.03)"/><path class="cls-12" d="M35.9,315.37c2.46-1.26,4.6,2.52,6.8,3,.47.11.67-.62.2-.73-2.49-.59-4.39-4.49-7.38-3-.43.22-.05.87.38.65Z" transform="translate(-4.87 -269.03)"/><path class="cls-11" d="M50.78,325.74a7.66,7.66,0,0,0-4.14,0c-2.29.65-3.72,1.78-6.23.87-.46-.16-.65.56-.2.72,3.74,1.36,6.6-1.8,10.37-.84.47.12.67-.61.2-.72Z" transform="translate(-4.87 -269.03)"/><path class="cls-11" d="M28.28,321.78c1.38.78,2,2.42,3.28,3.3,1,.67,1.84.27,2.82-.27.42-.23,0-.88-.38-.65s-1,.67-1.63.52a4,4,0,0,1-1.6-1.4,7.85,7.85,0,0,0-2.11-2.15c-.42-.23-.8.41-.38.65Z" transform="translate(-4.87 -269.03)"/><path class="cls-13" d="M31,320.92c2.74-1.48,5-.48,7,1.63a1.85,1.85,0,0,0,2.36.63c.44-.19.06-.83-.38-.64-1.08.47-2.05-1.33-2.71-1.86a5.9,5.9,0,0,0-1.85-1,6,6,0,0,0-4.76.58c-.42.23-.05.88.38.65Z" transform="translate(-4.87 -269.03)"/><path class="cls-13" d="M34.6,322.53c1.38-1,2.71,3.22,4.06,3.76,2.13.84,4.38-1.79,6.5-1,.45.17.65-.55.2-.72-2.79-1.06-5.67,3-7.73-.38-.8-1.31-1.53-3.64-3.41-2.33-.39.27,0,.92.38.65Z" transform="translate(-4.87 -269.03)"/><path class="cls-13" d="M28.32,321.05a10.36,10.36,0,0,1,2.07,1.78,7.3,7.3,0,0,0,1.52,1.52c1,.6,1.67.06,2.59-.4.43-.22,0-.86-.38-.65s-1.09.7-1.68.5-1-.94-1.4-1.36a11.11,11.11,0,0,0-2.34-2c-.4-.27-.78.38-.38.65Z" transform="translate(-4.87 -269.03)"/><path class="cls-13" d="M49.25,322.65c-2.36-3.18-6.54-1.3-9.68-2-.47-.1-.67.62-.2.72,2.86.63,7.15-1.15,9.24,1.65.28.38.93,0,.64-.38Z" transform="translate(-4.87 -269.03)"/><path class="cls-14" d="M23.68,322.44c-.83,1.48-5.47-1.27-4.74-3.93.44-1.59.09-2.49-.34-4.53-.86-4.12,2-3.63,2-5.64,0-5.64,4.82-1.8,4.24-3.76C23,298.37,32.32,296.78,32,299c-.3,2.08,3.59.88,4.33,2.23,1,1.85-2.31,3.8.32,5.5,1.74,1.12-.37,7.7-2.88,8-1.86.2-4.16.79-6.25,5.66C26.22,323.4,25.76,318.72,23.68,322.44Z" transform="translate(-4.87 -269.03)"/><path class="cls-11" d="M31.56,301.35c.41,1.56,1.18,2.81.3,4.46-.57,1.07-2.11,1.87-2.4,3a.37.37,0,0,0,.72.2c.19-.76,1.38-1.54,1.84-2.15a4.51,4.51,0,0,0,.91-1.94c.29-1.51-.28-2.43-.65-3.81a.37.37,0,0,0-.72.2Z" transform="translate(-4.87 -269.03)"/><path class="cls-11" d="M23.33,318.75a3.6,3.6,0,0,0,2.89-2,6.13,6.13,0,0,0,.36-2.32,6.17,6.17,0,0,1,1.79-4.27c.3-.37-.22-.9-.53-.53-1.11,1.4-2,2.48-2,4.32,0,2.17-.4,3.6-2.69,4.09-.47.1-.27.82.2.72Z" transform="translate(-4.87 -269.03)"/><path class="cls-11" d="M34,307.06c.65,2.73-3.53,3.87-4.54,5.9-.22.43.43.81.64.38,1.15-2.29,5.41-3.21,4.62-6.47a.37.37,0,0,0-.72.19Z" transform="translate(-4.87 -269.03)"/><path class="cls-11" d="M21,320a7.85,7.85,0,0,0,1-4c-.09-2.33-.84-4.07.61-6.26.27-.41-.38-.78-.65-.38-2.2,3.32.21,6.84-1.61,10.28-.23.42.42.8.65.38Z" transform="translate(-4.87 -269.03)"/><path class="cls-11" d="M30.51,299.93c-1.17,1.23-3,1.35-4.15,2.68a4.6,4.6,0,0,0-.92,4c.11.47.83.27.73-.2a3.81,3.81,0,0,1,1.93-4.28A10.16,10.16,0,0,0,31,300.46c.33-.35-.2-.88-.53-.53Z" transform="translate(-4.87 -269.03)"/><path class="cls-13" d="M30.37,301.82A5.13,5.13,0,0,1,27.61,308c-1.08.55-1.86,1.07-1.63,2.36.08.47.8.27.72-.2-.21-1.17,1.74-1.68,2.4-2.18a5.75,5.75,0,0,0,2-6.35.37.37,0,0,0-.72.2Z" transform="translate(-4.87 -269.03)"/><path class="cls-13" d="M24.86,319.87c1.1-.33,2.6-1.11,3-2.22.49-1.31.43-2.9.92-4.27a15.06,15.06,0,0,1,1-2.2c.23-.43-.42-.81-.65-.38a16.27,16.27,0,0,0-1.51,3.81c-.23.88-.15,2.33-.63,3.12a5.28,5.28,0,0,1-2.36,1.42.37.37,0,0,0,.2.72Z" transform="translate(-4.87 -269.03)"/><path class="cls-13" d="M25,307.4c.51,1.16-.18.75-1,1a2,2,0,0,0-1.17,1.13c-.68,1.56.91,3.64-.11,5-.28.39.37.77.65.38,1.17-1.58-1.24-5.13,1-5.86.44-.15,1,.05,1.39-.35s0-1.23-.2-1.72-.84,0-.65.38Z" transform="translate(-4.87 -269.03)"/><path class="cls-13" d="M30.93,315c.35-1.64,2.45-2.92,3.66-3.92a3.06,3.06,0,0,0,1.33-3.34c-.07-.47-.79-.27-.72.2.5,3.15-4.37,3.93-5,6.86-.1.47.62.67.72.2Z" transform="translate(-4.87 -269.03)"/><path class="cls-13" d="M29.27,301.83a5.07,5.07,0,0,0-2.44,1.91,4.18,4.18,0,0,0-.39,2.76c.08.47.8.27.72-.2a3.3,3.3,0,0,1,.49-2.45,5,5,0,0,1,2-1.37c.43-.22.05-.86-.38-.65Z" transform="translate(-4.87 -269.03)"/></svg>