<svg id="Soy_Milk" data-name="Soy Milk" xmlns="http://www.w3.org/2000/svg" xmlns:xlink="http://www.w3.org/1999/xlink" viewBox="0 0 72.75 72.75"><defs><style>.cls-1{fill:#87a4a6;}.cls-2{fill:#445253;}.cls-3{fill:#fff;}.cls-4{fill:gray;}.cls-5{fill:#758f00;}.cls-5,.cls-6{stroke:#000;stroke-miterlimit:10;stroke-width:0.1px;}.cls-6{fill:#9cbf00;}.cls-7{fill:url(#Unbenannter_Verlauf_1150);}.cls-8{fill:url(#Unbenannter_Verlauf_1150-2);}.cls-9{fill:url(#Unbenannter_Verlauf_1150-3);}.cls-10{fill:url(#Unbenannter_Verlauf_1150-4);}.cls-11{fill:url(#Unbenannter_Verlauf_155);}.cls-12{fill:url(#Unbenannter_Verlauf_155-2);}.cls-13{fill:url(#Unbenannter_Verlauf_155-3);}.cls-14{fill:url(#Unbenannter_Verlauf_155-4);}.cls-15{fill:url(#Unbenannter_Verlauf_155-5);}.cls-16{fill:url(#Unbenannter_Verlauf_155-6);}.cls-17{font-size:7px;fill:#333;font-family:BernardMT-Condensed, Bernard MT Condensed;}</style><radialGradient id="Unbenannter_Verlauf_1150" cx="388.04" cy="380.1" r="2.42" gradientTransform="matrix(0.05, 0.8, 0.55, 0.09, -178.45, 39.2)" gradientUnits="userSpaceOnUse"><stop offset="0" stop-color="#feff7f"/><stop offset="0.06" stop-color="#fcfe7b"/><stop offset="0.13" stop-color="#f7f96e"/><stop offset="0.2" stop-color="#eff259"/><stop offset="0.26" stop-color="#e3e93b"/><stop offset="0.31" stop-color="#d9e021"/><stop offset="0.44" stop-color="#d1dc1d"/><stop offset="0.64" stop-color="#bacf10"/><stop offset="0.85" stop-color="#9cbf00"/></radialGradient><radialGradient id="Unbenannter_Verlauf_1150-2" cx="391.27" cy="385.14" r="2.75" gradientTransform="matrix(-0.02, 0.78, 0.54, 0.14, -154.82, 29.6)" xlink:href="#Unbenannter_Verlauf_1150"/><radialGradient id="Unbenannter_Verlauf_1150-3" cx="395.33" cy="389.62" r="2.99" gradientTransform="matrix(-0.17, 0.73, 0.52, 0.24, -85.16, 12.5)" xlink:href="#Unbenannter_Verlauf_1150"/><radialGradient id="Unbenannter_Verlauf_1150-4" cx="400.72" cy="392.67" r="2.96" gradientTransform="matrix(-0.24, 0.69, 0.45, 0.25, -30.5, 20.95)" xlink:href="#Unbenannter_Verlauf_1150"/><radialGradient id="Unbenannter_Verlauf_155" cx="301.84" cy="473.63" r="2.01" gradientTransform="matrix(0.04, 0.93, -0.69, 0.02, 364.39, 117.57)" gradientUnits="userSpaceOnUse"><stop offset="0.13" stop-color="#fff8bf"/><stop offset="0.29" stop-color="#faf0b8"/><stop offset="0.53" stop-color="#ecd9a4"/><stop offset="0.82" stop-color="#d6b583"/><stop offset="1" stop-color="#c69c6d"/></radialGradient><radialGradient id="Unbenannter_Verlauf_155-2" cx="459.94" cy="634.08" r="2.01" gradientTransform="matrix(0.08, 0.48, -0.69, -0.02, 444.92, 199.48)" xlink:href="#Unbenannter_Verlauf_155"/><radialGradient id="Unbenannter_Verlauf_155-3" cx="280.78" cy="439.41" r="2.01" gradientTransform="matrix(0.05, 1.1, -0.85, 0.03, 403.38, 85.78)" xlink:href="#Unbenannter_Verlauf_155"/><radialGradient id="Unbenannter_Verlauf_155-4" cx="90.53" cy="504.49" r="2.01" gradientTransform="matrix(0.6, 0.45, -0.38, 0.47, 183.25, 122.37)" xlink:href="#Unbenannter_Verlauf_155"/><radialGradient id="Unbenannter_Verlauf_155-5" cx="384.95" cy="394.04" r="2.01" gradientTransform="matrix(-0.43, 0.82, -0.61, -0.32, 454.91, 215.2)" xlink:href="#Unbenannter_Verlauf_155"/><radialGradient id="Unbenannter_Verlauf_155-6" cx="564.07" cy="578.13" r="2.01" gradientTransform="matrix(-0.16, 0.44, -0.59, -0.36, 471.12, 364.82)" xlink:href="#Unbenannter_Verlauf_155"/></defs><title>soy_drink</title><circle class="cls-1" cx="36.38" cy="36.38" r="36.38"/><path class="cls-2" d="M32.42,413.64l5.39,11.28a36.37,36.37,0,0,0,37.88-17l-20.6-46.82Z" transform="translate(-8.14 -352.79)"/><polygon class="cls-3" points="49.64 54.48 43.47 60.65 24.28 60.85 24.29 23.4 27.88 11.1 28.07 8.36 46.95 8.3 46.57 11.15 49.64 17.47 49.64 54.48"/><path class="cls-4" d="M32.42,413.64V376.19L36,363.89l.19-2.74,18.88-.06L54.71,364l2.82,5.59.25.5.08.14-.08.08v37l-6.17,6.17Zm.68-.68H50.93V376.63H33.1Zm18.51-36.53v36L57.1,407V370.94Zm-18.39-.49H51l2.91-11.59-17.29-.06Zm21.24-11L51.9,375.17,57,370.05Zm-17.73-1.37,17.32.05.25-1.88-17.45.05Z" transform="translate(-8.14 -352.79)"/><path class="cls-5" d="M46.53,382.47a3.12,3.12,0,0,0-1.07,2,4.26,4.26,0,0,0,.17,1.76c-1.39.33-1.57,1.88-1.43,3.75a3.05,3.05,0,0,0-1.85,3.27c-3.52,1.21-2.12,3.22-3.51,4.07-1.93,1.18,4.12,1.93,5-2.36,1.42-.35,2.3-1.54,2.41-3.93a2.1,2.1,0,0,0,1-.94c.49-.94.6-1.72.24-3.5A23.54,23.54,0,0,1,46.53,382.47Z" transform="translate(-8.14 -352.79)"/><path class="cls-6" d="M46.61,378.5c-1.12-2,5,5.22,3.16,8.15,1.31,1.28,1.39,3.68.14,4.52,1.05,2.16.59,3.63-1,4.59-.16,3.51-1.6,4.84-4.34,4-.14-2.39.4-4.21,2.39-4.84-1.14-2-.51-3.12.58-4.27-1.15-2.05-1.31-2.91,0-4C44.86,384.37,47.83,380.63,46.61,378.5Z" transform="translate(-8.14 -352.79)"/><path class="cls-7" d="M46.77,383.87c.22.95,1.34,2.33,2,2.32s1-1.41.75-2.37-1.17-2.59-1.86-2.57S46.55,382.91,46.77,383.87Z" transform="translate(-8.14 -352.79)"/><path class="cls-8" d="M48.52,390.65c.6.31,1.15-.52,1.39-1.34a4,4,0,0,0-1.11-3.12c-.6-.31-1.28.84-1.52,1.65A3.44,3.44,0,0,0,48.52,390.65Z" transform="translate(-8.14 -352.79)"/><path class="cls-9" d="M47,392.75a2.58,2.58,0,0,0,1.16,2.51A1.67,1.67,0,0,0,50,393.78c.09-1-.46-2.46-1.19-2.7S47,391.78,47,392.75Z" transform="translate(-8.14 -352.79)"/><path class="cls-10" d="M45.41,399.15c.45.42,1.79.08,2.28-.55s.9-2.49.44-2.9-2.13.09-2.62.72A2.81,2.81,0,0,0,45.41,399.15Z" transform="translate(-8.14 -352.79)"/><path class="cls-11" d="M49.51,409.32c-.08.79-.72,1.62-1.37,1.57a1.8,1.8,0,0,1-1.32-1.77c.08-.79.77-1.76,1.41-1.71S49.58,408.53,49.51,409.32Z" transform="translate(-8.14 -352.79)"/><path class="cls-12" d="M46.08,410.51c0,.41-.65.81-1.29.76s-1.44-.57-1.39-1a1.26,1.26,0,0,1,1.32-.82C45.37,409.52,46.12,410.11,46.08,410.51Z" transform="translate(-8.14 -352.79)"/><path class="cls-13" d="M46.74,406.81c-.09.93-.87,1.92-1.66,1.85a2.13,2.13,0,0,1-1.62-2.1c.09-.93.93-2.09,1.72-2S46.83,405.87,46.74,406.81Z" transform="translate(-8.14 -352.79)"/><path class="cls-14" d="M47.11,401.91a1.33,1.33,0,0,1,.2,1.71,1.5,1.5,0,0,1-1.85,0c-.44-.46-.66-1.42-.26-1.82A1.59,1.59,0,0,1,47.11,401.91Z" transform="translate(-8.14 -352.79)"/><path class="cls-15" d="M49.69,405.78c-.46.64-1.43,1.05-2,.68a1.77,1.77,0,0,1-.27-2.19c.46-.64,1.54-1.15,2.07-.78A1.93,1.93,0,0,1,49.69,405.78Z" transform="translate(-8.14 -352.79)"/><path class="cls-16" d="M44.67,403.5a1.16,1.16,0,0,1-1.46,0c-.53-.37-1-1.19-.75-1.5A1.25,1.25,0,0,1,44,402C44.52,402.33,44.9,403.18,44.67,403.5Z" transform="translate(-8.14 -352.79)"/><text class="cls-17" transform="translate(26.62 30.93)">D<tspan x="0" y="7">r</tspan><tspan x="0" y="14">i</tspan><tspan x="0" y="21">n</tspan><tspan x="0" y="28">k</tspan></text></svg>