<svg id="Soy_Nuts" data-name="Soy Nuts" xmlns="http://www.w3.org/2000/svg" xmlns:xlink="http://www.w3.org/1999/xlink" viewBox="0 0 72.75 72.75"><defs><style>.cls-1{fill:#dff1b1;}.cls-2{fill:#707959;}.cls-3{fill:#758f00;}.cls-3,.cls-4{stroke:#000;stroke-miterlimit:10;stroke-width:0.15px;}.cls-4{fill:#9cbf00;}.cls-5{fill:url(#Unbenannter_Verlauf_1150);}.cls-6{fill:url(#Unbenannter_Verlauf_1150-2);}.cls-7{fill:url(#Unbenannter_Verlauf_1150-3);}.cls-8{fill:url(#Unbenannter_Verlauf_1150-4);}.cls-9{fill:url(#Unbenannter_Verlauf_1150-5);}.cls-10{fill:url(#Unbenannter_Verlauf_62);}.cls-11{fill:url(#Unbenannter_Verlauf_62-2);}.cls-12{fill:url(#Unbenannter_Verlauf_62-3);}.cls-13{fill:url(#Unbenannter_Verlauf_62-4);}.cls-14{fill:url(#Unbenannter_Verlauf_1150-6);}.cls-15{fill:url(#Unbenannter_Verlauf_1150-7);}</style><radialGradient id="Unbenannter_Verlauf_1150" cx="121.54" cy="122.54" r="4.89" gradientTransform="translate(120.26 -27.19) rotate(53.78) scale(1 0.71)" gradientUnits="userSpaceOnUse"><stop offset="0" stop-color="#feff7f"/><stop offset="0.06" stop-color="#fcfe7b"/><stop offset="0.13" stop-color="#f7f96e"/><stop offset="0.2" stop-color="#eff259"/><stop offset="0.26" stop-color="#e3e93b"/><stop offset="0.31" stop-color="#d9e021"/><stop offset="0.44" stop-color="#d1dc1d"/><stop offset="0.64" stop-color="#bacf10"/><stop offset="0.85" stop-color="#9cbf00"/></radialGradient><radialGradient id="Unbenannter_Verlauf_1150-2" cx="127.86" cy="131.29" r="5.38" gradientTransform="translate(114.59 -25.97) rotate(49.29) scale(1 0.7)" xlink:href="#Unbenannter_Verlauf_1150"/><radialGradient id="Unbenannter_Verlauf_1150-3" cx="135.81" cy="140.06" r="5.86" gradientTransform="matrix(0.79, 0.61, -0.42, 0.54, 86.93, -18.95)" xlink:href="#Unbenannter_Verlauf_1150"/><radialGradient id="Unbenannter_Verlauf_1150-4" cx="146.37" cy="146.05" r="5.79" gradientTransform="matrix(0.85, 0.53, -0.32, 0.52, 69.36, -6.91)" xlink:href="#Unbenannter_Verlauf_1150"/><radialGradient id="Unbenannter_Verlauf_1150-5" cx="154.77" cy="132.74" r="5.86" gradientTransform="matrix(1, 0, 0, 1, 0, 0)" xlink:href="#Unbenannter_Verlauf_1150"/><radialGradient id="Unbenannter_Verlauf_62" cx="156.18" cy="140.06" r="5.86" gradientUnits="userSpaceOnUse"><stop offset="0.13" stop-color="#d1c7a6"/><stop offset="0.35" stop-color="#d2c7a4"/><stop offset="0.48" stop-color="#d4c69c"/><stop offset="0.57" stop-color="#d8c58e"/><stop offset="0.66" stop-color="#dec47a"/><stop offset="0.73" stop-color="#e6c261"/><stop offset="0.8" stop-color="#efc042"/><stop offset="0.85" stop-color="#f7be29"/></radialGradient><radialGradient id="Unbenannter_Verlauf_62-2" cx="157.43" cy="185.4" r="6.35" gradientTransform="translate(98.37 -99.48) rotate(28.81)" xlink:href="#Unbenannter_Verlauf_62"/><radialGradient id="Unbenannter_Verlauf_62-3" cx="150.08" cy="126.34" r="5.75" xlink:href="#Unbenannter_Verlauf_62"/><radialGradient id="Unbenannter_Verlauf_62-4" cx="154.98" cy="205.55" r="5.86" gradientTransform="matrix(0.77, 0.64, -0.64, 0.77, 151.57, -133.1)" xlink:href="#Unbenannter_Verlauf_62"/><radialGradient id="Unbenannter_Verlauf_1150-6" cx="161.02" cy="140.66" r="5.86" gradientTransform="matrix(0.79, 0.61, -0.42, 0.54, 92.42, -34.07)" xlink:href="#Unbenannter_Verlauf_1150"/><radialGradient id="Unbenannter_Verlauf_1150-7" cx="144.41" cy="132.03" r="5.86" gradientTransform="matrix(1, 0, 0, 1, 0, 0)" xlink:href="#Unbenannter_Verlauf_1150"/></defs><title>soy_nuts</title><path class="cls-1" d="M142.51,90.56a36.38,36.38,0,1,1-36.37,36.38,36.38,36.38,0,0,1,36.37-36.38" transform="translate(-106.14 -90.56)"/><path class="cls-2" d="M117.24,122.66l19.7,40.22a36.5,36.5,0,0,0,33.37-12.48l-5.54-11.17-3.62-2.45-2.31-4.65-2.74-1.78Z" transform="translate(-106.14 -90.56)"/><path class="cls-3" d="M121.49,117.41c1,.11-6.18-8.5-4-6.41a9.87,9.87,0,0,1,2.4,3.56c3.74-1,6.62,1.78,9.26,5.53,4.44-.34,7.48,1.18,9.48,4.08,10.09-1.79,10,3.7,14.59,3.7,6.36,0-6.5,8.55-15.35,1.35-3.86,1-7.79-.25-11.83-4.7-1,.1,9,8.89,7.55,8.2-2.64-1.23-4.13-2.6-6.12-6.44A93.63,93.63,0,0,0,121.49,117.41Z" transform="translate(-106.14 -90.56)"/><path class="cls-4" d="M116.76,109.61c-.53-5.13-3.42,16,5.6,19.34-1,4,2.63,8.71,6.85,8.85,1,5.38,4.38,7.66,9.55,7.67,5.93,6.54,11.38,7.42,16.34,2.52-3.45-4.74-7.6-7.62-13.23-6.48-.56-5.23-3.75-6.58-8.09-7.51-.58-5.28-1.59-7.13-6.28-7.72C130.15,118.81,117.33,115.13,116.76,109.61Z" transform="translate(-106.14 -90.56)"/><path class="cls-5" d="M125.69,120.9c1,2.09.6,6.06-1,6.85s-4.48-1.58-5.48-3.67-3.51-5.71-1.88-6.49S124.68,118.81,125.69,120.9Z" transform="translate(-106.14 -90.56)"/><path class="cls-6" d="M131.61,135.18c-.89,1.3-3.49.33-5.33-1s-3.29-6-2.39-7.29,4.3.11,6.15,1.38S132.5,133.89,131.61,135.18Z" transform="translate(-106.14 -90.56)"/><path class="cls-7" d="M138.6,137.36c1.76,1.76,2.59,4.85,1.26,6.18s-4.94,1.14-6.71-.63-2.84-5.24-1.52-6.57S136.84,135.6,138.6,137.36Z" transform="translate(-106.14 -90.56)"/><path class="cls-8" d="M152.31,147.83c-.4,1.33-4,2.26-6.17,1.62s-6-3.71-5.63-5,5.09-2.33,7.24-1.69S152.71,146.49,152.31,147.83Z" transform="translate(-106.14 -90.56)"/><path class="cls-9" d="M157.55,130c1.77,1.76,2.59,4.86,1.27,6.18s-4.95,1.14-6.71-.62-2.85-5.25-1.52-6.57S155.79,128.27,157.55,130Z" transform="translate(-106.14 -90.56)"/><path class="cls-10" d="M159,137.36c1.76,1.76,2.58,4.85,1.26,6.18s-4.95,1.14-6.71-.63-2.84-5.24-1.52-6.57S157.2,135.6,159,137.36Z" transform="translate(-106.14 -90.56)"/><path class="cls-11" d="M152.47,137.79c.7,2.39-2.4,5.5-4.2,6s-4.88-1.38-5.58-3.78,0-6,1.84-6.49S151.78,135.39,152.47,137.79Z" transform="translate(-106.14 -90.56)"/><path class="cls-12" d="M150.7,123.64c1.76,1.76,4.92,4.85,3.6,6.18s-5,1.14-6.71-.63-2.85-5.24-1.52-6.57S148.94,121.87,150.7,123.64Z" transform="translate(-106.14 -90.56)"/><path class="cls-13" d="M143.11,123.74c.23,2.48-1.12,5.38-3,5.55s-4.53-2.28-4.76-4.77,1.17-5.85,3-6S142.88,121.25,143.11,123.74Z" transform="translate(-106.14 -90.56)"/><path class="cls-14" d="M163.8,138c1.77,1.76,2.59,4.86,1.27,6.18s-4.95,1.14-6.71-.62-2.84-5.25-1.52-6.57S162,136.19,163.8,138Z" transform="translate(-106.14 -90.56)"/><path class="cls-15" d="M147.19,129.32c1.77,1.76,2.59,4.86,1.27,6.18s-5,1.14-6.71-.62-2.84-5.25-1.52-6.57S145.43,127.56,147.19,129.32Z" transform="translate(-106.14 -90.56)"/></svg>