<svg id="Tofu" xmlns="http://www.w3.org/2000/svg" xmlns:xlink="http://www.w3.org/1999/xlink" viewBox="0 0 72.75 72.79"><defs><style>.cls-1{fill:#bba564;}.cls-2{fill:#5e5646;}.cls-3{fill:url(#Unbenannter_Verlauf_29);}.cls-4{fill:url(#Unbenannter_Verlauf_43);}.cls-5{fill:url(#Unbenannter_Verlauf_27);}.cls-6{fill:#867950;}.cls-7{fill:#758f00;}.cls-7,.cls-8{stroke:#000;stroke-miterlimit:10;stroke-width:0.15px;}.cls-8{fill:#9cbf00;}.cls-9{fill:url(#Unbenannter_Verlauf_1150);}.cls-10{fill:url(#Unbenannter_Verlauf_1150-2);}.cls-11{fill:url(#Unbenannter_Verlauf_1150-3);}.cls-12{fill:url(#Unbenannter_Verlauf_1150-4);}</style><linearGradient id="Unbenannter_Verlauf_29" x1="128.81" y1="308.52" x2="143.69" y2="285.54" gradientUnits="userSpaceOnUse"><stop offset="0.02" stop-color="#998675"/><stop offset="0.05" stop-color="#a2907d"/><stop offset="0.14" stop-color="#b7a88f"/><stop offset="0.24" stop-color="#c5ba9c"/><stop offset="0.35" stop-color="#cec4a4"/><stop offset="0.48" stop-color="#d1c7a6"/><stop offset="1" stop-color="#f2f2f2"/></linearGradient><linearGradient id="Unbenannter_Verlauf_43" x1="134.05" y1="318.64" x2="139.83" y2="295.99" gradientUnits="userSpaceOnUse"><stop offset="0.02" stop-color="#998675"/><stop offset="0.1" stop-color="#ac9c85"/><stop offset="0.24" stop-color="#d1c7a6"/><stop offset="1" stop-color="#f2f2cb"/></linearGradient><linearGradient id="Unbenannter_Verlauf_27" x1="161.86" y1="308.74" x2="155.87" y2="279.64" gradientUnits="userSpaceOnUse"><stop offset="0.02" stop-color="#998675"/><stop offset="0.04" stop-color="#9e8c79"/><stop offset="0.22" stop-color="#bfb297"/><stop offset="0.31" stop-color="#ccc1a2"/><stop offset="0.35" stop-color="#cec4a4"/><stop offset="0.48" stop-color="#d1c7a6"/><stop offset="1" stop-color="#f2e089"/></linearGradient><radialGradient id="Unbenannter_Verlauf_1150" cx="116.08" cy="339.7" r="4.74" gradientTransform="matrix(0.4, 0.68, -0.39, 0.35, 202.22, 104.8)" gradientUnits="userSpaceOnUse"><stop offset="0" stop-color="#feff7f"/><stop offset="0.06" stop-color="#fcfe7b"/><stop offset="0.13" stop-color="#f7f96e"/><stop offset="0.2" stop-color="#eff259"/><stop offset="0.26" stop-color="#e3e93b"/><stop offset="0.31" stop-color="#d9e021"/><stop offset="0.44" stop-color="#d1dc1d"/><stop offset="0.64" stop-color="#bacf10"/><stop offset="0.85" stop-color="#9cbf00"/></radialGradient><radialGradient id="Unbenannter_Verlauf_1150-2" cx="122.4" cy="349.57" r="5.38" gradientTransform="matrix(0.45, 0.64, -0.37, 0.39, 192.8, 99.18)" xlink:href="#Unbenannter_Verlauf_1150"/><radialGradient id="Unbenannter_Verlauf_1150-3" cx="130.36" cy="358.34" r="5.86" gradientTransform="matrix(0.54, 0.51, -0.29, 0.46, 157.13, 89.05)" xlink:href="#Unbenannter_Verlauf_1150"/><radialGradient id="Unbenannter_Verlauf_1150-4" cx="140.92" cy="364.32" r="5.79" gradientTransform="matrix(0.58, 0.45, -0.22, 0.43, 130.89, 103.79)" xlink:href="#Unbenannter_Verlauf_1150"/></defs><title>tofu</title><path class="cls-1" d="M139.58,266.44a36.38,36.38,0,1,1-36.37,36.38,36.38,36.38,0,0,1,36.37-36.38" transform="translate(-103.21 -266.44)"/><path class="cls-2" d="M113.81,308.56l13.78,28.61a36.4,36.4,0,0,0,47.12-24.87l-12.16-24.73-6,15.95-4.61-9Z" transform="translate(-103.21 -266.44)"/><path class="cls-3" d="M162.55,287.57c0-.75-8.88-.79-10.66-1.69-9.44-4.73-8.73,3.1-24.25-.44-2.29-.52-2.13,0-4.24,2.13-.72.73-3.26,2.87-3.26,2.87v4L132.4,291l13.16,3.18,5.6-2,6.23-.49S162.55,289.19,162.55,287.57Z" transform="translate(-103.21 -266.44)"/><path class="cls-4" d="M157.23,310.51c-1.63,1-7.41-1.29-9.9-1.25-3.54.07-9.46,2.66-12.69,2.66-7.4,0-13.76-.4-14.62-1.21-1.14-1.08,0-9.09,0-9.09V291c0-.95,4,1.19,5.39,1.22,1.77.05,5.38-2.34,7.28-2.42,3.44-.15,10,3.53,13.45,3.22,1.24-.11,5.7-2.3,7.71-2.52a18.48,18.48,0,0,1,3.54.5v12.7Z" transform="translate(-103.21 -266.44)"/><path class="cls-5" d="M162.55,287.57c-.68-.73-2,2.11-2.73,2.7a8.44,8.44,0,0,1-2.43.69v14.51s-.86,5.48,0,5.24c.67-.17,1.68-1.56,2.17-1.82.75-.4,2.4-.47,2.58-1.18.27-1.07-1.14-2.52-.83-5.09.42-3.41,1.05-7.75,1.05-7.75S163.16,288.2,162.55,287.57Z" transform="translate(-103.21 -266.44)"/><ellipse class="cls-6" cx="40.17" cy="33.8" rx="0.53" ry="0.28"/><ellipse class="cls-6" cx="39.63" cy="32.8" rx="0.53" ry="0.28"/><ellipse class="cls-6" cx="142.01" cy="300.25" rx="0.53" ry="0.28" transform="translate(-208.44 -187.97) rotate(-22.79)"/><ellipse class="cls-6" cx="145.73" cy="300.55" rx="0.14" ry="0.25" transform="translate(-285.54 96.9) rotate(-74.97)"/><ellipse class="cls-6" cx="145" cy="300.14" rx="0.53" ry="0.28" transform="matrix(1, -0.04, 0.04, 1, -115.32, -260.28)"/><ellipse class="cls-6" cx="39.53" cy="34.52" rx="0.53" ry="0.28"/><ellipse class="cls-6" cx="144.12" cy="300.82" rx="0.28" ry="0.53" transform="matrix(0.17, -0.98, 0.98, 0.17, -280.28, 124.35)"/><ellipse class="cls-6" cx="145" cy="301.42" rx="0.29" ry="0.53" transform="translate(-288.71 -16.48) rotate(-55.46)"/><ellipse class="cls-6" cx="143.91" cy="301.53" rx="0.56" ry="0.27" transform="translate(-286.14 -34.22) rotate(-52.52)"/><ellipse class="cls-6" cx="144.84" cy="301.21" rx="0.13" ry="0.26" transform="translate(-266.47 -94.76) rotate(-41.52)"/><ellipse class="cls-6" cx="41.89" cy="35.93" rx="0.53" ry="0.28"/><ellipse class="cls-6" cx="142.74" cy="301.99" rx="0.29" ry="0.53" transform="translate(-266.01 -99.43) rotate(-40.87)"/><ellipse class="cls-6" cx="44.76" cy="32.65" rx="0.53" ry="0.28"/><ellipse class="cls-6" cx="44.23" cy="31.7" rx="0.53" ry="0.28"/><ellipse class="cls-6" cx="146.61" cy="299.09" rx="0.53" ry="0.28" transform="translate(-207.64 -186.28) rotate(-22.79)"/><ellipse class="cls-6" cx="148.91" cy="298.53" rx="0.53" ry="0.29" transform="translate(-248.35 -125.48) rotate(-35.3)"/><ellipse class="cls-6" cx="149.59" cy="298.98" rx="0.53" ry="0.28" transform="translate(-115.27 -260.1) rotate(-2.34)"/><ellipse class="cls-6" cx="44.13" cy="33.36" rx="0.53" ry="0.28"/><ellipse class="cls-6" cx="148.71" cy="299.66" rx="0.28" ry="0.53" transform="translate(-275.34 127.93) rotate(-80.05)"/><ellipse class="cls-6" cx="149.59" cy="300.27" rx="0.29" ry="0.53" transform="translate(-285.77 -13.19) rotate(-55.46)"/><ellipse class="cls-6" cx="45.29" cy="33.93" rx="0.53" ry="0.28"/><ellipse class="cls-6" cx="45.29" cy="34.5" rx="0.53" ry="0.28"/><ellipse class="cls-6" cx="46.48" cy="34.78" rx="0.53" ry="0.28"/><ellipse class="cls-6" cx="147.33" cy="300.84" rx="0.29" ry="0.53" transform="translate(-264.13 -96.71) rotate(-40.87)"/><ellipse class="cls-6" cx="43.5" cy="35.06" rx="0.53" ry="0.28"/><ellipse class="cls-6" cx="42.97" cy="34.11" rx="0.53" ry="0.28"/><ellipse class="cls-6" cx="145.9" cy="301.73" rx="0.19" ry="0.35" transform="translate(-292.29 24.44) rotate(-62.34)"/><ellipse class="cls-6" cx="147.21" cy="302.62" rx="0.19" ry="0.34" transform="translate(-286.44 99.85) rotate(-74.97)"/><ellipse class="cls-6" cx="148.33" cy="301.4" rx="0.53" ry="0.28" transform="translate(-115.37 -260.15) rotate(-2.34)"/><ellipse class="cls-6" cx="42.87" cy="35.77" rx="0.53" ry="0.28"/><ellipse class="cls-6" cx="147.45" cy="302.07" rx="0.28" ry="0.53" transform="matrix(0.17, -0.98, 0.98, 0.17, -278.76, 128.68)"/><ellipse class="cls-6" cx="148.33" cy="302.68" rx="0.29" ry="0.53" transform="translate(-288.3 -13.18) rotate(-55.46)"/><ellipse class="cls-6" cx="44.03" cy="36.34" rx="0.53" ry="0.28"/><ellipse class="cls-6" cx="44.03" cy="36.91" rx="0.53" ry="0.28"/><ellipse class="cls-6" cx="45.22" cy="37.19" rx="0.53" ry="0.28"/><ellipse class="cls-6" cx="146.07" cy="303.25" rx="0.29" ry="0.53" transform="translate(-266.02 -96.94) rotate(-40.87)"/><ellipse class="cls-6" cx="44.57" cy="29.67" rx="0.53" ry="0.28"/><ellipse class="cls-6" cx="44.03" cy="28.72" rx="0.53" ry="0.28"/><ellipse class="cls-6" cx="146.41" cy="296.11" rx="0.53" ry="0.28" transform="translate(-206.5 -186.59) rotate(-22.79)"/><ellipse class="cls-6" cx="148.72" cy="295.55" rx="0.53" ry="0.29" transform="translate(-246.66 -126.14) rotate(-35.3)"/><ellipse class="cls-6" cx="149.4" cy="296" rx="0.53" ry="0.28" transform="translate(-115.15 -260.11) rotate(-2.34)"/><ellipse class="cls-6" cx="43.93" cy="30.38" rx="0.53" ry="0.28"/><ellipse class="cls-6" cx="148.52" cy="296.68" rx="0.28" ry="0.53" transform="translate(-272.57 125.27) rotate(-80.05)"/><ellipse class="cls-6" cx="149.4" cy="297.29" rx="0.29" ry="0.53" transform="translate(-283.4 -14.64) rotate(-55.46)"/><ellipse class="cls-6" cx="45.1" cy="30.95" rx="0.53" ry="0.28"/><ellipse class="cls-6" cx="45.1" cy="31.51" rx="0.53" ry="0.28"/><ellipse class="cls-6" cx="46.29" cy="31.8" rx="0.53" ry="0.28"/><ellipse class="cls-6" cx="147.14" cy="297.85" rx="0.29" ry="0.53" transform="matrix(0.76, -0.65, 0.65, 0.76, -262.23, -97.56)"/><ellipse class="cls-6" cx="41.22" cy="30.25" rx="0.53" ry="0.28"/><ellipse class="cls-6" cx="40.69" cy="29.3" rx="0.53" ry="0.28"/><ellipse class="cls-6" cx="143.07" cy="296.7" rx="0.53" ry="0.28" transform="translate(-206.98 -187.84) rotate(-22.79)"/><ellipse class="cls-6" cx="145.37" cy="296.13" rx="0.53" ry="0.29" transform="translate(-247.61 -127.97) rotate(-35.3)"/><ellipse class="cls-6" cx="146.05" cy="296.59" rx="0.53" ry="0.28" transform="translate(-115.18 -260.24) rotate(-2.34)"/><ellipse class="cls-6" cx="40.59" cy="30.96" rx="0.53" ry="0.28"/><ellipse class="cls-6" cx="145.17" cy="297.26" rx="0.28" ry="0.53" transform="translate(-275.91 122.45) rotate(-80.05)"/><ellipse class="cls-6" cx="146.05" cy="297.87" rx="0.29" ry="0.53" transform="translate(-285.33 -17.14) rotate(-55.46)"/><ellipse class="cls-6" cx="41.75" cy="31.53" rx="0.53" ry="0.28"/><ellipse class="cls-6" cx="41.75" cy="32.1" rx="0.53" ry="0.28"/><ellipse class="cls-6" cx="42.94" cy="32.38" rx="0.53" ry="0.28"/><ellipse class="cls-6" cx="143.79" cy="298.44" rx="0.29" ry="0.53" transform="translate(-263.43 -99.61) rotate(-40.87)"/><ellipse class="cls-6" cx="38.3" cy="28.11" rx="0.53" ry="0.28"/><ellipse class="cls-6" cx="37.77" cy="27.16" rx="0.53" ry="0.28"/><ellipse class="cls-6" cx="140.15" cy="294.55" rx="0.53" ry="0.28" transform="translate(-206.38 -189.14) rotate(-22.79)"/><ellipse class="cls-6" cx="142.45" cy="293.99" rx="0.53" ry="0.29" transform="translate(-246.91 -130.05) rotate(-35.3)"/><ellipse class="cls-6" cx="143.13" cy="294.44" rx="0.53" ry="0.28" transform="translate(-115.09 -260.37) rotate(-2.34)"/><ellipse class="cls-6" cx="37.66" cy="28.82" rx="0.53" ry="0.28"/><ellipse class="cls-6" cx="142.25" cy="295.12" rx="0.28" ry="0.53" transform="translate(-276.21 117.81) rotate(-80.05)"/><ellipse class="cls-6" cx="143.13" cy="295.73" rx="0.29" ry="0.53" transform="translate(-284.83 -20.48) rotate(-55.46)"/><ellipse class="cls-6" cx="38.83" cy="29.39" rx="0.53" ry="0.28"/><ellipse class="cls-6" cx="38.83" cy="29.96" rx="0.53" ry="0.28"/><ellipse class="cls-6" cx="40.02" cy="30.24" rx="0.53" ry="0.28"/><ellipse class="cls-6" cx="140.87" cy="296.3" rx="0.29" ry="0.53" transform="translate(-262.74 -102.04) rotate(-40.87)"/><ellipse class="cls-6" cx="48.25" cy="28.69" rx="0.53" ry="0.28"/><ellipse class="cls-6" cx="47.72" cy="27.74" rx="0.53" ry="0.28"/><ellipse class="cls-6" cx="150.1" cy="295.14" rx="0.53" ry="0.28" transform="translate(-205.83 -185.24) rotate(-22.79)"/><ellipse class="cls-6" cx="152.4" cy="294.57" rx="0.53" ry="0.29" transform="translate(-245.42 -124.19) rotate(-35.3)"/><ellipse class="cls-6" cx="153.08" cy="295.03" rx="0.53" ry="0.28" transform="translate(-115.11 -259.96) rotate(-2.34)"/><ellipse class="cls-6" cx="47.61" cy="29.41" rx="0.53" ry="0.28"/><ellipse class="cls-6" cx="152.2" cy="295.71" rx="0.28" ry="0.53" transform="translate(-268.56 128.09) rotate(-80.05)"/><ellipse class="cls-6" cx="153.08" cy="296.31" rx="0.29" ry="0.53" transform="translate(-281 -12.03) rotate(-55.46)"/><ellipse class="cls-6" cx="48.78" cy="29.97" rx="0.53" ry="0.28"/><ellipse class="cls-6" cx="48.78" cy="30.54" rx="0.53" ry="0.28"/><ellipse class="cls-6" cx="49.97" cy="30.82" rx="0.53" ry="0.28"/><ellipse class="cls-6" cx="150.82" cy="296.88" rx="0.29" ry="0.53" transform="translate(-260.69 -95.39) rotate(-40.87)"/><ellipse class="cls-6" cx="43.88" cy="27.85" rx="0.53" ry="0.28"/><ellipse class="cls-6" cx="45.13" cy="28.39" rx="0.53" ry="0.28"/><ellipse class="cls-6" cx="141.75" cy="297.49" rx="0.53" ry="0.28" transform="translate(-207.4 -188.29) rotate(-22.79)"/><ellipse class="cls-6" cx="141.68" cy="298.32" rx="0.53" ry="0.29" transform="translate(-249.56 -129.7) rotate(-35.3)"/><ellipse class="cls-6" cx="140.92" cy="303.09" rx="0.53" ry="0.28" transform="matrix(1, -0.04, 0.04, 1, -115.45, -260.45)"/><ellipse class="cls-6" cx="40.92" cy="28.12" rx="0.53" ry="0.28"/><ellipse class="cls-6" cx="145.51" cy="294.42" rx="0.28" ry="0.53" transform="matrix(0.17, -0.98, 0.98, 0.17, -272.83, 120.44)"/><ellipse class="cls-6" cx="146.39" cy="295.03" rx="0.29" ry="0.53" transform="translate(-282.84 -18.1) rotate(-55.46)"/><ellipse class="cls-6" cx="42.09" cy="28.69" rx="0.53" ry="0.28"/><ellipse class="cls-6" cx="42.09" cy="29.26" rx="0.53" ry="0.28"/><ellipse class="cls-6" cx="43.28" cy="29.54" rx="0.53" ry="0.28"/><ellipse class="cls-6" cx="144.13" cy="295.6" rx="0.29" ry="0.53" transform="translate(-261.49 -100.08) rotate(-40.87)"/><ellipse class="cls-6" cx="48.49" cy="35.47" rx="0.53" ry="0.28"/><ellipse class="cls-6" cx="47.95" cy="34.52" rx="0.53" ry="0.28"/><ellipse class="cls-6" cx="150.33" cy="301.91" rx="0.53" ry="0.28" transform="translate(-208.44 -184.62) rotate(-22.79)"/><ellipse class="cls-6" cx="152.64" cy="301.35" rx="0.53" ry="0.29" transform="translate(-249.29 -122.81) rotate(-35.3)"/><ellipse class="cls-6" cx="153.32" cy="301.8" rx="0.53" ry="0.28" transform="translate(-115.38 -259.94) rotate(-2.34)"/><ellipse class="cls-6" cx="47.85" cy="36.18" rx="0.53" ry="0.28"/><ellipse class="cls-6" cx="152.44" cy="302.48" rx="0.28" ry="0.53" transform="translate(-275.04 133.93) rotate(-80.05)"/><ellipse class="cls-6" cx="153.32" cy="303.09" rx="0.29" ry="0.53" transform="translate(-286.48 -8.9) rotate(-55.46)"/><ellipse class="cls-6" cx="49.02" cy="36.75" rx="0.53" ry="0.28"/><ellipse class="cls-6" cx="49.02" cy="37.31" rx="0.53" ry="0.28"/><ellipse class="cls-6" cx="50.21" cy="37.6" rx="0.53" ry="0.28"/><ellipse class="cls-6" cx="151.06" cy="303.66" rx="0.29" ry="0.53" transform="translate(-265.07 -93.58) rotate(-40.87)"/><ellipse class="cls-6" cx="46.29" cy="38.74" rx="0.53" ry="0.28"/><ellipse class="cls-6" cx="45.76" cy="37.79" rx="0.53" ry="0.28"/><ellipse class="cls-6" cx="148.13" cy="305.19" rx="0.53" ry="0.28" transform="translate(-209.88 -185.22) rotate(-22.79)"/><ellipse class="cls-6" cx="150.44" cy="304.62" rx="0.53" ry="0.29" transform="translate(-251.59 -123.48) rotate(-35.3)"/><ellipse class="cls-6" cx="151.12" cy="305.08" rx="0.53" ry="0.28" transform="translate(-115.52 -260.03) rotate(-2.34)"/><ellipse class="cls-6" cx="45.65" cy="39.46" rx="0.53" ry="0.28"/><ellipse class="cls-6" cx="150.24" cy="305.75" rx="0.28" ry="0.53" transform="translate(-280.08 134.47) rotate(-80.05)"/><ellipse class="cls-6" cx="151.12" cy="306.36" rx="0.29" ry="0.53" transform="translate(-290.13 -9.29) rotate(-55.46)"/><ellipse class="cls-6" cx="46.82" cy="40.02" rx="0.53" ry="0.28"/><ellipse class="cls-6" cx="46.82" cy="40.59" rx="0.53" ry="0.28"/><ellipse class="cls-6" cx="48.01" cy="40.87" rx="0.53" ry="0.28"/><ellipse class="cls-6" cx="148.86" cy="306.93" rx="0.29" ry="0.53" transform="translate(-267.75 -94.22) rotate(-40.87)"/><ellipse class="cls-6" cx="50.24" cy="32.06" rx="0.53" ry="0.28"/><ellipse class="cls-6" cx="49.7" cy="31.11" rx="0.53" ry="0.28"/><ellipse class="cls-6" cx="152.08" cy="298.51" rx="0.53" ry="0.28" transform="translate(-206.98 -184.21) rotate(-22.79)"/><ellipse class="cls-6" cx="154.39" cy="297.94" rx="0.53" ry="0.29" transform="translate(-247 -122.43) rotate(-35.3)"/><ellipse class="cls-6" cx="155.07" cy="298.4" rx="0.53" ry="0.28" transform="translate(-115.24 -259.88) rotate(-2.34)"/><ellipse class="cls-6" cx="49.6" cy="32.77" rx="0.53" ry="0.28"/><ellipse class="cls-6" cx="154.19" cy="299.07" rx="0.28" ry="0.53" transform="translate(-270.23 132.83) rotate(-80.05)"/><ellipse class="cls-6" cx="155.07" cy="299.68" rx="0.29" ry="0.53" transform="translate(-282.92 -8.94) rotate(-55.46)"/><ellipse class="cls-6" cx="50.77" cy="33.34" rx="0.53" ry="0.28"/><ellipse class="cls-6" cx="50.77" cy="33.91" rx="0.53" ry="0.28"/><ellipse class="cls-6" cx="51.96" cy="34.19" rx="0.53" ry="0.28"/><ellipse class="cls-6" cx="152.81" cy="300.25" rx="0.29" ry="0.53" transform="translate(-262.41 -93.27) rotate(-40.87)"/><ellipse class="cls-6" cx="35.99" cy="40.41" rx="0.86" ry="0.21"/><ellipse class="cls-6" cx="35.13" cy="39.72" rx="0.86" ry="0.21"/><ellipse class="cls-6" cx="136.99" cy="306.86" rx="0.82" ry="0.22" transform="matrix(0.99, -0.14, 0.14, 0.99, -144.19, -244.63)"/><ellipse class="cls-6" cx="140.72" cy="306.44" rx="0.76" ry="0.23" transform="translate(-165.72 -229.08) rotate(-12.4)"/><ellipse class="cls-6" cx="141.82" cy="306.78" rx="0.86" ry="0.21" transform="translate(-107.5 -264.42) rotate(-0.8)"/><ellipse class="cls-6" cx="34.96" cy="40.93" rx="0.86" ry="0.21"/><ellipse class="cls-6" cx="140.4" cy="307.27" rx="0.21" ry="0.85" transform="translate(-277.93 162.58) rotate(-86.57)"/><ellipse class="cls-6" cx="141.82" cy="307.71" rx="0.23" ry="0.77" transform="translate(-292.02 115.32) rotate(-77.88)"/><ellipse class="cls-6" cx="36.85" cy="41.35" rx="0.86" ry="0.21"/><ellipse class="cls-6" cx="36.85" cy="41.76" rx="0.86" ry="0.21"/><ellipse class="cls-6" cx="38.77" cy="41.97" rx="0.86" ry="0.21"/><ellipse class="cls-6" cx="138.17" cy="308.13" rx="0.26" ry="0.68" transform="matrix(0.3, -0.95, 0.95, 0.3, -300.37, 81.58)"/><path class="cls-6" d="M150.74,305.28h0Z" transform="translate(-103.21 -266.44)"/><ellipse class="cls-6" cx="152.39" cy="288.2" rx="0.14" ry="0.25" transform="translate(-268.68 94.18) rotate(-74.97)"/><ellipse class="cls-6" cx="150.77" cy="288.47" rx="0.28" ry="0.53" transform="translate(-262.61 120.69) rotate(-80.05)"/><ellipse class="cls-6" cx="150.56" cy="289.18" rx="0.56" ry="0.27" transform="translate(-273.74 -33.77) rotate(-52.52)"/><ellipse class="cls-6" cx="151.5" cy="288.86" rx="0.13" ry="0.26" transform="translate(-256.61 -93.46) rotate(-41.52)"/><ellipse class="cls-6" cx="149.39" cy="289.64" rx="0.29" ry="0.53" transform="translate(-256.3 -98.09) rotate(-40.87)"/><ellipse class="cls-6" cx="152.55" cy="289.38" rx="0.19" ry="0.35" transform="translate(-277.78 23.71) rotate(-62.34)"/><ellipse class="cls-6" cx="152.2" cy="293.5" rx="0.35" ry="0.18" transform="translate(-271.97 -52.23) rotate(-48.72)"/><ellipse class="cls-6" cx="141.52" cy="288.32" rx="0.14" ry="0.25" transform="translate(-276.84 83.77) rotate(-74.97)"/><ellipse class="cls-6" cx="139.9" cy="288.58" rx="0.28" ry="0.53" transform="translate(-271.72 110.08) rotate(-80.05)"/><ellipse class="cls-6" cx="139.69" cy="289.29" rx="0.56" ry="0.27" transform="translate(-278.09 -42.35) rotate(-52.52)"/><ellipse class="cls-6" cx="140.63" cy="288.98" rx="0.13" ry="0.26" transform="translate(-259.42 -100.63) rotate(-41.52)"/><ellipse class="cls-6" cx="138.52" cy="289.76" rx="0.29" ry="0.53" transform="translate(-259.03 -105.17) rotate(-40.87)"/><ellipse class="cls-6" cx="141.68" cy="289.49" rx="0.19" ry="0.35" transform="translate(-283.71 14.15) rotate(-62.34)"/><ellipse class="cls-6" cx="142.99" cy="290.38" rx="0.19" ry="0.34" transform="translate(-277.75 86.72) rotate(-74.97)"/><ellipse class="cls-6" cx="145.97" cy="288.12" rx="0.14" ry="0.25" transform="translate(-273.36 87.92) rotate(-74.97)"/><ellipse class="cls-6" cx="144.35" cy="288.38" rx="0.28" ry="0.53" transform="translate(-267.84 114.3) rotate(-80.05)"/><ellipse class="cls-6" cx="144.14" cy="289.09" rx="0.56" ry="0.27" transform="translate(-276.18 -38.9) rotate(-52.52)"/><ellipse class="cls-6" cx="145.08" cy="288.78" rx="0.13" ry="0.26" transform="translate(-258.17 -97.73) rotate(-41.52)"/><ellipse class="cls-6" cx="142.97" cy="289.56" rx="0.29" ry="0.53" transform="translate(-257.81 -102.31) rotate(-40.87)"/><ellipse class="cls-6" cx="146.13" cy="289.29" rx="0.19" ry="0.35" transform="translate(-281.15 17.98) rotate(-62.34)"/><ellipse class="cls-6" cx="147.44" cy="290.18" rx="0.19" ry="0.34" transform="translate(-274.26 90.87) rotate(-74.97)"/><ellipse class="cls-6" cx="160.88" cy="294.24" rx="0.26" ry="0.13" transform="translate(-269.9 99.58) rotate(-73.69)"/><ellipse class="cls-6" cx="160.78" cy="292.48" rx="0.57" ry="0.26" transform="translate(-262.66 120.11) rotate(-77.57)"/><ellipse class="cls-6" cx="160.14" cy="292.19" rx="0.27" ry="0.55" transform="translate(-254.57 -92.52) rotate(-40.48)"/><ellipse class="cls-6" cx="160.35" cy="293.23" rx="0.26" ry="0.13" transform="translate(-260.7 -76.5) rotate(-43.33)"/><ellipse class="cls-6" cx="161.15" cy="290.9" rx="0.28" ry="0.54" transform="translate(-173.13 -214.71) rotate(-15.03)"/><ellipse class="cls-6" cx="159.78" cy="294.31" rx="0.37" ry="0.18" transform="translate(-278.19 36.89) rotate(-63.05)"/><ellipse class="cls-6" cx="158.84" cy="295.64" rx="0.36" ry="0.18" transform="translate(-272.71 98.63) rotate(-73.69)"/><ellipse class="cls-6" cx="161" cy="300.22" rx="0.26" ry="0.13" transform="translate(-275.56 104) rotate(-73.69)"/><ellipse class="cls-6" cx="160.9" cy="298.47" rx="0.57" ry="0.26" transform="translate(-268.41 124.92) rotate(-77.57)"/><ellipse class="cls-6" cx="160.26" cy="298.17" rx="0.27" ry="0.55" transform="translate(-258.42 -91.02) rotate(-40.48)"/><ellipse class="cls-6" cx="160.47" cy="299.21" rx="0.26" ry="0.13" transform="translate(-264.78 -74.79) rotate(-43.33)"/><ellipse class="cls-6" cx="159.94" cy="296.88" rx="0.52" ry="0.29" transform="translate(-263.76 -74.48) rotate(-43.56)"/><ellipse class="cls-6" cx="159.9" cy="300.29" rx="0.37" ry="0.18" transform="translate(-283.46 40.26) rotate(-63.05)"/><ellipse class="cls-6" cx="158.96" cy="301.62" rx="0.36" ry="0.18" transform="translate(-278.37 103.04) rotate(-73.69)"/><ellipse class="cls-6" cx="161.41" cy="296.86" rx="0.26" ry="0.13" transform="translate(-272.03 101.97) rotate(-73.69)"/><ellipse class="cls-6" cx="161.31" cy="295.1" rx="0.57" ry="0.26" transform="translate(-264.79 122.68) rotate(-77.57)"/><ellipse class="cls-6" cx="160.67" cy="294.81" rx="0.27" ry="0.55" transform="translate(-256.14 -91.55) rotate(-40.48)"/><ellipse class="cls-6" cx="160.88" cy="295.84" rx="0.26" ry="0.13" transform="translate(-262.35 -75.42) rotate(-43.33)"/><ellipse class="cls-6" cx="160.35" cy="293.51" rx="0.52" ry="0.29" transform="translate(-261.32 -75.12) rotate(-43.56)"/><ellipse class="cls-6" cx="160.31" cy="296.92" rx="0.37" ry="0.18" transform="translate(-280.23 38.79) rotate(-63.05)"/><ellipse class="cls-6" cx="159.37" cy="298.25" rx="0.36" ry="0.18" transform="matrix(0.28, -0.96, 0.96, 0.28, -274.84, 101.02)"/><ellipse class="cls-6" cx="159.72" cy="295.48" rx="0.26" ry="0.13" transform="translate(-269.47 110.02) rotate(-75.56)"/><ellipse class="cls-6" cx="159.56" cy="293.73" rx="0.57" ry="0.26" transform="translate(-261.65 130.28) rotate(-79.44)"/><ellipse class="cls-6" cx="158.91" cy="293.46" rx="0.27" ry="0.55" transform="translate(-259.79 -81.79) rotate(-42.54)"/><ellipse class="cls-6" cx="159.15" cy="294.49" rx="0.26" ry="0.13" transform="translate(-265.51 -65.32) rotate(-45.42)"/><ellipse class="cls-6" cx="158.55" cy="292.18" rx="0.52" ry="0.29" transform="translate(-264.42 -65.14) rotate(-45.65)"/><ellipse class="cls-6" cx="158.62" cy="295.59" rx="0.37" ry="0.18" transform="translate(-279.53 47.84) rotate(-64.98)"/><ellipse class="cls-6" cx="158.2" cy="296.88" rx="0.36" ry="0.18" transform="translate(-271.96 109.59) rotate(-75.56)"/><path class="cls-7" d="M116.41,300.51a6.33,6.33,0,0,1,3.91,2.22,8.45,8.45,0,0,1,1.64,3c2.57-.83,4.54,1.5,6.35,4.66a6.2,6.2,0,0,1,6.49,3.43c6.92-1.51,6.88,3.11,10,3.11,4.36,0-4.45,7.19-10.52,1.14-2.64.83-5.33-.22-8.1-4a4.17,4.17,0,0,1-2.67-.49c-1.81-1-2.82-2.18-4.19-5.41C118.63,306.56,118,303.19,116.41,300.51Z" transform="translate(-103.21 -266.44)"/><path class="cls-8" d="M112,294.17c-.36-4.31-2.34,13.41,3.84,16.27-.69,3.37,1.8,7.33,4.69,7.44.67,4.53,3,6.45,6.54,6.46,4.07,5.5,7.8,6.24,11.2,2.12-2.36-4-5.2-6.41-9.07-5.46-.37-4.4-2.56-5.53-5.54-6.31-.39-4.45-1.09-6-4.3-6.49C121.13,301.91,112.35,298.81,112,294.17Z" transform="translate(-103.21 -266.44)"/><path class="cls-9" d="M117.55,303c.69,1.76.41,5.1-.71,5.76s-3.06-1.33-3.75-3.09-1-5.33.15-6S116.86,301.23,117.55,303Z" transform="translate(-103.21 -266.44)"/><path class="cls-10" d="M122.13,315.68c-.61,1.09-2.38.28-3.65-.79s-2.25-5.05-1.64-6.14,3,.09,4.22,1.16S122.75,314.6,122.13,315.68Z" transform="translate(-103.21 -266.44)"/><path class="cls-11" d="M126.92,317.51c1.21,1.49,1.78,4.09.87,5.2s-3.39,1-4.6-.52-2-4.41-1-5.53S125.72,316,126.92,317.51Z" transform="translate(-103.21 -266.44)"/><path class="cls-12" d="M136.32,326.32c-.27,1.12-2.76,1.9-4.23,1.37s-4.13-3.12-3.85-4.25,3.49-2,4.95-1.43S136.59,325.2,136.32,326.32Z" transform="translate(-103.21 -266.44)"/></svg>