<svg id="Gluten_Free" data-name="Gluten Free" xmlns="http://www.w3.org/2000/svg" xmlns:xlink="http://www.w3.org/1999/xlink" viewBox="0 0 72.75 72.75"><defs><style>.cls-1{fill:#446b48;}.cls-2{fill:#223624;}.cls-10,.cls-11,.cls-12,.cls-3,.cls-4,.cls-5,.cls-6,.cls-7,.cls-8,.cls-9{stroke:#290000;stroke-miterlimit:10;stroke-width:0.15px;}.cls-3{fill:url(#Unbenannter_Verlauf_12);}.cls-4{fill:url(#Unbenannter_Verlauf_12-2);}.cls-5{fill:url(#Unbenannter_Verlauf_12-3);}.cls-6{fill:url(#Unbenannter_Verlauf_12-4);}.cls-7{fill:#fbe098;}.cls-8{fill:url(#Unbenannter_Verlauf_12-5);}.cls-9{fill:url(#Unbenannter_Verlauf_12-6);}.cls-10{fill:url(#Unbenannter_Verlauf_12-7);}.cls-11{fill:url(#Unbenannter_Verlauf_12-8);}.cls-12{fill:url(#Unbenannter_Verlauf_12-9);}.cls-13{fill:#361d10;}.cls-14{font-size:18px;fill:#fff;font-family:Roboto-Bold, Roboto;font-weight:700;}.cls-15{font-size:16px;}.cls-16{letter-spacing:-0.01em;}</style><linearGradient id="Unbenannter_Verlauf_12" x1="53.56" y1="179.32" x2="65.92" y2="205.66" gradientTransform="translate(119.51 0.6) rotate(32.98)" gradientUnits="userSpaceOnUse"><stop offset="0" stop-color="#f7be29"/><stop offset="0" stop-color="#fff"/><stop offset="1" stop-color="#fbe098"/></linearGradient><linearGradient id="Unbenannter_Verlauf_12-2" x1="49.8" y1="181.08" x2="62.16" y2="207.42" xlink:href="#Unbenannter_Verlauf_12"/><linearGradient id="Unbenannter_Verlauf_12-3" x1="45.94" y1="182.89" x2="58.3" y2="209.23" xlink:href="#Unbenannter_Verlauf_12"/><linearGradient id="Unbenannter_Verlauf_12-4" x1="57.2" y1="177.61" x2="69.56" y2="203.95" xlink:href="#Unbenannter_Verlauf_12"/><linearGradient id="Unbenannter_Verlauf_12-5" x1="46.58" y1="182.59" x2="58.94" y2="208.94" xlink:href="#Unbenannter_Verlauf_12"/><linearGradient id="Unbenannter_Verlauf_12-6" x1="42.65" y1="184.44" x2="55.01" y2="210.78" xlink:href="#Unbenannter_Verlauf_12"/><linearGradient id="Unbenannter_Verlauf_12-7" x1="38.88" y1="186.2" x2="51.24" y2="212.55" xlink:href="#Unbenannter_Verlauf_12"/><linearGradient id="Unbenannter_Verlauf_12-8" x1="50.4" y1="180.8" x2="62.76" y2="207.14" xlink:href="#Unbenannter_Verlauf_12"/><linearGradient id="Unbenannter_Verlauf_12-9" x1="56.42" y1="177.98" x2="68.78" y2="204.32" xlink:href="#Unbenannter_Verlauf_12"/></defs><title>gluten_free</title><path class="cls-1" d="M54.33,165.36A36.38,36.38,0,1,1,18,201.73a36.37,36.37,0,0,1,36.38-36.37" transform="translate(-17.95 -165.36)"/><path class="cls-2" d="M41.7,223.19l7.19,14.52A36.39,36.39,0,0,0,90.51,205.5l-10.9-22-.27-.54-4.53.54L74,181.82l-2.1,6.37-2.48-5-3.47-.86-3.23,3.94-2.19-4.43-.2.48-1.4-2.82-3.79,4.11,2.33,4.72-.78-.93L54,181.94l-2,7.39-3.67-7.42-2,1.35-2.59-5.32-2.32,8.55-2.92-5.9L32.75,179l-3.54,9,12.55,25.37-3.43,2.87Z" transform="translate(-17.95 -165.36)"/><path class="cls-3" d="M69.1,204.52s-4.67,1.77-7.46,1.61a5.5,5.5,0,0,1-.62-.08,3.48,3.48,0,0,1-2.62-2,3.31,3.31,0,0,1-.26-2c.23-1.12,1.35-2.74,4-2.2a5.13,5.13,0,0,1,.82.26,3.42,3.42,0,0,0,3.18,2.06h.22C67.88,203.38,69.1,204.52,69.1,204.52Z" transform="translate(-17.95 -165.36)"/><path class="cls-4" d="M64.37,208.45s-4.66,1.69-7.44,1.51a6.39,6.39,0,0,1-.67-.09,3.45,3.45,0,0,1-2.64-2.13,3.4,3.4,0,0,1-.18-1.84c.24-1.12,1.39-2.72,4-2.15a6,6,0,0,1,.95.33,3.48,3.48,0,0,0,2.62,2,5.5,5.5,0,0,0,.62.08C63.16,207.3,64.37,208.45,64.37,208.45Z" transform="translate(-17.95 -165.36)"/><path class="cls-5" d="M59.52,212.3s-5.53,1.84-8.14,1.19a3.41,3.41,0,0,1-2.71-4.05c.27-1.1,1.46-2.67,4.07-2a5.71,5.71,0,0,1,.88.33,3.45,3.45,0,0,0,2.64,2.13,6.39,6.39,0,0,0,.67.09C58.38,211.15,59.52,212.3,59.52,212.3Z" transform="translate(-17.95 -165.36)"/><path class="cls-6" d="M73.87,199.45s-4.79,2.74-7.52,2.78h-.22A3.42,3.42,0,0,1,63,200.18a3.25,3.25,0,0,1-.29-1.37,2.87,2.87,0,0,1,2.11-2.64,3.31,3.31,0,0,0,3.63.36A31.54,31.54,0,0,1,73.87,199.45Z" transform="translate(-17.95 -165.36)"/><path class="cls-7" d="M68.4,196.53a3.31,3.31,0,0,1-3.63-.36,4.73,4.73,0,0,1,1.48-.16A6.89,6.89,0,0,1,68.4,196.53Z" transform="translate(-17.95 -165.36)"/><path class="cls-8" d="M56.67,200.65a3.36,3.36,0,0,1-1.84-.73,3.47,3.47,0,0,1-1.25-3,4.79,4.79,0,0,1,.08-.62c.53-2.74,3.41-6.82,3.41-6.82a34.9,34.9,0,0,1,1.53,3.23,1.94,1.94,0,0,0-.05.2,3.39,3.39,0,0,0,1.19,3.59,5.26,5.26,0,0,1,0,.86C59.65,200,57.8,200.71,56.67,200.65Z" transform="translate(-17.95 -165.36)"/><path class="cls-9" d="M51.84,204.27a3.31,3.31,0,0,1-1.74-.63,3.44,3.44,0,0,1-1.4-3.08,4.07,4.07,0,0,1,.08-.67c.51-2.74,3.31-6.82,3.31-6.82s.82,1.45,1.57,3.21a4.79,4.79,0,0,0-.08.62,3.47,3.47,0,0,0,1.25,3,5.1,5.1,0,0,1,.08,1C54.81,203.6,53,204.31,51.84,204.27Z" transform="translate(-17.95 -165.36)"/><path class="cls-10" d="M47.21,208A3.39,3.39,0,0,1,44,204.39c0-2.69,3.18-7.59,3.18-7.59s.83,1.39,1.62,3.09a4.07,4.07,0,0,0-.08.67,3.44,3.44,0,0,0,1.4,3.08,5.37,5.37,0,0,1,.1.93C50.17,207.26,48.35,208,47.21,208Z" transform="translate(-17.95 -165.36)"/><path class="cls-11" d="M61,197.1a3.27,3.27,0,0,1-1.26-.62,3.39,3.39,0,0,1-1.19-3.59,1.94,1.94,0,0,1,.05-.2c.72-2.64,4.57-6.59,4.57-6.59a32.61,32.61,0,0,1,1.42,5.69,2.92,2.92,0,0,0-.42,3.76A2.88,2.88,0,0,1,61,197.1Z" transform="translate(-17.95 -165.36)"/><path class="cls-7" d="M64.17,195.55a2.92,2.92,0,0,1,.42-3.76,7.66,7.66,0,0,1,0,2.53A4.66,4.66,0,0,1,64.17,195.55Z" transform="translate(-17.95 -165.36)"/><path class="cls-12" d="M69.13,196.07a4.61,4.61,0,0,1-.73.46,3.31,3.31,0,0,1-3.63-.36,2.56,2.56,0,0,1-.5-.48l-.1-.14a2.92,2.92,0,0,1,.42-3.76,5.6,5.6,0,0,1,.61-.55c2.13-1.65,8-2.29,8-2.29S71.26,194.42,69.13,196.07Z" transform="translate(-17.95 -165.36)"/><polygon class="cls-13" points="44.89 31.99 20.85 51.48 19.89 50.24 44.75 31.8 44.89 31.99"/><text class="cls-14" transform="translate(9.88 25.92)">Gluten<tspan class="cls-15"><tspan x="12.14" y="32">f</tspan><tspan class="cls-16" x="17.87" y="32">r</tspan><tspan x="23.56" y="32">ee</tspan></tspan></text></svg>