<svg id="Low_Carb" data-name="Low Carb" xmlns="http://www.w3.org/2000/svg" viewBox="0 0 72.75 72.78"><defs><style>.cls-1{fill:#9bcac8;}.cls-2{fill:#4e6564;}.cls-3{fill:#d39243;}.cls-4{fill:#754c24;}.cls-5{fill:#8c6239;}.cls-6{font-size:18px;fill:#fff;font-family:Roboto-Bold, Roboto;font-weight:700;}.cls-7{font-size:16px;}</style></defs><title>diary_free</title><path class="cls-1" d="M52.87,421.54A36.38,36.38,0,1,1,16.5,457.91a36.38,36.38,0,0,1,36.37-36.37" transform="translate(-16.5 -421.54)"/><path class="cls-2" d="M37.84,481.54l5.71,11.54c19.8,5.17,36.91-6.64,42.61-20.47L69.07,438l-2.82,5.27-2.5-5-2.28,5.17-2.65-5.37,0,9.11,4.48,9-.64.48-8.33-16.81-5.26-1.32L47.05,445l4,8-2.12-.34-3.25-7.17-.45-.12-5.27-10.66-2.25,12.12,2.28,4.6L28.88,460l9.24,18.68Z" transform="translate(-16.5 -421.54)"/><path class="cls-3" d="M79.23,465.25A17.14,17.14,0,0,0,72,458.52a41.65,41.65,0,0,0-9.5-3.25,135.69,135.69,0,0,0-26-3.95c-5.78-.25-8.24,5.51-7.66,7.2a12.33,12.33,0,0,0,5.51,6.35,31.33,31.33,0,0,0,8,3.1,141.81,141.81,0,0,0,30.29,4.89,10.52,10.52,0,0,0,3.17-.18,5.28,5.28,0,0,0,3.36-2.85c.63-1.38,1.16-3.33.15-4.58" transform="translate(-16.5 -421.54)"/><path class="cls-4" d="M79.55,465.06C73.07,454.53,57,453.18,45.9,451.77c-4.7-.6-18.78-2.67-17.54,6.62.55,4.06,5.54,7,8.89,8.35C44.34,469.65,52.47,471,60,472c3.52.5,7.06.89,10.61,1.1,2.08.12,4.41.49,6.33-.54a5.87,5.87,0,0,0,2.59-7.52c-.2-.43-.85-.05-.65.38,4,8.6-9.83,6.88-14,6.44a139.5,139.5,0,0,1-15.07-2.44c-5.46-1.18-24.43-4.82-20-13.91,2.14-4.43,7.24-3.88,11.33-3.52A129.93,129.93,0,0,1,55,454c8.62,1.69,18.92,3.33,23.9,11.43.26.41.91,0,.65-.38Z" transform="translate(-16.5 -421.54)"/><path class="cls-5" d="M41.73,455.24a5.9,5.9,0,0,0-1.13,3.24,1,1,0,0,0,.61-.41c1.74-2,4.53-3.48,6.45-5.28a24.87,24.87,0,0,0-3.55-.47Z" transform="translate(-16.5 -421.54)"/><path class="cls-5" d="M54.62,453.9a7.43,7.43,0,0,0-4.69,7.62,20,20,0,0,1,3.71-4.08,12.39,12.39,0,0,1,4-2.91" transform="translate(-16.5 -421.54)"/><path class="cls-5" d="M64.16,456c-.31-.08-.87.67-1.45,1.16a11.55,11.55,0,0,0-2.63,3,6.15,6.15,0,0,0-.85,3.83,14.61,14.61,0,0,1,4.09-3.9c.76-.49,1.57-.91,2.32-1.43s1.81-1.63,1.4-1.77C66.29,456.6,64.87,456.17,64.16,456Z" transform="translate(-16.5 -421.54)"/><text class="cls-6" transform="translate(19.8 25.92)">Low<tspan class="cls-7"><tspan x="0.69" y="37">carb</tspan></tspan></text></svg>