<svg id="Diary_Free" data-name="Diary Free" xmlns="http://www.w3.org/2000/svg" xmlns:xlink="http://www.w3.org/1999/xlink" viewBox="0 0 72.75 72.75"><defs><style>.cls-1{fill:#bd7786;}.cls-2{fill:#5f3c43;}.cls-3{fill:#fbd71f;}.cls-4{fill:#f7931e;}.cls-5{fill:#ffc135;}.cls-6{fill:url(#Unbenannter_Verlauf_407);}.cls-7{fill:url(#Unbenannter_Verlauf_407-2);}.cls-8{fill:url(#Unbenannter_Verlauf_407-3);}.cls-9{fill:url(#Unbenannter_Verlauf_407-4);}.cls-10{fill:url(#Unbenannter_Verlauf_407-5);}.cls-11{font-size:18px;fill:#fff;font-family:Roboto-Bold, Roboto;font-weight:700;}.cls-12{letter-spacing:0.01em;}.cls-13{font-size:16px;}.cls-14{letter-spacing:-0.01em;}</style><radialGradient id="Unbenannter_Verlauf_407" cx="31.44" cy="37.92" r="4.11" gradientUnits="userSpaceOnUse"><stop offset="0.02" stop-color="#ffe41f"/><stop offset="0.64" stop-color="#f7cf00"/><stop offset="0.74" stop-color="#f7ca04"/><stop offset="0.85" stop-color="#f5bd11"/><stop offset="0.97" stop-color="#f3a727"/><stop offset="1" stop-color="#f29f2f"/></radialGradient><radialGradient id="Unbenannter_Verlauf_407-2" cx="58.28" cy="124.36" r="3.57" xlink:href="#Unbenannter_Verlauf_407"/><radialGradient id="Unbenannter_Verlauf_407-3" cx="65.1" cy="117.15" r="2.57" xlink:href="#Unbenannter_Verlauf_407"/><radialGradient id="Unbenannter_Verlauf_407-4" cx="41.32" cy="125.75" r="2.35" xlink:href="#Unbenannter_Verlauf_407"/><radialGradient id="Unbenannter_Verlauf_407-5" cx="59.5" cy="108.26" r="1.73" xlink:href="#Unbenannter_Verlauf_407"/></defs><title>diary_free</title><path class="cls-1" d="M51.81,80a36.38,36.38,0,1,1-36.38,36.37A36.37,36.37,0,0,1,51.81,80" transform="translate(-15.43 -79.97)"/><path class="cls-2" d="M43,151.65c19.66,4.66,38.57-6.52,44-26.05L72.61,96.53l-1.36-.12-2.1,6.37-.23-1.22-2.5-5.07-.55,5.2-2.64-5.34L61,97.88l-.71-1.44-2,7.24-2.85-5.77-1.64-.63-5,1.69-2.79-5.65-2.46.94,1.09,9.68-3.94-8-7.12-1.76-1.61,11.52,3.54,7.14-3.27,5,5.35,10.82L32.41,130Z" transform="translate(-15.43 -79.97)"/><path class="cls-3" d="M32.44,111.57c-.11.2.06,4.42.13,6.3,6.83-1.24,4.26,8.95.08,6l0,6.13s34.73.26,37.16.25c0,0,1-18.55.41-20.2-.73-2.06-5.67-4.14-7.31-5.58C61.08,102.93,32.6,111.25,32.44,111.57Z" transform="translate(-15.43 -79.97)"/><path class="cls-4" d="M32.21,111.57a49.13,49.13,0,0,0,.14,6.3.22.22,0,0,0,.22.22c7-.72,3.47,7.43.2,5.62a.23.23,0,0,0-.34.2l0,6.13a.23.23,0,0,0,.23.23c12.38.09,24.77.24,37.16.25a.24.24,0,0,0,.23-.23c.31-5.82.69-11.7.59-17.53,0-2.38-.13-3.3-2.1-4.87-1.51-1.2-4.15-3.28-6-3.75-1.69-.43-4.12.34-5.76.66-3.45.68-6.85,1.55-10.24,2.44-4.23,1.11-10.41,1.77-14.18,4.13-.24.16,0,.55.23.39,2.74-1.72,7.15-2.21,10.22-3.05A158,158,0,0,1,58.4,105c4.67-.8,11.09,1.91,11.75,7.11.63,5-.21,10.62-.45,15.67-.07,1.36,0,2-.47,2.34-.78.5-3.62,0-4.53,0l-15.93-.11-14-.1c-.5,0-2.05-.1-1.92,0-.33-.35,0-2.41,0-2.89a9.32,9.32,0,0,1,0-1.75c.52-1.65-.29-.36.31-.77.39-.27,1.72.16,2.45-.37A4.2,4.2,0,0,0,37,120.52a3.23,3.23,0,0,0-1.81-2.7c-1.53-.89-1.94.13-2.47-2a14.13,14.13,0,0,1-.06-4.26C32.69,111.28,32.24,111.28,32.21,111.57Z" transform="translate(-15.43 -79.97)"/><path class="cls-5" d="M70.08,111.27c-.9,1.4-27.53.67-37.64.3-.65,0,21.89-7.06,30.45-7.06,3.17,0,7.44,6.78,7.19,6.76" transform="translate(-15.43 -79.97)"/><path class="cls-4" d="M69.92,111.12c-1.29,1.12-5.37.65-6.94.69-3.57.09-7.14.07-10.7,0q-6.08-.07-12.13-.25l-4.7-.14a9.12,9.12,0,0,1-2.22-.08c-.3-.1-.65.55.05.1,1.78-1.15,4.78-1.49,6.8-2.07q5.19-1.49,10.45-2.71a59.4,59.4,0,0,1,10.81-1.89c3-.12,7.91,3.16,8.52,6.53,0,.29.49.17.43-.12-.4-2.22-3.82-5.6-5.77-6.46-2.77-1.22-6.78,0-9.6.54-7.28,1.4-15.85,2.85-22.6,6.06a.27.27,0,0,0-.11.2v0a.23.23,0,0,0,.23.22c8,.29,16,.51,24.06.53,3.42,0,6.87.05,10.29-.22,1-.07,2.65,0,3.45-.67.21-.19-.11-.5-.32-.31Z" transform="translate(-15.43 -79.97)"/><circle class="cls-6" cx="31.44" cy="37.92" r="4.11"/><path class="cls-7" d="M62,124.36c0,2-2.28,3.41-4.12,3.41a3.23,3.23,0,0,1-3.32-3.34,3.36,3.36,0,0,1,3.32-3.49C59.72,120.94,62,122.34,62,124.36Z" transform="translate(-15.43 -79.97)"/><path class="cls-8" d="M67.54,118.21c0,1.4-1.53,1.63-2.93,1.63s-2-1.13-2-2.54.08-2.85,1.48-2.85S67.54,116.81,67.54,118.21Z" transform="translate(-15.43 -79.97)"/><path class="cls-9" d="M43.69,125.68c0,1.6-.62,2.4-2.22,2.4s-2.52-.41-2.52-2,.44-2.64,2-2.64S43.69,124.08,43.69,125.68Z" transform="translate(-15.43 -79.97)"/><path class="cls-10" d="M61.42,108.3c0,1.15-.71,1.47-1.86,1.47s-2-.32-2-1.47.63-1.55,1.77-1.55S61.42,107.16,61.42,108.3Z" transform="translate(-15.43 -79.97)"/><text class="cls-11" transform="translate(15.43 25.92)">Dia<tspan class="cls-12" x="26.12" y="0">r</tspan><tspan x="32.84" y="0">y</tspan><tspan class="cls-13"><tspan x="6.58" y="32">f</tspan><tspan class="cls-14" x="12.32" y="32">r</tspan><tspan x="18" y="32">ee</tspan></tspan></text></svg>