<svg id="High_Protein" data-name="High Protein" xmlns="http://www.w3.org/2000/svg" xmlns:xlink="http://www.w3.org/1999/xlink" viewBox="0 0 72.75 72.82"><defs><style>.cls-1{fill:#923636;}.cls-2{fill:#491b1b;}.cls-3{fill:#9f440f;}.cls-4{fill:#2d210b;}.cls-5{fill:url(#Unbenannter_Verlauf_244);}.cls-6{fill:#270000;}.cls-7{fill:url(#Unbenannter_Verlauf_181);}.cls-8{fill:#230000;}.cls-12,.cls-9{fill:#fff;}.cls-10{fill:url(#Unbenannter_Verlauf_102);}.cls-11{fill:url(#Unbenannter_Verlauf_102-2);}.cls-12{font-size:18px;font-family:Roboto-Bold, Roboto;font-weight:700;}.cls-13{font-size:16px;}.cls-14{letter-spacing:-0.02em;}</style><linearGradient id="Unbenannter_Verlauf_244" x1="41.17" y1="284.78" x2="82.05" y2="292.6" gradientUnits="userSpaceOnUse"><stop offset="0" stop-color="#a25500"/><stop offset="0.04" stop-color="#b0681c"/><stop offset="0.09" stop-color="#c38240"/><stop offset="0.14" stop-color="#d39860"/><stop offset="0.2" stop-color="#e1ab7c"/><stop offset="0.27" stop-color="#ecbb92"/><stop offset="0.36" stop-color="#f5c7a3"/><stop offset="0.46" stop-color="#fbcfae"/><stop offset="0.6" stop-color="#fed4b5"/><stop offset="0.99" stop-color="#ffd5b7"/></linearGradient><radialGradient id="Unbenannter_Verlauf_181" cx="44.92" cy="289.47" r="11.85" gradientUnits="userSpaceOnUse"><stop offset="0" stop-color="#ffa057"/><stop offset="0.23" stop-color="#fe9d54"/><stop offset="0.39" stop-color="#fc944c"/><stop offset="0.53" stop-color="#f8843e"/><stop offset="0.66" stop-color="#f26e2b"/><stop offset="0.72" stop-color="#ef611f"/><stop offset="0.77" stop-color="#ea601e"/><stop offset="0.83" stop-color="#dd5c1c"/><stop offset="0.9" stop-color="#c65618"/><stop offset="0.96" stop-color="#a64e13"/><stop offset="0.99" stop-color="#954a10"/></radialGradient><radialGradient id="Unbenannter_Verlauf_102" cx="55.6" cy="283.59" r="8.13" gradientUnits="userSpaceOnUse"><stop offset="0" stop-color="#ffa057"/><stop offset="0.16" stop-color="#fd9a51"/><stop offset="0.39" stop-color="#f98841"/><stop offset="0.64" stop-color="#f16a27"/><stop offset="0.72" stop-color="#ef611f"/><stop offset="0.77" stop-color="#e75f1e"/><stop offset="0.84" stop-color="#d1591a"/><stop offset="0.94" stop-color="#ad5014"/><stop offset="0.99" stop-color="#954a10"/></radialGradient><radialGradient id="Unbenannter_Verlauf_102-2" cx="61.91" cy="289.62" r="7.72" xlink:href="#Unbenannter_Verlauf_102"/></defs><title>high_protein</title><path class="cls-1" d="M52.87,250.75A36.38,36.38,0,1,1,16.5,287.13a36.38,36.38,0,0,1,36.37-36.38" transform="translate(-16.5 -250.75)"/><path class="cls-2" d="M28.44,311.64l2,4.12a36.32,36.32,0,0,0,56-14.57l-16-32.38-1.77.9L67.28,268,65,263.41l-1.27,10.23-3.17-6.41-.52,1.52-3-.92-3.72,2.58-3.07-6.29-2.42,1,1.35,2.73.16,4.09-4-8-.56,4.69-4.08,1.5-3-6.12L35.2,276.38l2.58,5.22L35,295.4l2.45,4.94.48,7-3.08-6.24-3.81.26-.6-1.09Z" transform="translate(-16.5 -250.75)"/><path class="cls-3" d="M71.13,278.38c4,3.43,1.88,7.57-2.37,13.6-9.29,13.19-31,7.19-31.91,5.9-2.52-3.56-4.21-9.83-3.2-12.61" transform="translate(-16.5 -250.75)"/><path class="cls-4" d="M71,278.53c5.44,5.48-2.84,15.34-7.85,18.35-4.17,2.51-9.16,3.32-14,3.25a34.5,34.5,0,0,1-9.93-1.46c-4.54-1.46-6.41-9.09-5.35-13.35a.23.23,0,0,0-.44-.11c-1,3.82.57,11.06,4,13.31s9.9,2.19,13.76,2c5.94-.25,12-2.07,16.17-6.53,3.77-4,8.72-10.94,3.88-15.8a.22.22,0,0,0-.31.31Z" transform="translate(-16.5 -250.75)"/><path class="cls-5" d="M36.18,282.26a7.72,7.72,0,0,0-3.29,2.61c-1.28,2.18,2.11,9.66,4.71,11.22a10.56,10.56,0,0,0,3,1.11c7.86,1.95,16.69,1.43,23.4-3.11a12.29,12.29,0,0,0,2.66-2.32,17.41,17.41,0,0,0,2-3.36l2.44-4.81a8.66,8.66,0,0,0,1.07-2.88c.12-1,0-2.73-1-2.78C63.24,277.54,45.29,278.07,36.18,282.26Z" transform="translate(-16.5 -250.75)"/><path class="cls-6" d="M36.07,282.07c-3.14,1.7-4.18,3.13-3.26,6.57s2.79,6.92,6.11,8.31c8.16,3.42,21.91,2.05,27.88-5,1.76-2.1,2.89-5,4.09-7.39.71-1.42,1.88-3.32,1.52-5-.59-2.85-4-1.89-6.34-1.88-9.89,0-20.81.49-30,4.46-.27.11,0,.5.22.39,6.46-2.79,13.69-3.6,20.65-4.08,3-.21,6.08-.32,9.13-.32a15.33,15.33,0,0,1,3.25,0c3.65.85,1.54,5.5.37,7.8-1.87,3.68-3.57,6.7-7.21,8.86A26.52,26.52,0,0,1,48.63,298c-4.71-.07-10.58-.56-13.3-4.86-2.38-3.77-3.93-8.08,1-10.72C36.55,282.32,36.32,281.93,36.07,282.07Z" transform="translate(-16.5 -250.75)"/><path class="cls-7" d="M35,284.82c2.78-2.5,7.71-3.84,10.2-3.27,1.42.33,11.22,13.26,11,13.95-.36,1.31-9.19,3.33-17.87-1.14C36.12,293.23,33.11,286.47,35,284.82Z" transform="translate(-16.5 -250.75)"/><path class="cls-8" d="M35.11,285c2.31-1.84,7.37-4.55,10.34-3a11.09,11.09,0,0,1,2.49,2.62,102.45,102.45,0,0,1,6.7,8.69c1,1.44,1.82,1.8.09,2.86S50,297,48,296.83c-3.2-.21-8.19-1.08-10.51-3.42-1.63-1.66-4-6.29-2.36-8.48.18-.23-.21-.46-.38-.23-1.3,1.73-.27,4.33.54,6.06,1.44,3.1,3.35,4.26,6.56,5.31,1.92.64,13.83,3.23,14.54-.63.2-1.06-2.35-3.72-2.88-4.44-1.75-2.39-3.56-4.75-5.51-7-1.13-1.3-2-2.51-3.67-2.81-3.23-.55-7.15,1.53-9.55,3.45C34.56,284.84,34.88,285.15,35.11,285Z" transform="translate(-16.5 -250.75)"/><path class="cls-9" d="M64.4,282.59a2.92,2.92,0,0,1,.52-2.8A1.82,1.82,0,0,1,66,279a2.11,2.11,0,0,1,.83.07,3.81,3.81,0,0,1,1.63.63,2,2,0,0,1,.25,2.68,2.47,2.47,0,0,1-1.64.8,7.71,7.71,0,0,1-1.86-.07c-.39-.05-.88-.2-.9-.59" transform="translate(-16.5 -250.75)"/><path class="cls-8" d="M64.61,282.53a2.85,2.85,0,0,1,.78-2.94c.74-.67,2.46-.29,3.12.43a1.73,1.73,0,0,1-.71,2.75c-.57.24-3,.54-3.23-.31a.22.22,0,0,0-.43.12c.13.52.58.66,1.08.75A5.16,5.16,0,0,0,68,283.2a2.17,2.17,0,0,0,1.23-3,3.21,3.21,0,0,0-3.48-1.36,3.16,3.16,0,0,0-1.52,3.79c.09.27.53.15.43-.12Z" transform="translate(-16.5 -250.75)"/><path class="cls-10" d="M48.2,280.37c5.17-.91,18.07-2.51,15-.21-5.32,3.9-8.86,10.31-10.83,7.22C51,285.29,45.76,280.79,48.2,280.37Z" transform="translate(-16.5 -250.75)"/><path class="cls-8" d="M48.26,280.58c3.16-.54,6.35-1,9.55-1.22a34.74,34.74,0,0,1,3.53-.16c1.52.05,2.6,0,.91,1.37a52.31,52.31,0,0,0-4.27,4c-.9.91-2.62,3.23-4,3.33-1.22.08-2.54-2.09-3.22-2.86-.47-.53-3.83-4-2.47-4.48.27-.08.15-.52-.12-.43C45.45,281,51,286,51.6,286.76c.89,1.12,1.34,2,2.87,1.44,2.1-.77,3.81-3.32,5.35-4.83,1.17-1.15,6.39-4.1,2.42-4.58-4.52-.55-9.65.6-14.1,1.36C47.85,280.2,48,280.63,48.26,280.58Z" transform="translate(-16.5 -250.75)"/><path class="cls-11" d="M58.5,295.29c-2.41-.67-4.46-5.15-3-6.42,2.52-2.25,6.76-2.13,9-3.49C75.37,278.73,62.92,296.53,58.5,295.29Z" transform="translate(-16.5 -250.75)"/><path class="cls-8" d="M58.56,295.07c-2.1-.75-4.61-4.52-2.53-6.35,1.75-1.53,4.47-1.7,6.62-2.36,1-.32,6.36-3.83,5.87-1.09-.4,2.19-2.51,4.48-4,6s-3.8,4.26-6,3.76c-.29-.06-.41.37-.12.44,2,.45,4.11-1.56,5.42-2.82a20.49,20.49,0,0,0,4.82-6.53c.44-1.09.68-2.57-.91-2.48s-2.85,1.3-4.17,1.87c-2.16.92-4.58,1-6.7,2.1-1.67.84-2.45,1.81-1.95,3.69a6.07,6.07,0,0,0,3.49,4.17C58.71,295.61,58.83,295.17,58.56,295.07Z" transform="translate(-16.5 -250.75)"/><text class="cls-12" transform="translate(17.46 25.92)">High<tspan class="cls-13"><tspan x="-6.51" y="32">p</tspan><tspan class="cls-14" x="2.49" y="32">r</tspan><tspan x="8.05" y="32">otein</tspan></tspan></text></svg>