<svg id="Low_Calorie" data-name="Low Calorie" xmlns="http://www.w3.org/2000/svg" xmlns:xlink="http://www.w3.org/1999/xlink" viewBox="0 0 72.75 72.75"><defs><style>.cls-1{fill:#e4c53d;}.cls-2{fill:#72631f;}.cls-3,.cls-6{fill:none;stroke-miterlimit:10;}.cls-3{stroke:#42210b;stroke-width:1.5px;}.cls-4{fill:#4c7b37;}.cls-5{fill:#303b2a;}.cls-6{stroke:#005300;stroke-width:0.25px;}.cls-7{fill:url(#Unbenannter_Verlauf_18);}.cls-8{fill:#30572a;}.cls-9{font-size:18px;fill:#fff;font-family:Roboto-Bold, Roboto;font-weight:700;}.cls-10{font-size:16px;}.cls-11{letter-spacing:-0.01em;}</style><linearGradient id="Unbenannter_Verlauf_18" x1="60.59" y1="385.84" x2="46.08" y2="360.82" gradientUnits="userSpaceOnUse"><stop offset="0" stop-color="#336837"/><stop offset="0.49" stop-color="#8cc63f"/><stop offset="1" stop-color="#f2f2f2"/></linearGradient></defs><title>low_kcal</title><path class="cls-1" d="M55,336.15a36.38,36.38,0,1,1-36.38,36.37A36.37,36.37,0,0,1,55,336.15" transform="translate(-18.62 -336.15)"/><path class="cls-2" d="M41.23,398.88l4.37,8.79a36.43,36.43,0,0,0,42.74-20.59l-17.07-34.5L68,356.92l-2.16-4.37L63.7,358,61,352.5l.56,9.2,3.83,7.76-.94.16L56.94,354.5l-5.72-1.36-1.59,10.11L47.41,360l.5,1.24L42,349.35,39.8,362,45,372.46l-2.54,10.36,4.25,8.6L48.5,394l1.07.12-2.39-4.84L46.12,393l-2.85-5.78Z" transform="translate(-18.62 -336.15)"/><path class="cls-3" d="M55.39,366.84a8.58,8.58,0,0,1,1.55-5.6" transform="translate(-18.62 -336.15)"/><path class="cls-4" d="M45.42,359.91c2.75-2.59,12.06,3.35,9.17,6.49C50.71,370.1,49.53,360.18,45.42,359.91Z" transform="translate(-18.62 -336.15)"/><path class="cls-5" d="M45.68,360.18c1.76-1.47,4.86.17,6.4,1.25A6.89,6.89,0,0,1,54.5,364a1.91,1.91,0,0,1-1.41,2.82c-1.81.16-3.12-3.16-3.94-4.39s-2-2.7-3.73-2.9c-.48-.06-.48.69,0,.75,2.89.34,3.87,4.5,5.65,6.33a2.5,2.5,0,0,0,4.33-.88c.72-2.26-1.91-4.35-3.55-5.35-1.84-1.12-4.79-2.34-6.7-.74C44.78,360,45.31,360.48,45.68,360.18Z" transform="translate(-18.62 -336.15)"/><path class="cls-6" d="M45.89,359.65c4,1.38,7.24,3.38,8.44,6.71" transform="translate(-18.62 -336.15)"/><path class="cls-7" d="M55.39,366.84c2.12.05,11.61-3.17,13.49,6.26,2.1,10.57-9.1,18.31-10.95,17.39-2.13-1.05-1.23-.64-3.36-1-1.3-.25-2.55.51-3.9,1C47,391.84,39,380.09,41.21,373.07c1.76-5.44,6.76-8.82,14.18-6.23" transform="translate(-18.62 -336.15)"/><path class="cls-8" d="M55.39,367.21c5.64-.22,11.58-1.47,13.13,6,1.15,5.56-3.6,17.21-10.56,16.65-1.67-.14-3-1-4.78-.72-2.64.39-3.37,1.46-6-.37a13.36,13.36,0,0,1-3.21-4c-2-3.33-3.59-7.67-2.45-11.56,1.89-6.39,8-7.68,13.72-6a.37.37,0,0,0,.2-.72c-9-2.69-17.08,3.47-14.5,13.13,1,3.63,3.24,8.13,6.46,10.29a5.38,5.38,0,0,0,2.79,1c1.86.22,3.67-1.4,5.91-.84a8.25,8.25,0,0,0,2,.84c2.43.15,5.18-2.62,6.64-4.19a16.14,16.14,0,0,0,4.68-11.69c-.17-3.57-1.62-7.05-5.09-8.44-3-1.21-6-.27-9-.15-.48,0-.48.77,0,.75Z" transform="translate(-18.62 -336.15)"/><text class="cls-9" transform="translate(19.8 25.92)">Low<tspan class="cls-10"><tspan class="cls-11" x="1.8" y="37">k</tspan><tspan x="10.19" y="37">cal</tspan></tspan></text></svg>